<?xml version="1.0" encoding="UTF-8" standalone="no"?>
<!DOCTYPE svg PUBLIC "-//W3C//DTD SVG 1.1//EN" "http://www.w3.org/Graphics/SVG/1.1/DTD/svg11.dtd">
<svg xmlns="http://www.w3.org/2000/svg" version="1.1" viewBox="0 0 652 652" width="652.0pt" height="652.0pt">
<path d="M 0.00 0.00 L 652.00 0.00 L 652.00 652.00 L 0.00 652.00 L 0.00 0.00 Z" fill="#ffffff" />
<path d="M 336.27 21.74 C 341.48 27.47 348.85 32.82 352.03 39.92 C 346.08 35.06 341.29 26.60 334.15 23.10 C 333.38 37.71 336.14 50.38 329.13 64.08 C 329.09 62.75 329.07 61.42 329.05 60.08 C 329.46 59.14 329.86 58.19 330.24 57.23 C 331.55 54.53 331.99 51.99 332.12 49.01 C 333.54 42.68 333.69 26.98 331.78 20.79 C 333.64 19.05 334.80 20.45 336.27 21.74 Z" fill="#f9d37d" />
<path d="M 331.78 20.79 C 333.69 26.98 333.54 42.68 332.12 49.01 C 331.59 40.64 332.81 32.08 331.15 23.93 C 330.89 22.75 331.10 21.71 331.78 20.79 Z" fill="#fff6cd" />
<path d="M 334.15 23.10 C 341.29 26.60 346.08 35.06 352.03 39.92 C 353.49 45.11 357.59 47.25 360.15 51.91 C 363.06 55.79 364.79 60.31 367.99 63.94 C 370.28 71.03 374.02 77.43 376.76 84.30 C 381.16 99.76 386.09 114.69 383.15 130.99 C 382.55 145.71 375.10 155.97 368.07 168.05 C 362.31 171.33 358.02 176.29 351.69 178.95 C 351.18 176.35 352.74 175.08 354.12 173.14 C 361.27 164.04 361.55 154.07 361.88 143.03 C 359.65 133.43 358.76 119.47 351.98 112.01 C 351.31 106.36 345.54 98.23 340.99 94.89 C 338.04 97.30 336.93 103.47 336.08 107.16 C 334.59 109.90 333.05 112.59 331.18 115.09 C 321.24 125.98 311.42 138.00 309.22 153.15 C 308.49 162.37 311.26 170.94 317.70 177.65 C 317.07 178.04 316.42 178.42 315.77 178.79 L 315.12 179.14 C 311.95 176.05 307.94 173.17 304.14 170.89 C 298.69 163.63 293.25 157.35 290.83 148.20 C 289.60 135.77 289.29 124.08 294.31 112.32 C 295.69 109.34 297.79 107.26 297.85 103.80 C 302.06 97.34 306.09 90.81 310.21 84.30 C 311.75 84.24 312.17 88.42 313.97 89.13 C 316.99 87.22 318.91 84.57 320.26 81.31 C 324.03 76.12 326.47 69.90 329.13 64.08 C 336.14 50.38 333.38 37.71 334.15 23.10 Z" fill="#fda505" />
<path d="M 352.03 39.92 C 355.83 42.10 358.12 46.82 360.81 50.20 C 363.31 54.47 367.41 58.94 367.99 63.94 C 364.79 60.31 363.06 55.79 360.15 51.91 C 357.59 47.25 353.49 45.11 352.03 39.92 Z" fill="#fadb80" />
<path d="M 332.12 49.01 C 331.99 51.99 331.55 54.53 330.24 57.23 C 330.07 54.07 330.45 51.72 332.12 49.01 Z" fill="#fff8c4" />
<path d="M 329.05 60.08 C 329.07 61.42 329.09 62.75 329.13 64.08 C 326.47 69.90 324.03 76.12 320.26 81.31 L 319.23 81.11 C 323.04 74.31 325.64 67.06 329.05 60.08 Z" fill="#ffe8a8" />
<path d="M 367.99 63.94 C 372.57 67.98 374.90 77.44 377.84 83.12 C 383.20 98.38 386.52 115.20 384.48 131.38 C 383.58 144.50 377.91 159.14 368.07 168.05 C 375.10 155.97 382.55 145.71 383.15 130.99 C 386.09 114.69 381.16 99.76 376.76 84.30 C 374.02 77.43 370.28 71.03 367.99 63.94 Z" fill="#fbd681" />
<path d="M 319.23 81.11 L 320.26 81.31 C 318.91 84.57 316.99 87.22 313.97 89.13 C 312.17 88.42 311.75 84.24 310.21 84.30 C 306.09 90.81 302.06 97.34 297.85 103.80 C 288.79 115.73 286.74 134.11 290.83 148.20 C 293.25 157.35 298.69 163.63 304.14 170.89 C 299.98 169.53 298.77 166.02 296.10 162.87 C 287.34 150.42 286.76 136.46 288.67 121.82 C 290.99 107.84 301.97 94.92 309.32 83.22 C 312.05 82.11 312.80 85.28 314.35 86.81 C 316.37 85.46 317.69 82.98 319.23 81.11 Z" fill="#fce08d" />
<path d="M 340.99 94.89 C 345.54 98.23 351.31 106.36 351.98 112.01 C 347.48 107.68 346.85 100.68 340.99 96.82 C 338.69 99.95 339.17 104.22 336.08 107.16 C 336.93 103.47 338.04 97.30 340.99 94.89 Z" fill="#fc6d03" />
<path d="M 340.99 96.82 C 346.85 100.68 347.48 107.68 351.98 112.01 C 354.34 120.15 358.11 128.30 359.20 136.94 C 361.33 150.13 360.13 163.67 351.26 174.26 C 348.67 176.87 347.92 180.65 343.52 180.01 C 343.64 177.95 343.82 175.89 343.88 173.82 C 344.67 163.08 343.76 153.64 336.94 145.04 C 336.28 145.23 335.63 145.45 334.99 145.70 C 333.39 146.14 333.08 147.43 332.94 148.90 C 329.92 151.94 328.19 155.70 327.87 159.98 C 327.52 160.61 327.18 161.24 326.86 161.88 C 325.21 167.57 325.34 175.55 327.93 181.03 C 328.91 184.46 324.72 182.03 322.94 182.19 C 317.03 173.32 310.17 166.61 310.96 154.98 C 312.48 138.06 323.63 128.52 331.18 115.09 C 333.05 112.59 334.59 109.90 336.08 107.16 C 339.17 104.22 338.69 99.95 340.99 96.82 Z" fill="#fb3602" />
<path d="M 297.85 103.80 C 297.79 107.26 295.69 109.34 294.31 112.32 C 289.29 124.08 289.60 135.77 290.83 148.20 C 286.74 134.11 288.79 115.73 297.85 103.80 Z" fill="#f3bc3b" />
<path d="M 351.98 112.01 C 358.76 119.47 359.65 133.43 361.88 143.03 C 361.55 154.07 361.27 164.04 354.12 173.14 C 352.74 175.08 351.18 176.35 351.69 178.95 C 350.09 179.95 348.51 180.96 346.97 182.05 C 346.04 182.50 345.10 182.93 344.14 183.33 C 337.87 183.85 343.49 176.82 343.88 173.82 C 343.82 175.89 343.64 177.95 343.52 180.01 C 347.92 180.65 348.67 176.87 351.26 174.26 C 360.13 163.67 361.33 150.13 359.20 136.94 C 358.11 128.30 354.34 120.15 351.98 112.01 Z" fill="#f66b08" />
<path d="M 331.18 115.09 C 323.63 128.52 312.48 138.06 310.96 154.98 C 310.17 166.61 317.03 173.32 322.94 182.19 L 321.87 182.22 C 321.17 181.85 320.48 181.47 319.78 181.09 C 318.69 179.38 317.85 178.82 315.77 178.79 C 316.42 178.42 317.07 178.04 317.70 177.65 C 311.26 170.94 308.49 162.37 309.22 153.15 C 311.42 138.00 321.24 125.98 331.18 115.09 Z" fill="#fc7407" />
<path d="M 336.94 145.04 C 343.76 153.64 344.67 163.08 343.88 173.82 C 343.49 176.82 337.87 183.85 344.14 183.33 C 342.15 183.92 337.62 185.36 339.65 181.63 C 345.16 170.67 344.17 154.16 334.99 145.70 C 335.63 145.45 336.28 145.23 336.94 145.04 Z" fill="#f8af7b" />
<path d="M 334.99 145.70 C 335.24 147.58 334.73 148.36 332.94 148.90 C 333.08 147.43 333.39 146.14 334.99 145.70 Z" fill="#ffb07c" />
<path d="M 332.94 148.90 C 331.67 152.66 330.36 156.84 327.87 159.98 C 328.19 155.70 329.92 151.94 332.94 148.90 Z" fill="#fbaa78" />
<path d="M 327.87 159.98 C 328.06 165.08 328.15 170.16 327.68 175.24 C 326.52 171.00 327.11 166.26 326.86 161.88 C 327.18 161.24 327.52 160.61 327.87 159.98 Z" fill="#fece93" />
<path d="M 326.86 161.88 C 327.11 166.26 326.52 171.00 327.68 175.24 C 328.41 178.27 329.69 181.02 330.72 183.93 C 327.39 184.22 324.67 184.27 321.87 182.22 L 322.94 182.19 C 324.72 182.03 328.91 184.46 327.93 181.03 C 325.34 175.55 325.21 167.57 326.86 161.88 Z" fill="#ed864b" />
<path d="M 368.07 168.05 C 363.98 173.82 353.96 180.85 346.97 182.05 C 348.51 180.96 350.09 179.95 351.69 178.95 C 358.02 176.29 362.31 171.33 368.07 168.05 Z" fill="#f8cf77" />
<path d="M 304.14 170.89 C 307.94 173.17 311.95 176.05 315.12 179.14 C 310.62 177.62 306.59 175.07 304.14 170.89 Z" fill="#f9d57f" />
<path d="M 315.12 179.14 L 315.77 178.79 C 317.85 178.82 318.69 179.38 319.78 181.09 C 317.60 181.13 316.52 180.89 315.12 179.14 Z" fill="#f9c47b" />
<path d="M 214.67 185.35 C 222.03 187.46 225.76 192.99 228.14 199.90 C 228.00 204.55 227.92 209.20 228.05 213.84 C 223.90 212.32 222.08 211.25 218.09 213.96 C 217.92 212.55 217.76 211.13 217.61 209.72 L 217.73 207.97 C 218.24 205.49 218.78 203.28 217.36 200.98 C 215.79 197.91 212.63 193.23 208.62 195.61 C 205.90 196.76 204.67 199.14 203.73 201.78 C 202.41 205.50 203.17 209.98 202.95 213.89 C 197.56 213.52 194.45 216.71 189.91 218.70 C 186.99 218.32 184.89 218.05 182.16 219.44 C 183.82 220.39 185.80 220.24 185.94 222.57 C 180.99 222.09 185.52 224.52 180.93 225.94 C 180.21 226.21 179.49 226.48 178.78 226.75 C 168.02 228.89 159.33 233.25 156.68 244.75 C 155.59 248.22 156.05 252.35 156.02 255.98 L 155.72 257.67 L 155.19 258.32 C 151.91 262.90 153.47 259.28 152.78 256.07 C 148.87 258.86 146.49 263.37 142.08 266.09 C 142.03 263.63 141.88 261.18 141.76 258.72 L 142.25 256.97 C 143.71 254.65 143.31 252.48 142.75 249.96 L 143.09 249.16 C 144.51 247.84 144.37 246.63 143.77 244.92 C 146.32 237.03 150.09 229.89 156.98 224.98 C 167.84 217.21 179.78 216.81 192.41 215.32 C 195.76 213.03 193.31 201.95 193.78 197.81 C 195.88 188.06 205.33 183.45 214.67 185.35 Z" fill="#0b271d" />
<path d="M 448.14 185.20 C 457.22 183.40 465.16 190.31 467.34 198.75 C 467.23 203.93 466.07 210.30 467.78 215.22 C 471.73 216.86 477.02 215.77 481.23 215.72 C 488.35 215.78 495.12 217.05 501.34 220.66 C 511.37 225.61 516.64 237.22 518.34 247.75 C 518.27 256.73 516.86 267.41 519.00 276.00 C 519.05 280.00 518.96 284.00 519.03 288.00 C 519.20 293.31 518.35 299.09 519.72 304.23 C 519.94 306.74 520.06 309.26 520.28 311.77 C 520.08 314.51 519.96 317.25 520.02 320.00 C 520.30 324.86 519.14 330.51 520.87 335.11 L 521.13 335.89 C 521.04 339.93 520.94 343.96 521.02 348.00 C 521.13 368.06 520.69 388.18 521.25 408.23 C 520.89 412.41 521.11 416.59 520.75 420.77 C 519.06 431.53 520.43 443.06 520.03 454.00 C 519.91 461.64 520.15 469.29 519.87 476.92 C 517.94 484.12 519.47 492.51 519.02 500.00 C 518.98 519.67 518.99 539.33 519.02 559.00 C 518.95 563.41 518.94 567.82 519.27 572.23 C 519.04 574.79 518.95 577.36 518.87 579.93 C 517.44 581.22 517.62 582.43 518.25 584.10 C 516.48 598.72 506.36 612.86 492.11 617.33 C 490.48 616.65 489.05 616.35 487.98 618.07 C 486.59 617.77 485.28 617.79 484.04 618.13 C 470.09 618.29 455.57 617.16 441.78 618.70 C 438.52 619.04 435.27 619.03 432.00 619.04 C 427.40 619.17 422.22 618.34 417.82 619.77 L 416.19 620.23 C 409.86 620.08 403.24 619.45 396.99 620.56 C 395.35 620.76 393.72 620.97 392.09 621.24 C 373.35 620.57 354.54 621.41 335.79 620.80 C 342.19 617.86 351.88 620.19 358.03 615.03 C 361.84 612.00 362.62 604.92 367.69 604.60 C 367.17 603.71 366.57 602.85 365.98 602.01 C 368.68 601.98 371.37 602.05 374.06 602.28 C 376.07 603.28 377.75 603.27 379.92 602.86 C 387.29 603.15 394.63 602.92 402.00 603.00 C 404.60 604.45 407.15 603.97 410.00 604.03 C 421.69 603.86 433.40 604.22 445.09 603.84 C 447.51 604.24 449.66 604.32 451.94 603.30 C 456.13 602.54 461.20 603.93 465.00 602.00 C 468.71 601.84 472.83 602.64 476.19 601.06 C 478.67 601.22 480.80 601.70 482.97 600.09 C 484.84 600.37 486.39 600.34 488.08 599.38 C 498.99 596.27 506.77 589.07 507.35 577.24 C 508.32 571.82 508.52 565.18 507.26 559.81 C 506.79 554.52 507.14 549.22 506.83 543.91 C 507.20 541.53 507.42 539.36 506.26 537.14 C 505.88 532.42 505.99 527.73 506.01 523.00 C 506.10 519.87 506.15 516.81 505.29 513.77 C 504.66 506.55 505.17 499.24 504.97 492.00 C 505.02 480.00 505.02 468.00 504.98 456.00 C 505.05 444.33 504.97 432.67 505.00 421.00 C 507.03 416.64 505.62 410.75 505.97 406.00 C 506.14 399.42 505.72 392.79 506.25 386.23 C 507.76 380.42 506.72 373.98 506.97 368.00 C 507.02 362.66 507.02 357.32 506.98 351.99 C 507.02 346.99 507.02 341.99 506.97 337.00 C 507.18 327.42 506.68 317.79 507.25 308.23 C 508.68 303.10 507.80 297.30 507.94 292.00 C 507.67 279.36 508.80 266.29 507.35 253.77 C 507.19 249.50 505.70 245.87 504.04 242.02 C 504.05 240.19 503.76 239.65 502.10 238.88 C 498.13 233.96 494.61 230.73 488.11 229.73 C 486.70 228.55 485.61 228.62 483.93 229.13 C 481.63 229.04 479.33 228.94 477.04 228.82 C 475.44 227.45 473.88 227.64 471.96 228.09 C 469.17 228.56 466.52 226.54 467.18 230.75 C 466.95 233.97 466.78 237.09 467.68 240.24 C 467.90 241.75 468.11 243.26 468.33 244.77 C 467.82 249.94 467.87 255.07 468.32 260.25 C 466.19 268.20 462.29 272.95 454.21 275.25 C 451.03 275.01 447.96 275.01 444.78 275.24 C 438.08 272.67 434.88 269.02 432.71 262.23 C 433.10 257.51 433.08 252.78 432.89 248.05 C 432.99 245.03 432.96 242.02 433.00 239.00 C 434.32 236.73 434.90 228.39 432.94 227.16 C 432.05 226.96 431.15 226.78 430.25 226.62 C 423.02 225.30 415.34 226.28 408.00 226.03 C 403.58 226.08 398.95 225.49 394.77 226.75 C 390.59 227.10 386.41 226.90 382.23 227.24 C 378.99 226.98 375.91 226.69 372.77 227.76 C 368.59 228.10 364.41 227.90 360.23 228.25 C 356.16 227.97 352.08 227.94 348.00 228.02 C 341.33 227.99 334.67 227.98 328.00 228.03 C 322.58 227.99 317.18 227.87 311.77 228.25 C 307.93 227.94 304.07 228.06 300.23 227.75 C 296.46 226.62 292.87 226.99 289.00 227.02 C 284.07 226.96 279.09 227.18 274.23 226.75 C 270.85 225.72 267.53 225.99 264.05 225.95 C 260.95 220.42 255.75 215.89 248.97 216.90 C 245.89 217.41 253.25 214.44 250.03 215.03 C 242.62 215.70 236.08 217.18 228.85 214.13 C 256.46 213.99 284.17 213.75 311.77 214.25 C 319.23 215.87 327.37 214.63 335.00 214.98 C 344.33 215.02 353.67 215.02 363.00 214.97 C 368.42 215.01 373.82 215.13 379.23 214.75 C 384.75 215.28 390.25 214.72 395.77 215.25 C 402.90 216.87 410.70 215.61 418.00 216.00 C 422.51 215.65 428.02 216.89 432.22 215.21 C 433.88 210.97 432.76 205.36 432.76 200.85 C 434.71 200.13 434.36 198.60 433.84 196.98 C 436.81 190.79 440.85 185.88 448.14 185.20 Z" fill="#06251d" />
<path d="M 217.36 200.98 C 216.67 203.51 216.30 205.61 217.73 207.97 L 217.61 209.72 C 217.32 211.42 217.09 213.13 216.96 214.85 C 214.21 213.44 207.65 213.80 207.34 217.74 C 210.16 221.03 212.07 223.58 216.88 223.11 C 216.99 225.15 217.24 227.12 217.62 229.12 L 217.61 229.88 C 216.39 238.72 217.04 248.16 217.27 257.10 C 216.78 258.24 216.72 259.51 217.08 260.91 C 215.67 262.74 214.24 264.32 212.15 265.38 C 210.75 264.79 209.34 264.74 207.92 265.23 C 205.92 263.50 204.06 262.06 203.65 259.26 C 204.28 240.20 204.13 220.86 203.73 201.78 C 204.67 199.14 205.90 196.76 208.62 195.61 C 212.63 193.23 215.79 197.91 217.36 200.98 Z" fill="#fafcf0" />
<path d="M 449.11 195.01 C 452.73 195.03 456.38 197.03 457.26 200.78 C 457.15 211.09 456.21 222.07 457.73 232.23 C 458.14 236.40 458.15 240.61 457.71 244.78 C 456.39 249.62 457.07 255.24 457.27 260.23 C 456.64 262.30 454.64 263.82 453.08 265.23 C 451.67 264.74 450.26 264.79 448.86 265.38 C 446.60 264.09 444.55 262.85 443.73 260.22 C 444.00 256.32 444.42 252.59 443.31 248.77 C 442.77 237.10 442.86 224.86 443.26 213.18 C 444.53 209.01 443.92 205.16 443.83 200.88 C 445.00 198.74 446.75 195.92 449.11 195.01 Z" fill="#fafcfc" />
<path d="M 433.84 196.98 C 434.36 198.60 434.71 200.13 432.76 200.85 C 432.61 199.25 432.70 198.20 433.84 196.98 Z" fill="#98aaa8" />
<path d="M 193.78 197.81 C 193.31 201.95 195.76 213.03 192.41 215.32 C 193.85 209.58 191.97 203.33 193.78 197.81 Z" fill="#4d625e" />
<path d="M 467.34 198.75 C 468.65 203.99 467.88 209.85 467.78 215.22 C 466.07 210.30 467.23 203.93 467.34 198.75 Z" fill="#445853" />
<path d="M 228.14 199.90 C 229.85 204.16 228.76 209.61 228.85 214.13 L 228.05 213.84 C 227.92 209.20 228.00 204.55 228.14 199.90 Z" fill="#a3b2aa" />
<path d="M 217.36 200.98 C 218.78 203.28 218.24 205.49 217.73 207.97 C 216.30 205.61 216.67 203.51 217.36 200.98 Z" fill="#b0bbb8" />
<path d="M 432.76 200.85 C 432.76 205.36 433.88 210.97 432.22 215.21 C 432.09 210.59 431.36 205.30 432.76 200.85 Z" fill="#b5c7c6" />
<path d="M 443.83 200.88 C 443.92 205.16 444.53 209.01 443.26 213.18 L 442.74 210.81 C 443.17 207.64 442.44 203.78 443.83 200.88 Z" fill="#94a3a2" />
<path d="M 457.26 200.78 C 457.65 201.77 458.00 202.76 458.29 203.76 C 457.74 211.47 458.08 219.26 458.03 226.99 C 457.95 228.74 457.83 230.48 457.73 232.23 C 456.21 222.07 457.15 211.09 457.26 200.78 Z" fill="#ccd7d4" />
<path d="M 203.73 201.78 C 204.13 220.86 204.28 240.20 203.65 259.26 C 202.10 244.45 203.49 228.86 202.95 213.89 C 203.17 209.98 202.41 205.50 203.73 201.78 Z" fill="#9fb195" />
<path d="M 458.29 203.76 C 459.87 211.18 458.62 219.39 458.98 227.00 L 458.03 226.99 C 458.08 219.26 457.74 211.47 458.29 203.76 Z" fill="#374642" />
<path d="M 217.61 209.72 C 217.76 211.13 217.92 212.55 218.09 213.96 L 218.28 215.75 C 217.96 220.21 218.10 224.67 217.62 229.12 C 217.24 227.12 216.99 225.15 216.88 223.11 C 216.98 220.36 217.00 217.61 216.96 214.85 C 217.09 213.13 217.32 211.42 217.61 209.72 Z" fill="#afc996" />
<path d="M 442.74 210.81 L 443.26 213.18 C 442.86 224.86 442.77 237.10 443.31 248.77 C 443.09 250.26 442.86 251.75 442.63 253.23 C 441.29 246.00 442.31 238.35 442.00 231.00 C 442.36 224.37 441.18 217.27 442.74 210.81 Z" fill="#3a4e4a" />
<path d="M 228.05 213.84 L 228.85 214.13 C 236.08 217.18 242.62 215.70 250.03 215.03 C 253.25 214.44 245.89 217.41 248.97 216.90 C 255.75 215.89 260.95 220.42 264.05 225.95 C 252.34 226.58 239.11 224.92 227.76 226.78 C 226.44 230.11 226.56 236.75 227.86 240.10 L 228.13 240.89 C 228.07 244.81 227.53 248.41 228.76 252.23 C 228.83 253.81 228.86 255.39 228.85 256.97 C 227.63 258.33 227.62 259.27 228.26 260.95 C 226.28 266.32 223.54 270.90 218.53 273.93 C 217.68 274.25 216.84 274.59 216.01 274.94 L 214.27 275.32 C 211.38 275.04 208.63 275.01 205.75 275.29 C 199.41 273.60 194.70 269.58 192.75 263.21 C 193.15 256.40 193.10 249.63 192.79 242.82 L 193.23 241.18 C 194.32 237.03 194.66 230.83 193.22 226.78 C 189.60 225.27 184.83 226.19 180.93 225.94 C 185.52 224.52 180.99 222.09 185.94 222.57 C 185.80 220.24 183.82 220.39 182.16 219.44 C 184.89 218.05 186.99 218.32 189.91 218.70 C 194.45 216.71 197.56 213.52 202.95 213.89 C 203.49 228.86 202.10 244.45 203.65 259.26 C 204.06 262.06 205.92 263.50 207.92 265.23 C 209.30 266.72 210.62 266.57 212.15 265.38 C 214.24 264.32 215.67 262.74 217.08 260.91 C 218.29 259.74 218.43 258.83 218.14 257.21 C 219.68 244.12 219.37 228.94 218.28 215.75 L 218.09 213.96 C 222.08 211.25 223.90 212.32 228.05 213.84 Z" fill="#0b3106" />
<path d="M 216.96 214.85 C 217.00 217.61 216.98 220.36 216.88 223.11 C 212.07 223.58 210.16 221.03 207.34 217.74 C 207.65 213.80 214.21 213.44 216.96 214.85 Z" fill="#e4fb98" />
<path d="M 311.77 214.25 C 319.49 213.77 327.26 214.06 335.00 214.02 L 335.00 214.98 C 327.37 214.63 319.23 215.87 311.77 214.25 Z" fill="#82908e" />
<path d="M 335.00 214.02 C 344.33 213.98 353.67 213.98 363.00 214.03 L 363.00 214.97 C 353.67 215.02 344.33 215.02 335.00 214.98 L 335.00 214.02 Z" fill="#455853" />
<path d="M 363.00 214.03 C 368.30 214.21 374.10 213.31 379.23 214.75 C 373.82 215.13 368.42 215.01 363.00 214.97 L 363.00 214.03 Z" fill="#a0adab" />
<path d="M 395.77 215.25 C 407.82 214.82 420.17 214.88 432.22 215.21 C 428.02 216.89 422.51 215.65 418.00 216.00 C 410.70 215.61 402.90 216.87 395.77 215.25 Z" fill="#677c78" />
<path d="M 467.78 215.22 C 472.39 215.03 476.75 214.47 481.23 215.72 C 477.02 215.77 471.73 216.86 467.78 215.22 Z" fill="#c3d2cf" />
<path d="M 218.28 215.75 C 219.37 228.94 219.68 244.12 218.14 257.21 C 217.66 248.12 218.49 238.94 217.61 229.88 L 217.62 229.12 C 218.10 224.67 217.96 220.21 218.28 215.75 Z" fill="#425b2b" />
<path d="M 180.93 225.94 C 184.83 226.19 189.60 225.27 193.22 226.78 C 188.39 227.12 183.60 227.08 178.78 226.75 C 179.49 226.48 180.21 226.21 180.93 225.94 Z" fill="#556b54" />
<path d="M 264.05 225.95 C 267.53 225.99 270.85 225.72 274.23 226.75 C 258.91 227.18 243.09 227.13 227.76 226.78 C 239.11 224.92 252.34 226.58 264.05 225.95 Z" fill="#6c7f65" />
<path d="M 408.00 226.03 L 408.00 226.98 C 403.59 227.05 399.18 227.06 394.77 226.75 C 398.95 225.49 403.58 226.08 408.00 226.03 Z" fill="#4e6260" />
<path d="M 408.00 226.03 C 415.34 226.28 423.02 225.30 430.25 226.62 C 422.88 227.35 415.40 226.89 408.00 226.98 L 408.00 226.03 Z" fill="#90a4a3" />
<path d="M 178.78 226.75 C 183.60 227.08 188.39 227.12 193.22 226.78 C 192.87 231.59 192.94 236.38 193.23 241.18 L 192.79 242.82 C 192.07 245.10 191.90 247.42 191.68 249.78 C 190.97 252.14 191.48 255.72 189.90 257.58 C 183.65 255.73 177.96 257.25 171.83 258.70 C 166.36 260.20 161.51 258.75 157.11 262.81 C 156.98 260.54 156.98 258.26 156.96 255.99 C 157.09 252.21 157.01 248.51 156.68 244.75 C 159.33 233.25 168.02 228.89 178.78 226.75 Z" fill="#fcfdfa" />
<path d="M 193.22 226.78 C 194.66 230.83 194.32 237.03 193.23 241.18 C 192.94 236.38 192.87 231.59 193.22 226.78 Z" fill="#546f50" />
<path d="M 227.76 226.78 C 227.90 228.56 228.04 230.35 228.12 232.14 C 228.02 234.79 227.91 237.45 227.86 240.10 C 226.56 236.75 226.44 230.11 227.76 226.78 Z" fill="#859a78" />
<path d="M 227.76 226.78 C 243.09 227.13 258.91 227.18 274.23 226.75 C 279.09 227.18 284.07 226.96 289.00 227.02 L 289.00 227.98 C 269.47 228.57 249.56 226.73 230.18 229.25 C 228.97 229.10 228.68 231.33 228.12 232.14 C 228.04 230.35 227.90 228.56 227.76 226.78 Z" fill="#ebf6e4" />
<path d="M 289.00 227.02 C 292.87 226.99 296.46 226.62 300.23 227.75 C 296.48 228.00 292.75 228.06 289.00 227.98 L 289.00 227.02 Z" fill="#7f8e8b" />
<path d="M 382.23 227.24 C 379.09 228.31 376.01 228.02 372.77 227.76 C 375.91 226.69 378.99 226.98 382.23 227.24 Z" fill="#879595" />
<path d="M 382.23 227.24 C 386.41 226.90 390.59 227.10 394.77 226.75 C 399.18 227.06 403.59 227.05 408.00 226.98 C 415.40 226.89 422.88 227.35 430.25 226.62 C 431.15 226.78 432.05 226.96 432.94 227.16 C 433.01 231.11 433.05 235.05 433.00 239.00 C 431.53 241.76 432.06 244.58 431.82 247.70 C 430.69 251.52 430.35 256.40 431.82 260.15 C 432.11 260.85 432.41 261.54 432.71 262.23 C 434.88 269.02 438.08 272.67 444.78 275.24 C 447.72 276.46 451.25 276.33 454.21 275.25 C 462.29 272.95 466.19 268.20 468.32 260.25 C 469.48 255.41 469.34 249.62 468.33 244.77 C 468.11 243.26 467.90 241.75 467.68 240.24 C 468.01 236.97 468.40 233.90 467.18 230.75 C 466.52 226.54 469.17 228.56 471.96 228.09 C 473.52 229.63 475.09 229.36 477.04 228.82 C 479.33 228.94 481.63 229.04 483.93 229.13 C 485.22 230.57 486.44 230.37 488.11 229.73 C 494.61 230.73 498.13 233.96 502.10 238.88 C 501.85 240.74 502.20 241.48 504.04 242.02 C 505.70 245.87 507.19 249.50 507.35 253.77 C 506.53 266.43 507.28 279.20 506.95 291.89 L 506.74 292.79 C 505.04 307.16 506.45 322.43 506.03 337.00 C 505.97 342.01 506.00 347.02 506.04 352.03 C 505.95 353.28 505.84 354.52 505.72 355.77 C 504.07 372.18 505.43 389.41 505.02 406.00 C 504.95 411.00 505.06 416.00 505.00 421.00 C 502.70 431.80 504.62 444.75 504.03 456.00 C 503.98 468.00 503.98 480.00 504.03 492.00 C 504.35 500.31 503.18 509.07 504.70 517.23 C 504.87 519.15 504.99 521.07 505.06 523.00 C 505.11 528.25 504.52 533.88 505.56 539.01 C 505.76 540.65 505.97 542.28 506.24 543.91 C 506.13 549.87 505.27 556.36 506.74 562.18 C 507.19 567.20 506.79 572.22 507.35 577.24 C 506.77 589.07 498.99 596.27 488.08 599.38 C 486.08 598.64 484.46 598.21 482.97 600.09 C 480.47 599.85 478.16 599.00 476.19 601.06 C 472.65 601.21 468.16 600.23 465.00 602.00 C 459.34 602.26 453.33 601.41 447.78 602.56 C 446.87 602.75 445.97 602.97 445.08 603.21 C 430.74 602.72 416.35 603.14 402.00 603.00 C 395.42 600.84 386.90 602.36 379.93 602.23 C 379.01 602.00 378.09 601.77 377.16 601.55 C 376.19 601.27 375.21 600.99 374.24 600.73 C 362.63 599.59 350.68 597.92 339.03 597.89 C 335.41 596.41 331.48 595.66 327.95 594.10 C 333.44 594.68 338.34 594.44 343.82 593.74 C 345.17 589.82 334.73 594.29 336.08 589.99 C 335.98 588.07 335.98 586.12 335.77 584.23 C 333.29 583.95 330.70 584.05 328.20 583.77 C 327.83 578.92 327.83 573.08 328.20 568.22 C 330.70 567.95 333.28 568.05 335.77 567.77 C 336.05 565.28 335.95 562.70 336.23 560.20 C 341.36 559.62 346.67 560.37 351.80 559.80 C 352.37 554.67 351.62 549.36 352.20 544.23 C 354.69 543.95 357.24 544.06 359.71 543.76 C 359.97 541.94 360.03 540.10 360.29 538.28 C 363.65 537.63 366.44 538.92 368.62 535.64 C 370.26 532.39 376.06 535.71 376.00 532.00 C 375.46 528.32 382.52 531.30 382.72 529.20 C 378.24 528.77 373.75 528.33 369.31 527.64 C 365.21 525.44 372.36 523.47 373.51 521.52 C 379.07 517.76 378.89 511.79 385.73 510.70 C 386.49 495.94 385.59 480.95 386.15 466.16 C 386.83 463.65 396.51 464.99 395.99 461.13 C 391.80 456.71 388.54 452.26 382.39 450.60 C 379.53 446.44 377.53 448.42 374.51 445.94 C 375.01 444.59 375.51 443.25 376.04 441.92 C 378.01 440.39 378.23 439.53 377.95 437.07 C 385.10 420.88 391.50 404.33 398.32 388.00 C 399.57 385.60 399.80 383.39 398.23 381.06 C 395.57 375.41 390.42 369.43 384.26 367.67 C 378.41 366.78 369.56 366.14 364.00 368.00 C 359.24 368.45 353.36 366.94 349.00 369.00 C 328.74 368.92 308.45 369.19 288.19 368.85 C 287.37 368.50 286.55 368.16 285.73 367.81 C 286.65 364.91 289.40 368.04 290.34 365.36 C 292.25 360.81 298.17 353.25 290.97 350.83 C 293.18 343.88 304.38 346.48 310.00 345.97 C 323.68 346.00 337.38 346.06 351.06 345.94 C 381.04 346.05 411.02 346.03 441.00 345.95 C 445.91 346.06 450.82 345.86 455.70 346.17 C 460.66 347.45 470.27 347.56 475.17 346.21 C 475.87 345.93 476.56 345.61 477.23 345.27 C 479.03 344.42 480.64 343.27 482.16 342.00 C 483.84 340.78 483.62 338.34 482.23 336.98 C 480.40 334.43 478.27 333.33 475.25 332.66 C 453.31 331.14 430.17 332.39 408.02 332.03 C 386.68 331.97 365.33 331.99 343.98 332.02 C 332.74 331.81 321.45 332.34 310.23 331.75 C 305.42 329.90 299.38 332.30 295.02 330.00 C 290.43 324.61 288.59 319.18 280.34 319.57 C 273.56 315.44 266.26 313.86 258.98 311.00 C 250.27 303.60 250.50 294.32 244.33 285.82 C 242.75 280.53 239.19 271.92 232.91 271.08 C 230.22 270.44 229.17 265.59 229.47 263.13 C 230.22 261.29 231.57 261.22 229.46 259.73 C 229.29 258.81 229.09 257.88 228.85 256.97 C 228.86 255.39 228.83 253.81 228.76 252.23 C 228.88 248.61 229.67 244.25 228.13 240.89 L 227.86 240.10 C 227.91 237.45 228.02 234.79 228.12 232.14 C 228.68 231.33 228.97 229.10 230.18 229.25 C 249.56 226.73 269.47 228.57 289.00 227.98 C 292.75 228.06 296.48 228.00 300.23 227.75 C 304.07 228.06 307.93 227.94 311.77 228.25 C 316.90 229.68 322.70 228.79 328.00 228.97 C 334.66 229.02 341.33 229.01 348.00 228.97 C 352.26 228.96 356.12 229.47 360.23 228.25 C 364.41 227.90 368.59 228.10 372.77 227.76 C 376.01 228.02 379.09 228.31 382.23 227.24 Z" fill="#fefffe" />
<path d="M 432.94 227.16 C 434.90 228.39 434.32 236.73 433.00 239.00 C 433.05 235.05 433.01 231.11 432.94 227.16 Z" fill="#778a8b" />
<path d="M 458.03 226.99 L 458.98 227.00 C 458.66 235.32 459.80 244.04 458.32 252.22 C 458.11 249.74 457.89 247.26 457.71 244.78 C 458.15 240.61 458.14 236.40 457.73 232.23 C 457.83 230.48 457.95 228.74 458.03 226.99 Z" fill="#758383" />
<path d="M 311.77 228.25 C 317.18 227.87 322.58 227.99 328.00 228.03 L 328.00 228.97 C 322.70 228.79 316.90 229.68 311.77 228.25 Z" fill="#a7b9b6" />
<path d="M 328.00 228.03 C 334.67 227.98 341.33 227.99 348.00 228.02 L 348.00 228.97 C 341.33 229.01 334.66 229.02 328.00 228.97 L 328.00 228.03 Z" fill="#516261" />
<path d="M 348.00 228.02 C 352.08 227.94 356.16 227.97 360.23 228.25 C 356.12 229.47 352.26 228.96 348.00 228.97 L 348.00 228.02 Z" fill="#adbfbd" />
<path d="M 471.96 228.09 C 473.88 227.64 475.44 227.45 477.04 228.82 C 475.09 229.36 473.52 229.63 471.96 228.09 Z" fill="#a8bdba" />
<path d="M 483.93 229.13 C 485.61 228.62 486.70 228.55 488.11 229.73 C 486.44 230.37 485.22 230.57 483.93 229.13 Z" fill="#869796" />
<path d="M 217.61 229.88 C 218.49 238.94 217.66 248.12 218.14 257.21 L 217.27 257.10 C 217.04 248.16 216.39 238.72 217.61 229.88 Z" fill="#d2e2be" />
<path d="M 467.18 230.75 C 468.40 233.90 468.01 236.97 467.68 240.24 C 466.78 237.09 466.95 233.97 467.18 230.75 Z" fill="#808e8a" />
<path d="M 433.00 239.00 C 432.96 242.02 432.99 245.03 432.89 248.05 L 431.82 247.70 C 432.06 244.58 431.53 241.76 433.00 239.00 Z" fill="#a2b2b2" />
<path d="M 502.10 238.88 C 503.76 239.65 504.05 240.19 504.04 242.02 C 502.20 241.48 501.85 240.74 502.10 238.88 Z" fill="#a6b8b5" />
<path d="M 228.13 240.89 C 229.67 244.25 228.88 248.61 228.76 252.23 C 227.53 248.41 228.07 244.81 228.13 240.89 Z" fill="#8c9a82" />
<path d="M 192.79 242.82 C 193.10 249.63 193.15 256.40 192.75 263.21 C 191.32 259.03 192.34 254.16 191.68 249.78 C 191.90 247.42 192.07 245.10 192.79 242.82 Z" fill="#5f754a" />
<path d="M 143.77 244.92 C 144.37 246.63 144.51 247.84 143.09 249.16 C 142.63 247.47 142.56 246.30 143.77 244.92 Z" fill="#687470" />
<path d="M 156.68 244.75 C 157.01 248.51 157.09 252.21 156.96 255.99 L 156.02 255.98 C 156.05 252.35 155.59 248.22 156.68 244.75 Z" fill="#b4c2b7" />
<path d="M 457.71 244.78 C 457.89 247.26 458.11 249.74 458.32 252.22 C 458.03 254.83 458.18 257.76 457.27 260.23 C 457.07 255.24 456.39 249.62 457.71 244.78 Z" fill="#c8d2d1" />
<path d="M 468.33 244.77 C 469.34 249.62 469.48 255.41 468.32 260.25 C 467.87 255.07 467.82 249.94 468.33 244.77 Z" fill="#4e5c58" />
<path d="M 431.82 247.70 C 432.10 251.86 432.01 256.00 431.82 260.15 C 430.35 256.40 430.69 251.52 431.82 247.70 Z" fill="#cbd3d2" />
<path d="M 431.82 247.70 L 432.89 248.05 C 433.08 252.78 433.10 257.51 432.71 262.23 C 432.41 261.54 432.11 260.85 431.82 260.15 C 432.01 256.00 432.10 251.86 431.82 247.70 Z" fill="#475d5b" />
<path d="M 518.34 247.75 C 519.83 256.94 518.59 266.68 519.00 276.00 C 516.86 267.41 518.27 256.73 518.34 247.75 Z" fill="#3d4d4a" />
<path d="M 443.31 248.77 C 444.42 252.59 444.00 256.32 443.73 260.22 C 442.95 258.06 442.91 255.52 442.63 253.23 C 442.86 251.75 443.09 250.26 443.31 248.77 Z" fill="#849693" />
<path d="M 142.75 249.96 C 143.31 252.48 143.71 254.65 142.25 256.97 C 141.70 254.45 141.28 252.27 142.75 249.96 Z" fill="#5d726b" />
<path d="M 191.68 249.78 C 192.34 254.16 191.32 259.03 192.75 263.21 C 194.70 269.58 199.41 273.60 205.75 275.29 L 206.32 275.91 C 210.05 279.15 203.20 278.37 201.28 279.09 C 203.89 275.88 201.78 277.59 199.35 277.31 C 197.21 275.19 196.67 272.40 193.28 272.20 C 192.35 270.29 192.60 268.65 190.34 267.70 C 186.37 266.17 189.46 261.26 184.91 260.12 C 177.47 259.63 168.63 261.26 161.51 263.51 C 159.44 265.23 157.52 273.56 156.12 266.83 C 156.05 263.78 155.96 260.72 155.72 257.67 L 156.02 255.98 L 156.96 255.99 C 156.98 258.26 156.98 260.54 157.11 262.81 C 161.51 258.75 166.36 260.20 171.83 258.70 C 177.96 257.25 183.65 255.73 189.90 257.58 C 191.48 255.72 190.97 252.14 191.68 249.78 Z" fill="#f7facf" />
<path d="M 507.35 253.77 C 508.80 266.29 507.67 279.36 507.94 292.00 L 506.95 291.89 C 507.28 279.20 506.53 266.43 507.35 253.77 Z" fill="#b7c5c5" />
<path d="M 152.78 256.07 C 153.47 259.28 151.91 262.90 155.19 258.32 C 154.78 264.52 155.07 270.78 155.02 277.00 C 154.88 283.24 155.26 289.55 154.75 295.77 C 153.43 300.18 154.08 305.35 154.11 309.95 C 153.88 334.62 154.02 359.30 154.04 383.98 C 154.21 389.29 153.31 395.10 154.75 400.23 C 155.16 428.03 155.17 455.97 154.75 483.77 C 153.19 490.23 154.31 497.34 154.03 503.97 C 153.92 518.95 154.09 533.94 153.95 548.92 C 151.87 551.16 153.64 554.05 151.55 555.87 C 150.57 553.47 150.95 552.95 148.08 553.10 C 148.12 555.01 149.20 556.28 149.91 557.96 C 145.09 558.02 142.90 548.74 145.15 545.30 C 144.68 537.66 143.44 531.24 144.16 524.00 C 142.97 517.57 142.83 512.97 144.26 506.54 C 147.19 506.65 147.36 507.22 145.09 504.95 C 140.92 502.73 149.06 497.19 143.66 498.44 C 141.12 497.69 145.83 493.96 146.89 493.03 C 143.86 489.74 142.95 490.81 146.46 487.29 C 143.18 484.17 137.86 475.02 145.80 474.58 C 146.06 471.23 141.25 470.97 141.99 468.04 C 143.10 459.37 143.72 450.69 144.75 442.02 C 142.61 437.12 145.22 431.26 144.42 425.88 C 142.28 426.12 143.86 430.80 141.73 429.18 C 142.13 424.44 142.02 419.75 141.99 415.00 C 142.04 412.25 141.91 409.51 141.70 406.77 C 141.91 404.92 142.09 403.08 142.31 401.23 C 143.58 396.48 142.79 391.24 143.05 386.21 L 143.26 385.27 C 144.58 380.82 143.87 375.64 143.97 371.00 C 144.02 362.00 144.02 353.00 143.97 344.00 C 143.77 338.00 144.67 331.62 143.33 325.76 C 143.11 324.59 142.89 323.41 142.67 322.24 C 142.95 314.90 143.68 307.00 142.31 299.77 L 142.00 297.99 C 142.03 287.36 141.91 276.72 142.08 266.09 C 146.49 263.37 148.87 258.86 152.78 256.07 Z" fill="#0d3701" />
<path d="M 217.27 257.10 L 218.14 257.21 C 218.43 258.83 218.29 259.74 217.08 260.91 C 216.72 259.51 216.78 258.24 217.27 257.10 Z" fill="#738460" />
<path d="M 228.85 256.97 C 229.09 257.88 229.29 258.81 229.46 259.73 L 228.26 260.95 C 227.62 259.27 227.63 258.33 228.85 256.97 Z" fill="#7f9277" />
<path d="M 155.19 258.32 L 155.72 257.67 C 155.96 260.72 156.05 263.78 156.12 266.83 C 156.05 270.22 155.99 273.61 155.97 277.00 L 155.02 277.00 C 155.07 270.78 154.78 264.52 155.19 258.32 Z" fill="#809263" />
<path d="M 141.76 258.72 C 141.88 261.18 142.03 263.63 142.08 266.09 C 141.91 276.72 142.03 287.36 142.00 297.99 L 141.05 298.00 C 140.91 289.28 141.13 280.57 140.88 271.86 C 140.89 270.52 140.89 269.19 140.88 267.85 L 140.88 265.88 C 140.96 263.44 140.98 261.07 141.76 258.72 Z" fill="#6b8350" />
<path d="M 184.91 260.12 C 189.46 261.26 186.37 266.17 190.34 267.70 C 192.60 268.65 192.35 270.29 193.28 272.20 C 196.67 272.40 197.21 275.19 199.35 277.31 C 201.78 277.59 203.89 275.88 201.28 279.09 C 203.20 278.37 210.05 279.15 206.32 275.91 C 209.02 276.13 211.65 276.07 214.27 275.32 L 216.01 274.94 C 214.88 276.14 213.64 276.91 212.19 277.66 C 215.83 279.18 220.02 278.95 223.66 280.28 C 226.61 280.99 223.00 288.09 225.72 287.62 C 231.03 286.13 223.49 283.15 227.11 280.34 C 228.83 280.77 231.89 280.62 232.40 282.65 C 234.47 286.49 228.70 288.25 229.95 292.99 C 228.55 300.82 232.99 305.48 231.98 313.00 C 232.25 316.55 230.73 320.49 236.00 320.07 C 240.53 320.57 239.51 316.97 241.09 314.05 C 243.10 316.19 244.55 320.08 247.90 320.01 C 250.29 318.66 251.34 314.71 254.85 315.25 C 259.82 316.62 265.24 316.58 268.76 320.32 C 269.81 324.47 266.53 328.58 262.14 328.32 C 256.74 329.52 256.50 323.97 250.99 324.95 C 238.69 322.13 225.60 324.99 212.74 324.44 C 208.90 323.99 206.92 327.49 203.03 327.02 C 196.36 326.75 189.90 327.15 183.65 329.65 C 181.52 330.38 180.07 331.72 177.72 330.98 C 181.20 327.06 185.50 325.55 186.85 320.08 C 188.95 321.21 190.16 324.34 191.95 320.90 C 194.98 318.50 191.17 315.34 190.49 312.47 C 187.90 311.41 185.51 313.07 186.10 309.13 C 188.76 308.63 192.36 310.20 194.64 308.68 C 197.07 306.56 198.20 304.20 201.64 303.48 C 201.49 298.23 204.90 288.28 197.41 287.52 C 196.56 285.00 197.31 274.19 192.37 278.58 C 191.99 273.72 191.71 270.10 186.38 268.57 C 182.43 266.84 183.72 261.11 179.01 261.96 C 170.29 262.14 168.62 270.34 159.75 271.77 C 156.82 284.74 160.64 297.04 158.20 310.06 C 157.89 313.10 159.95 316.66 159.35 319.56 C 156.81 324.36 158.75 328.84 157.69 333.81 C 154.03 340.40 157.50 348.90 155.25 356.23 C 154.79 341.00 154.93 325.54 155.17 310.30 C 157.05 299.62 155.53 287.91 155.97 277.00 C 155.99 273.61 156.05 270.22 156.12 266.83 C 157.52 273.56 159.44 265.23 161.51 263.51 C 168.63 261.26 177.47 259.63 184.91 260.12 Z" fill="#fefebe" />
<path d="M 229.46 259.73 C 231.57 261.22 230.22 261.29 229.47 263.13 C 229.17 265.59 230.22 270.44 232.91 271.08 C 239.19 271.92 242.75 280.53 244.33 285.82 C 250.50 294.32 250.27 303.60 258.98 311.00 C 266.26 313.86 273.56 315.44 280.34 319.57 C 288.59 319.18 290.43 324.61 295.02 330.00 C 299.38 332.30 305.42 329.90 310.23 331.75 C 305.49 332.10 300.75 331.98 296.00 332.03 C 292.74 332.02 289.48 332.04 286.23 331.75 C 282.10 330.55 278.25 331.04 273.98 330.98 C 277.00 329.64 274.42 325.48 273.72 323.30 C 271.04 314.55 260.79 316.17 254.07 311.97 C 244.60 308.32 245.94 292.55 240.42 286.71 C 240.00 280.90 233.55 276.36 228.66 274.27 C 223.18 271.64 224.33 278.12 218.53 273.93 C 223.54 270.90 226.28 266.32 228.26 260.95 L 229.46 259.73 Z" fill="#fbfde1" />
<path d="M 179.01 261.96 C 183.72 261.11 182.43 266.84 186.38 268.57 C 191.71 270.10 191.99 273.72 192.37 278.58 C 197.31 274.19 196.56 285.00 197.41 287.52 C 204.90 288.28 201.49 298.23 201.64 303.48 C 198.20 304.20 197.07 306.56 194.64 308.68 C 192.36 310.20 188.76 308.63 186.10 309.13 C 185.51 313.07 187.90 311.41 190.49 312.47 C 191.17 315.34 194.98 318.50 191.95 320.90 C 190.16 324.34 188.95 321.21 186.85 320.08 C 185.50 325.55 181.20 327.06 177.72 330.98 C 172.02 337.48 178.87 346.25 186.38 345.19 C 196.18 344.76 206.04 345.11 215.86 345.00 C 213.92 348.62 218.88 348.05 221.00 347.96 C 229.64 345.61 237.22 349.68 246.00 347.04 C 255.94 348.23 266.77 349.59 276.26 352.75 C 281.04 359.71 275.48 359.12 270.86 361.89 C 266.30 368.04 261.15 373.11 258.09 380.21 C 256.68 377.34 260.75 373.97 258.18 372.03 C 253.53 371.13 256.53 364.47 256.21 361.16 C 258.33 358.43 260.50 357.00 260.64 353.17 C 257.90 352.18 255.17 351.97 252.66 353.63 C 250.23 356.34 248.37 360.75 244.03 360.04 C 237.52 359.82 230.89 360.39 224.43 359.72 C 223.84 354.77 222.34 356.60 218.48 355.61 C 217.63 350.04 214.24 350.84 209.83 351.67 C 203.23 351.72 194.06 353.90 188.87 349.16 C 184.70 348.41 179.37 350.40 176.40 346.61 C 171.99 343.44 172.70 336.87 167.75 335.18 C 165.54 334.24 164.11 328.74 161.30 330.24 C 159.51 334.51 158.00 341.30 160.46 345.56 C 161.92 348.09 163.84 352.85 159.07 349.51 C 156.97 355.34 159.11 361.18 156.88 366.88 C 154.69 372.29 157.46 378.19 157.26 384.26 L 157.30 385.81 C 156.18 392.09 158.04 397.80 158.08 404.00 C 156.68 417.81 156.93 432.05 157.20 445.96 C 159.39 462.20 157.49 479.00 157.60 495.34 C 158.90 501.30 156.32 508.21 159.99 512.98 C 161.95 516.40 165.34 518.32 166.78 522.20 C 170.64 532.03 178.93 541.46 185.36 549.66 C 190.35 553.56 192.82 546.66 198.54 549.54 C 202.42 552.77 209.00 552.44 213.55 551.52 C 217.19 547.79 216.86 539.72 223.36 536.41 C 227.03 535.58 231.01 536.88 231.83 531.94 C 232.30 525.23 241.17 524.25 240.05 515.98 C 239.48 510.34 244.21 512.63 247.78 511.74 C 247.70 505.31 248.52 502.48 251.55 496.94 C 250.62 494.60 249.60 492.62 249.92 489.98 C 249.53 483.68 256.90 487.34 257.58 480.59 C 263.27 479.44 263.22 472.34 269.16 470.22 C 276.21 467.47 269.02 460.10 274.23 456.26 C 276.70 454.94 277.91 451.37 277.06 448.82 C 274.26 444.31 278.87 438.83 279.60 434.04 C 276.90 428.54 278.02 421.26 278.30 415.30 C 279.66 410.89 288.63 415.06 287.83 411.19 C 282.93 410.86 278.42 411.37 273.80 409.23 C 281.06 409.71 291.78 406.93 297.94 411.18 C 295.35 415.63 292.39 414.45 288.09 414.11 C 290.62 418.73 289.88 422.99 290.10 428.01 C 290.31 432.12 292.70 436.75 288.99 439.99 C 287.89 441.79 281.42 446.05 285.71 447.26 C 289.76 448.88 288.45 457.13 285.47 459.47 C 282.77 461.69 285.86 464.21 284.51 466.46 C 281.54 468.49 278.56 470.38 276.04 472.98 C 279.23 476.58 282.35 479.79 286.92 481.62 C 282.43 482.36 278.20 483.97 273.73 484.87 C 271.47 486.50 271.78 490.98 270.26 493.40 C 268.32 496.07 273.01 495.81 271.78 498.68 C 269.21 501.12 263.80 500.98 261.85 504.00 C 263.80 507.00 269.15 506.89 271.76 509.28 C 272.15 514.93 272.30 521.08 271.68 526.69 C 267.55 531.67 267.03 537.68 259.26 537.55 C 254.66 537.51 256.60 540.48 255.68 543.67 C 252.51 544.19 249.36 544.41 246.26 545.31 C 245.33 549.51 246.97 555.63 245.28 559.29 C 240.26 561.84 240.18 558.11 239.63 554.24 C 235.14 553.81 229.80 553.76 225.31 554.28 C 224.29 556.90 222.68 562.83 225.28 564.79 C 229.77 565.21 234.38 564.15 238.92 564.33 C 237.20 567.39 228.21 569.22 224.52 569.60 C 224.05 564.27 215.00 567.17 211.27 566.56 C 204.68 569.54 199.57 564.83 194.21 561.32 C 195.59 559.77 200.08 558.56 196.03 556.97 C 191.10 553.63 193.77 561.62 188.12 559.94 C 182.60 558.00 180.87 548.22 177.04 544.03 C 172.46 533.58 162.50 524.80 158.13 513.90 C 156.71 509.05 157.53 517.55 155.14 518.25 C 154.98 514.23 154.85 510.23 155.28 506.22 C 156.95 488.83 155.53 470.57 156.00 453.00 C 155.54 430.80 156.92 407.78 155.31 385.77 L 154.99 384.00 C 155.14 374.76 154.70 365.46 155.25 356.23 C 157.50 348.90 154.03 340.40 157.69 333.81 C 158.75 328.84 156.81 324.36 159.35 319.56 C 159.95 316.66 157.89 313.10 158.20 310.06 C 160.64 297.04 156.82 284.74 159.75 271.77 C 168.62 270.34 170.29 262.14 179.01 261.96 Z" fill="#feffb1" />
<path d="M 207.92 265.23 C 209.34 264.74 210.75 264.79 212.15 265.38 C 210.62 266.57 209.30 266.72 207.92 265.23 Z" fill="#819367" />
<path d="M 448.86 265.38 C 450.26 264.79 451.67 264.74 453.08 265.23 C 451.70 266.73 450.39 266.56 448.86 265.38 Z" fill="#6f8681" />
<path d="M 140.88 265.88 L 140.88 267.85 C 139.93 269.83 139.37 271.53 136.90 271.86 C 130.93 272.24 125.28 271.49 119.45 273.46 C 117.89 275.43 117.35 279.09 114.62 279.50 C 106.76 280.24 104.10 290.45 99.17 295.97 C 106.46 307.77 106.38 323.12 110.60 336.36 C 111.96 343.37 108.47 350.81 108.99 358.00 C 110.02 366.71 104.38 374.26 107.84 383.08 C 115.19 385.82 108.24 391.68 107.27 396.18 C 107.28 399.95 100.96 401.00 103.56 404.38 C 107.68 407.13 107.15 410.29 107.42 414.76 C 101.12 417.83 104.87 429.04 104.67 434.68 C 102.89 437.48 100.26 438.14 97.50 439.59 C 95.19 441.24 96.97 446.09 94.55 447.55 C 91.34 449.64 91.64 453.00 90.47 456.37 C 85.79 468.93 95.88 482.24 97.45 495.48 C 104.62 495.93 104.09 507.42 108.48 511.45 C 111.11 512.51 112.03 514.20 113.61 516.37 C 118.21 519.38 123.26 520.42 128.20 522.74 C 131.42 523.64 135.92 520.04 138.23 523.73 C 139.34 526.45 139.86 529.42 140.78 532.21 C 140.87 533.46 140.94 534.72 141.01 535.97 C 140.98 538.79 140.79 541.48 141.77 544.19 L 142.23 545.81 C 141.79 551.98 142.23 558.14 141.76 564.29 C 139.53 552.72 140.92 540.63 138.74 529.12 C 136.74 533.25 137.36 531.54 136.64 528.00 C 135.27 529.63 134.24 531.44 132.98 533.16 C 130.23 526.91 124.21 527.09 119.31 522.71 C 111.34 520.01 105.06 514.52 102.41 506.45 C 101.01 502.71 96.88 502.53 96.59 498.40 C 95.81 493.18 94.90 490.49 91.90 486.18 C 87.42 473.99 84.74 462.05 89.43 449.38 C 93.40 437.90 91.64 428.20 93.73 416.68 C 98.33 408.50 95.24 399.86 99.97 392.00 C 103.34 384.18 98.72 374.49 102.50 366.61 C 104.79 361.36 100.16 359.91 101.07 354.99 C 101.39 347.67 100.75 340.32 101.03 332.98 C 101.34 328.45 97.99 325.67 97.56 321.45 C 104.87 317.54 96.80 311.62 96.84 306.05 C 96.60 301.37 94.89 300.14 91.91 297.01 C 94.02 293.32 96.82 293.02 95.95 287.91 C 94.98 280.17 101.31 280.75 103.54 274.45 C 104.77 270.98 108.96 272.40 111.84 271.64 C 119.51 270.23 127.23 271.56 134.80 270.81 C 136.84 269.18 138.77 267.44 140.88 265.88 Z" fill="#feffe1" />
<path d="M 140.88 267.85 C 140.89 269.19 140.89 270.52 140.88 271.86 C 139.91 273.41 140.62 275.29 138.40 273.67 C 132.38 270.74 133.46 276.89 127.39 277.51 C 121.62 278.75 122.32 283.33 119.12 287.05 C 115.56 288.88 113.13 291.83 109.45 293.51 C 106.83 296.23 108.81 297.16 110.43 299.56 C 113.47 302.64 110.53 307.35 113.56 310.45 C 119.59 316.15 115.94 326.29 117.11 333.94 C 120.63 340.03 118.00 347.10 119.93 354.01 C 119.03 358.94 118.47 365.76 114.59 369.30 C 117.18 376.19 119.83 382.41 119.02 390.00 C 118.46 399.96 119.09 405.24 123.84 413.99 C 119.01 419.24 121.79 424.45 120.87 430.83 C 115.87 437.46 108.40 437.19 102.61 442.60 C 95.92 447.10 92.23 456.94 91.47 464.66 C 93.55 472.75 96.35 482.77 102.98 488.34 C 105.84 492.25 112.16 492.93 107.21 498.01 C 109.07 502.37 110.75 506.94 112.72 511.21 C 119.51 512.66 121.73 517.96 128.95 517.88 C 132.12 518.05 136.83 514.34 137.86 518.92 C 137.95 516.60 137.98 514.28 138.25 511.97 C 139.07 513.66 139.34 515.40 139.76 517.22 C 139.92 518.16 140.07 519.10 140.22 520.04 C 139.74 522.23 139.16 524.16 141.11 525.82 C 141.03 527.95 140.88 530.08 140.78 532.21 C 139.86 529.42 139.34 526.45 138.23 523.73 C 135.92 520.04 131.42 523.64 128.20 522.74 C 123.26 520.42 118.21 519.38 113.61 516.37 C 112.03 514.20 111.11 512.51 108.48 511.45 C 104.09 507.42 104.62 495.93 97.45 495.48 C 95.88 482.24 85.79 468.93 90.47 456.37 C 91.64 453.00 91.34 449.64 94.55 447.55 C 96.97 446.09 95.19 441.24 97.50 439.59 C 100.26 438.14 102.89 437.48 104.67 434.68 C 104.87 429.04 101.12 417.83 107.42 414.76 C 107.15 410.29 107.68 407.13 103.56 404.38 C 100.96 401.00 107.28 399.95 107.27 396.18 C 108.24 391.68 115.19 385.82 107.84 383.08 C 104.38 374.26 110.02 366.71 108.99 358.00 C 108.47 350.81 111.96 343.37 110.60 336.36 C 106.38 323.12 106.46 307.77 99.17 295.97 C 104.10 290.45 106.76 280.24 114.62 279.50 C 117.35 279.09 117.89 275.43 119.45 273.46 C 125.28 271.49 130.93 272.24 136.90 271.86 C 139.37 271.53 139.93 269.83 140.88 267.85 Z" fill="#feffd3" />
<path d="M 140.88 271.86 C 141.13 280.57 140.91 289.28 141.05 298.00 C 139.93 301.07 142.00 307.12 139.30 308.99 C 137.78 302.23 139.56 295.30 138.57 288.38 C 139.39 281.76 131.01 279.53 128.18 285.16 C 127.22 288.92 123.20 286.82 121.23 289.30 C 120.83 291.97 121.82 295.04 122.44 297.65 C 123.56 300.08 127.95 300.06 129.05 302.98 C 128.05 306.14 124.37 307.44 123.17 310.13 C 123.18 318.89 120.94 325.92 122.34 334.62 C 128.48 337.86 125.21 344.22 126.04 350.00 C 126.94 357.71 121.35 362.44 122.50 370.61 C 124.34 374.56 125.27 378.42 127.77 382.08 C 126.08 388.59 127.97 394.37 128.23 400.88 C 128.56 404.81 132.78 408.53 136.79 407.61 C 137.16 408.37 136.61 412.26 137.80 411.69 C 138.79 403.06 140.67 394.69 141.01 385.96 C 141.20 383.22 141.19 384.13 142.25 385.80 C 141.86 390.95 141.86 396.09 142.31 401.23 C 142.09 403.08 141.91 404.92 141.70 406.77 C 140.96 409.48 140.88 412.21 141.00 415.00 C 141.01 419.28 141.12 423.50 140.75 427.77 C 139.80 430.81 139.92 433.86 140.00 437.00 C 139.96 441.71 140.00 446.40 140.13 451.11 L 139.87 451.89 C 137.86 463.67 139.56 476.91 139.00 489.00 C 139.36 494.19 138.08 500.20 139.87 505.11 L 140.14 505.89 C 140.12 509.67 139.91 513.44 139.76 517.22 C 139.34 515.40 139.07 513.66 138.25 511.97 C 137.98 514.28 137.95 516.60 137.86 518.92 C 136.83 514.34 132.12 518.05 128.95 517.88 C 121.73 517.96 119.51 512.66 112.72 511.21 C 110.75 506.94 109.07 502.37 107.21 498.01 C 112.16 492.93 105.84 492.25 102.98 488.34 C 96.35 482.77 93.55 472.75 91.47 464.66 C 92.23 456.94 95.92 447.10 102.61 442.60 C 108.40 437.19 115.87 437.46 120.87 430.83 C 121.79 424.45 119.01 419.24 123.84 413.99 C 119.09 405.24 118.46 399.96 119.02 390.00 C 119.83 382.41 117.18 376.19 114.59 369.30 C 118.47 365.76 119.03 358.94 119.93 354.01 C 118.00 347.10 120.63 340.03 117.11 333.94 C 115.94 326.29 119.59 316.15 113.56 310.45 C 110.53 307.35 113.47 302.64 110.43 299.56 C 108.81 297.16 106.83 296.23 109.45 293.51 C 113.13 291.83 115.56 288.88 119.12 287.05 C 122.32 283.33 121.62 278.75 127.39 277.51 C 133.46 276.89 132.38 270.74 138.40 273.67 C 140.62 275.29 139.91 273.41 140.88 271.86 Z" fill="#feffc5" />
<path d="M 228.66 274.27 C 233.55 276.36 240.00 280.90 240.42 286.71 C 245.94 292.55 244.60 308.32 254.07 311.97 C 260.79 316.17 271.04 314.55 273.72 323.30 C 274.42 325.48 277.00 329.64 273.98 330.98 C 268.00 331.05 262.02 330.94 256.03 331.03 C 232.89 331.39 208.68 330.14 185.75 331.66 C 182.57 332.50 178.39 333.85 178.95 337.98 C 178.99 341.48 183.43 342.97 186.05 344.19 L 186.38 345.19 C 178.87 346.25 172.02 337.48 177.72 330.98 C 180.07 331.72 181.52 330.38 183.65 329.65 C 189.90 327.15 196.36 326.75 203.03 327.02 C 206.92 327.49 208.90 323.99 212.74 324.44 C 225.60 324.99 238.69 322.13 250.99 324.95 C 256.50 323.97 256.74 329.52 262.14 328.32 C 266.53 328.58 269.81 324.47 268.76 320.32 C 265.24 316.58 259.82 316.62 254.85 315.25 C 251.34 314.71 250.29 318.66 247.90 320.01 C 244.55 320.08 243.10 316.19 241.09 314.05 C 239.51 316.97 240.53 320.57 236.00 320.07 C 230.73 320.49 232.25 316.55 231.98 313.00 C 232.99 305.48 228.55 300.82 229.95 292.99 C 228.70 288.25 234.47 286.49 232.40 282.65 C 231.89 280.62 228.83 280.77 227.11 280.34 C 223.49 283.15 231.03 286.13 225.72 287.62 C 223.00 288.09 226.61 280.99 223.66 280.28 C 220.02 278.95 215.83 279.18 212.19 277.66 C 213.64 276.91 214.88 276.14 216.01 274.94 C 216.84 274.59 217.68 274.25 218.53 273.93 C 224.33 278.12 223.18 271.64 228.66 274.27 Z" fill="#fdfec9" />
<path d="M 205.75 275.29 C 208.63 275.01 211.38 275.04 214.27 275.32 C 211.65 276.07 209.02 276.13 206.32 275.91 L 205.75 275.29 Z" fill="#7e9155" />
<path d="M 444.78 275.24 C 447.96 275.01 451.03 275.01 454.21 275.25 C 451.25 276.33 447.72 276.46 444.78 275.24 Z" fill="#738681" />
<path d="M 519.00 276.00 C 520.83 279.42 519.78 284.21 519.97 288.00 L 519.03 288.00 C 518.96 284.00 519.05 280.00 519.00 276.00 Z" fill="#a9b9b6" />
<path d="M 155.02 277.00 L 155.97 277.00 C 155.53 287.91 157.05 299.62 155.17 310.30 C 154.95 305.45 155.09 300.61 154.75 295.77 C 155.26 289.55 154.88 283.24 155.02 277.00 Z" fill="#c5d695" />
<path d="M 138.57 288.38 C 139.56 295.30 137.78 302.23 139.30 308.99 C 142.00 307.12 139.93 301.07 141.05 298.00 L 142.00 297.99 L 142.31 299.77 C 142.05 307.12 141.33 314.99 142.67 322.24 C 142.89 323.41 143.11 324.59 143.33 325.76 C 142.77 331.84 143.03 337.83 143.03 344.00 C 142.98 353.00 142.98 362.00 143.02 371.00 C 142.94 375.76 142.94 380.52 143.26 385.27 L 143.05 386.21 L 142.25 385.80 C 141.19 384.13 141.20 383.22 141.01 385.96 C 140.67 394.69 138.79 403.06 137.80 411.69 C 136.61 412.26 137.16 408.37 136.79 407.61 C 132.78 408.53 128.56 404.81 128.23 400.88 C 127.97 394.37 126.08 388.59 127.77 382.08 C 125.27 378.42 124.34 374.56 122.50 370.61 C 121.35 362.44 126.94 357.71 126.04 350.00 C 125.21 344.22 128.48 337.86 122.34 334.62 C 120.94 325.92 123.18 318.89 123.17 310.13 C 124.37 307.44 128.05 306.14 129.05 302.98 C 127.95 300.06 123.56 300.08 122.44 297.65 C 121.82 295.04 120.83 291.97 121.23 289.30 C 123.20 286.82 127.22 288.92 128.18 285.16 C 131.01 279.53 139.39 281.76 138.57 288.38 Z" fill="#fdfeba" />
<path d="M 95.95 287.91 C 96.82 293.02 94.02 293.32 91.91 297.01 C 94.89 300.14 96.60 301.37 96.84 306.05 C 96.80 311.62 104.87 317.54 97.56 321.45 C 97.99 325.67 101.34 328.45 101.03 332.98 C 100.75 340.32 101.39 347.67 101.07 354.99 C 100.16 359.91 104.79 361.36 102.50 366.61 C 98.72 374.49 103.34 384.18 99.97 392.00 C 95.24 399.86 98.33 408.50 93.73 416.68 C 91.64 428.20 93.40 437.90 89.43 449.38 C 84.74 462.05 87.42 473.99 91.90 486.18 C 94.90 490.49 95.81 493.18 96.59 498.40 C 96.88 502.53 101.01 502.71 102.41 506.45 C 105.06 514.52 111.34 520.01 119.31 522.71 C 124.21 527.09 130.23 526.91 132.98 533.16 C 134.24 531.44 135.27 529.63 136.64 528.00 C 137.36 531.54 136.74 533.25 138.74 529.12 C 140.92 540.63 139.53 552.72 141.76 564.29 C 141.91 566.97 142.05 569.62 142.72 572.23 C 142.78 573.91 142.77 575.60 142.74 577.29 C 137.26 567.71 140.07 553.19 136.84 543.16 C 133.83 543.95 134.99 550.96 132.00 552.22 C 128.84 548.46 130.19 545.18 129.06 541.18 C 126.94 543.28 125.73 544.98 122.44 543.63 C 119.74 536.81 119.59 535.85 112.36 533.50 C 111.65 530.66 111.26 528.15 114.81 527.48 C 112.35 523.39 109.10 528.04 106.21 523.79 C 99.74 518.31 102.10 510.28 96.14 504.86 C 93.84 502.30 96.44 497.95 93.03 495.96 C 87.51 489.66 85.08 481.27 82.70 473.57 C 83.01 460.87 82.68 449.29 87.06 437.01 C 87.45 434.27 86.37 432.29 85.27 429.92 C 87.14 425.64 89.70 421.97 90.29 417.17 C 91.10 409.63 97.52 407.12 96.08 399.00 C 94.07 386.38 97.68 374.79 94.78 362.07 C 91.01 354.94 94.24 345.09 92.64 337.28 C 89.53 332.78 91.76 326.43 90.80 321.04 C 89.60 314.88 89.72 309.28 90.73 303.10 C 89.53 300.08 86.89 297.87 88.34 294.35 C 90.17 291.67 93.35 289.79 95.95 287.91 Z" fill="#fefff0" />
<path d="M 519.03 288.00 L 519.97 288.00 C 520.00 293.43 520.16 298.81 519.72 304.23 C 518.35 299.09 519.20 293.31 519.03 288.00 Z" fill="#4e5e5b" />
<path d="M 506.95 291.89 L 507.94 292.00 C 507.80 297.30 508.68 303.10 507.25 308.23 C 506.89 303.08 507.11 297.93 506.74 292.79 L 506.95 291.89 Z" fill="#5c706d" />
<path d="M 506.74 292.79 C 507.11 297.93 506.89 303.08 507.25 308.23 C 506.68 317.79 507.18 327.42 506.97 337.00 L 506.03 337.00 C 506.45 322.43 505.04 307.16 506.74 292.79 Z" fill="#d2e1de" />
<path d="M 154.75 295.77 C 155.09 300.61 154.95 305.45 155.17 310.30 L 154.11 309.95 C 154.08 305.35 153.43 300.18 154.75 295.77 Z" fill="#536d29" />
<path d="M 142.31 299.77 C 143.68 307.00 142.95 314.90 142.67 322.24 C 141.33 314.99 142.05 307.12 142.31 299.77 Z" fill="#6b803d" />
<path d="M 154.11 309.95 L 155.17 310.30 C 154.93 325.54 154.79 341.00 155.25 356.23 C 154.70 365.46 155.14 374.76 154.99 384.00 L 154.04 383.98 C 154.02 359.30 153.88 334.62 154.11 309.95 Z" fill="#afbe78" />
<path d="M 520.28 311.77 C 521.06 314.48 521.11 317.20 521.00 320.00 L 520.02 320.00 C 519.96 317.25 520.08 314.51 520.28 311.77 Z" fill="#90a19e" />
<path d="M 520.02 320.00 L 521.00 320.00 C 521.03 325.04 521.02 330.07 520.87 335.11 C 519.14 330.51 520.30 324.86 520.02 320.00 Z" fill="#3e4e4b" />
<path d="M 143.33 325.76 C 144.67 331.62 143.77 338.00 143.97 344.00 L 143.03 344.00 C 143.03 337.83 142.77 331.84 143.33 325.76 Z" fill="#596a29" />
<path d="M 161.30 330.24 C 164.11 328.74 165.54 334.24 167.75 335.18 C 172.70 336.87 171.99 343.44 176.40 346.61 C 179.37 350.40 184.70 348.41 188.87 349.16 C 194.06 353.90 203.23 351.72 209.83 351.67 C 214.24 350.84 217.63 350.04 218.48 355.61 C 222.34 356.60 223.84 354.77 224.43 359.72 C 230.89 360.39 237.52 359.82 244.03 360.04 C 248.37 360.75 250.23 356.34 252.66 353.63 C 255.17 351.97 257.90 352.18 260.64 353.17 C 260.50 357.00 258.33 358.43 256.21 361.16 C 256.53 364.47 253.53 371.13 258.18 372.03 C 260.75 373.97 256.68 377.34 258.09 380.21 C 257.55 383.83 256.92 387.48 256.75 391.13 C 259.18 397.54 263.50 405.75 270.87 407.15 C 271.78 407.88 272.71 408.81 273.80 409.23 C 278.42 411.37 282.93 410.86 287.83 411.19 C 288.63 415.06 279.66 410.89 278.30 415.30 C 278.02 421.26 276.90 428.54 279.60 434.04 C 278.87 438.83 274.26 444.31 277.06 448.82 C 277.91 451.37 276.70 454.94 274.23 456.26 C 269.02 460.10 276.21 467.47 269.16 470.22 C 263.22 472.34 263.27 479.44 257.58 480.59 C 256.90 487.34 249.53 483.68 249.92 489.98 C 249.60 492.62 250.62 494.60 251.55 496.94 C 248.52 502.48 247.70 505.31 247.78 511.74 C 244.21 512.63 239.48 510.34 240.05 515.98 C 241.17 524.25 232.30 525.23 231.83 531.94 C 231.01 536.88 227.03 535.58 223.36 536.41 C 216.86 539.72 217.19 547.79 213.55 551.52 C 209.00 552.44 202.42 552.77 198.54 549.54 C 192.82 546.66 190.35 553.56 185.36 549.66 C 178.93 541.46 170.64 532.03 166.78 522.20 C 165.34 518.32 161.95 516.40 159.99 512.98 C 156.32 508.21 158.90 501.30 157.60 495.34 C 157.49 479.00 159.39 462.20 157.20 445.96 C 156.93 432.05 156.68 417.81 158.08 404.00 C 158.04 397.80 156.18 392.09 157.30 385.81 C 160.72 403.66 158.39 420.83 159.00 439.00 C 158.30 447.16 160.47 454.88 160.03 463.00 C 159.69 476.53 158.97 491.24 160.36 504.66 C 169.25 514.98 168.27 528.42 178.73 536.23 C 185.88 538.53 185.12 546.70 193.06 543.05 C 197.60 541.31 202.50 544.17 206.40 544.33 C 212.97 539.86 216.18 527.20 225.87 527.78 C 235.52 518.77 237.24 508.72 242.12 497.14 C 248.52 494.24 239.84 491.18 244.27 487.26 C 248.38 484.24 252.00 483.03 253.38 477.53 C 254.33 471.92 260.02 471.56 262.30 466.29 C 265.33 462.61 256.32 464.21 256.99 461.14 C 261.06 458.17 264.65 454.63 267.99 450.88 C 267.43 448.43 264.73 446.36 267.14 444.15 C 270.57 440.97 271.51 435.64 273.30 431.33 C 275.26 424.74 272.29 418.52 275.91 412.13 C 271.84 409.52 262.45 406.23 257.07 406.38 C 256.56 403.64 257.52 401.58 258.50 399.12 C 255.90 392.42 247.38 392.99 247.56 384.51 C 243.05 384.09 241.07 374.94 236.03 375.97 C 232.76 375.90 229.39 376.23 226.14 375.85 C 219.88 372.16 218.12 364.42 211.96 361.96 C 207.46 361.26 208.54 366.76 204.01 366.02 C 199.23 364.68 192.44 366.91 190.65 361.31 C 185.58 359.96 182.57 356.50 177.28 355.72 C 175.07 354.77 175.42 349.95 171.98 352.97 C 168.21 357.37 164.19 358.00 159.30 360.35 C 160.50 367.95 158.72 374.31 158.93 381.97 C 159.02 383.05 158.46 383.82 157.26 384.26 C 157.46 378.19 154.69 372.29 156.88 366.88 C 159.11 361.18 156.97 355.34 159.07 349.51 C 163.84 352.85 161.92 348.09 160.46 345.56 C 158.00 341.30 159.51 334.51 161.30 330.24 Z" fill="#ffffa6" />
<path d="M 256.03 331.03 L 255.90 332.05 L 253.78 332.28 C 231.15 331.41 208.37 332.63 185.75 331.66 C 208.68 330.14 232.89 331.39 256.03 331.03 Z" fill="#546934" />
<path d="M 256.03 331.03 C 262.02 330.94 268.00 331.05 273.98 330.98 C 278.25 331.04 282.10 330.55 286.23 331.75 C 276.14 332.32 266.00 331.80 255.90 332.05 L 256.03 331.03 Z" fill="#b3cb97" />
<path d="M 185.75 331.66 C 208.37 332.63 231.15 331.41 253.78 332.28 C 264.58 333.94 276.07 332.51 287.03 333.04 C 286.44 334.48 286.93 335.76 284.97 335.95 C 281.37 336.51 280.07 339.92 276.35 338.70 C 272.82 338.25 268.52 333.21 265.88 337.93 C 270.61 343.75 281.38 341.20 288.22 343.72 C 279.02 344.16 269.43 344.18 260.23 343.75 C 244.52 341.99 227.91 343.55 212.00 342.95 C 209.52 342.89 207.16 343.05 204.77 343.75 C 198.53 344.31 192.30 343.74 186.05 344.19 C 183.43 342.97 178.99 341.48 178.95 337.98 C 178.39 333.85 182.57 332.50 185.75 331.66 Z" fill="#0d3502" />
<path d="M 253.78 332.28 L 255.90 332.05 C 266.00 331.80 276.14 332.32 286.23 331.75 C 289.48 332.04 292.74 332.02 296.00 332.03 L 296.00 332.97 C 293.01 333.00 290.02 332.99 287.03 333.04 C 276.07 332.51 264.58 333.94 253.78 332.28 Z" fill="#2e4d1a" />
<path d="M 296.00 332.03 C 300.75 331.98 305.49 332.10 310.23 331.75 C 321.45 332.34 332.74 331.81 343.98 332.02 L 344.03 332.97 C 330.93 333.10 317.82 332.84 304.72 333.12 C 301.81 332.99 298.91 332.99 296.00 332.97 L 296.00 332.03 Z" fill="#4c6156" />
<path d="M 343.98 332.02 C 365.33 331.99 386.68 331.97 408.02 332.03 L 408.00 332.99 L 406.23 333.31 C 386.56 332.79 366.43 332.81 346.77 333.30 C 345.86 333.19 344.95 333.07 344.03 332.97 L 343.98 332.02 Z" fill="#9fb0ad" />
<path d="M 408.02 332.03 C 430.17 332.39 453.31 331.14 475.25 332.66 C 452.89 333.43 430.39 332.80 408.00 332.99 L 408.02 332.03 Z" fill="#607470" />
<path d="M 287.03 333.04 C 290.02 332.99 293.01 333.00 296.00 332.97 C 298.91 332.99 301.81 332.99 304.72 333.12 C 306.38 336.14 312.36 334.82 314.72 338.29 C 316.22 341.49 320.83 338.58 323.68 338.89 C 322.63 340.48 321.62 342.07 320.80 343.79 C 317.20 344.02 313.60 344.02 310.00 344.04 C 303.33 343.94 296.66 344.03 290.00 344.01 L 288.22 343.72 C 281.38 341.20 270.61 343.75 265.88 337.93 C 268.52 333.21 272.82 338.25 276.35 338.70 C 280.07 339.92 281.37 336.51 284.97 335.95 C 286.93 335.76 286.44 334.48 287.03 333.04 Z" fill="#022a04" />
<path d="M 304.72 333.12 C 317.82 332.84 330.93 333.10 344.03 332.97 C 344.95 333.07 345.86 333.19 346.77 333.30 C 363.53 334.94 381.07 333.49 398.00 334.04 C 400.78 334.10 403.52 334.03 406.23 333.31 L 408.00 332.99 C 430.39 332.80 452.89 333.43 475.25 332.66 C 478.27 333.33 480.40 334.43 482.23 336.98 C 481.82 338.77 481.78 340.19 482.16 342.00 C 480.64 343.27 479.03 344.42 477.23 345.27 C 470.19 344.81 463.10 344.97 456.05 345.10 C 451.07 344.92 446.09 345.07 441.11 344.95 L 440.21 344.74 C 422.89 343.02 404.53 344.49 387.00 344.00 C 374.73 344.48 361.82 343.01 349.75 344.76 C 341.30 345.19 332.67 345.09 324.22 344.82 C 323.08 344.47 321.94 344.13 320.80 343.79 C 321.62 342.07 322.63 340.48 323.68 338.89 C 320.83 338.58 316.22 341.49 314.72 338.29 C 312.36 334.82 306.38 336.14 304.72 333.12 Z" fill="#03231a" />
<path d="M 346.77 333.30 C 366.43 332.81 386.56 332.79 406.23 333.31 C 403.52 334.03 400.78 334.10 398.00 334.04 C 381.07 333.49 363.53 334.94 346.77 333.30 Z" fill="#1c3530" />
<path d="M 521.13 335.89 C 522.67 339.50 521.85 344.13 521.97 348.00 L 521.02 348.00 C 520.94 343.96 521.04 339.93 521.13 335.89 Z" fill="#c5dcd6" />
<path d="M 482.23 336.98 C 483.62 338.34 483.84 340.78 482.16 342.00 C 481.78 340.19 481.82 338.77 482.23 336.98 Z" fill="#91a19c" />
<path d="M 506.03 337.00 L 506.97 337.00 C 507.02 341.99 507.02 346.99 506.98 351.99 L 506.04 352.03 C 506.00 347.02 505.97 342.01 506.03 337.00 Z" fill="#a4b5af" />
<path d="M 212.00 342.95 C 227.91 343.55 244.52 341.99 260.23 343.75 C 241.94 344.17 223.06 344.16 204.77 343.75 C 207.16 343.05 209.52 342.89 212.00 342.95 Z" fill="#3c5317" />
<path d="M 143.03 344.00 L 143.97 344.00 C 144.02 353.00 144.02 362.00 143.97 371.00 L 143.02 371.00 C 142.98 362.00 142.98 353.00 143.03 344.00 Z" fill="#909f60" />
<path d="M 186.05 344.19 C 192.30 343.74 198.53 344.31 204.77 343.75 C 223.06 344.16 241.94 344.17 260.23 343.75 C 269.43 344.18 279.02 344.16 288.22 343.72 L 290.00 344.01 L 290.02 344.97 C 285.40 345.01 280.79 344.95 276.17 345.12 C 256.07 344.86 235.96 345.06 215.86 345.00 C 206.04 345.11 196.18 344.76 186.38 345.19 L 186.05 344.19 Z" fill="#c0cf95" />
<path d="M 290.00 344.01 C 296.66 344.03 303.33 343.94 310.00 344.04 L 310.00 345.00 C 303.34 344.98 296.68 345.04 290.02 344.97 L 290.00 344.01 Z" fill="#89a185" />
<path d="M 310.00 344.04 C 313.60 344.02 317.20 344.02 320.80 343.79 C 321.94 344.13 323.08 344.47 324.22 344.82 C 319.48 345.03 314.74 345.03 310.00 345.00 L 310.00 344.04 Z" fill="#435a48" />
<path d="M 387.00 344.00 C 404.53 344.49 422.89 343.02 440.21 344.74 C 410.43 345.25 380.57 345.01 350.78 344.87 L 349.75 344.76 C 361.82 343.01 374.73 344.48 387.00 344.00 Z" fill="#738883" />
<path d="M 215.86 345.00 C 235.96 345.06 256.07 344.86 276.17 345.12 C 274.76 345.63 273.35 346.16 271.97 346.76 C 276.60 347.16 280.51 346.06 282.71 351.16 C 282.93 354.73 286.72 358.26 282.78 360.77 C 278.10 363.87 273.13 364.77 269.04 369.08 C 267.90 370.32 265.62 370.70 268.90 371.09 C 265.82 374.21 263.17 377.58 261.75 381.79 C 260.60 384.88 260.54 389.13 261.78 392.20 C 262.38 393.83 263.19 395.42 263.94 396.99 C 263.94 398.86 264.27 399.44 266.09 399.97 C 268.56 402.06 271.17 403.73 274.04 405.23 C 275.96 406.66 277.84 406.32 280.02 405.84 C 281.28 405.80 282.53 405.74 283.79 405.66 C 285.12 405.87 286.45 406.09 287.78 406.31 C 291.23 407.16 294.76 406.84 298.22 407.65 C 289.28 408.00 279.69 408.72 270.87 407.15 C 263.50 405.75 259.18 397.54 256.75 391.13 C 256.92 387.48 257.55 383.83 258.09 380.21 C 261.15 373.11 266.30 368.04 270.86 361.89 C 275.48 359.12 281.04 359.71 276.26 352.75 C 266.77 349.59 255.94 348.23 246.00 347.04 C 237.22 349.68 229.64 345.61 221.00 347.96 C 218.88 348.05 213.92 348.62 215.86 345.00 Z" fill="#fafac2" />
<path d="M 276.17 345.12 C 280.79 344.95 285.40 345.01 290.02 344.97 C 296.68 345.04 303.34 344.98 310.00 345.00 L 310.00 345.97 C 304.38 346.48 293.18 343.88 290.97 350.83 C 298.17 353.25 292.25 360.81 290.34 365.36 C 289.40 368.04 286.65 364.91 285.73 367.81 C 281.86 368.21 277.50 367.43 273.82 368.70 C 272.14 369.35 270.50 370.25 268.90 371.09 C 265.62 370.70 267.90 370.32 269.04 369.08 C 273.13 364.77 278.10 363.87 282.78 360.77 C 286.72 358.26 282.93 354.73 282.71 351.16 C 280.51 346.06 276.60 347.16 271.97 346.76 C 273.35 346.16 274.76 345.63 276.17 345.12 Z" fill="#fcfdde" />
<path d="M 310.00 345.00 C 314.74 345.03 319.48 345.03 324.22 344.82 C 332.67 345.09 341.30 345.19 349.75 344.76 L 350.78 344.87 L 351.06 345.94 C 337.38 346.06 323.68 346.00 310.00 345.97 L 310.00 345.00 Z" fill="#c1d2c9" />
<path d="M 350.78 344.87 C 380.57 345.01 410.43 345.25 440.21 344.74 L 441.11 344.95 L 441.00 345.95 C 411.02 346.03 381.04 346.05 351.06 345.94 L 350.78 344.87 Z" fill="#deeeeb" />
<path d="M 441.11 344.95 C 446.09 345.07 451.07 344.92 456.05 345.10 L 455.70 346.17 C 450.82 345.86 445.91 346.06 441.00 345.95 L 441.11 344.95 Z" fill="#a9beb9" />
<path d="M 456.05 345.10 C 463.10 344.97 470.19 344.81 477.23 345.27 C 476.56 345.61 475.87 345.93 475.17 346.21 C 468.69 345.89 462.19 345.90 455.70 346.17 L 456.05 345.10 Z" fill="#4c645e" />
<path d="M 455.70 346.17 C 462.19 345.90 468.69 345.89 475.17 346.21 C 470.27 347.56 460.66 347.45 455.70 346.17 Z" fill="#c7d9d5" />
<path d="M 521.02 348.00 L 521.97 348.00 C 521.54 367.85 522.97 388.60 521.25 408.23 C 520.69 388.18 521.13 368.06 521.02 348.00 Z" fill="#93a7a4" />
<path d="M 177.28 355.72 C 182.57 356.50 185.58 359.96 190.65 361.31 C 192.44 366.91 199.23 364.68 204.01 366.02 C 208.54 366.76 207.46 361.26 211.96 361.96 C 218.12 364.42 219.88 372.16 226.14 375.85 C 229.39 376.23 232.76 375.90 236.03 375.97 C 241.07 374.94 243.05 384.09 247.56 384.51 C 247.38 392.99 255.90 392.42 258.50 399.12 C 257.52 401.58 256.56 403.64 257.07 406.38 C 262.45 406.23 271.84 409.52 275.91 412.13 C 272.29 418.52 275.26 424.74 273.30 431.33 C 271.51 435.64 270.57 440.97 267.14 444.15 C 264.73 446.36 267.43 448.43 267.99 450.88 C 264.65 454.63 261.06 458.17 256.99 461.14 C 256.32 464.21 265.33 462.61 262.30 466.29 C 260.02 471.56 254.33 471.92 253.38 477.53 C 252.00 483.03 248.38 484.24 244.27 487.26 C 239.84 491.18 248.52 494.24 242.12 497.14 C 237.24 508.72 235.52 518.77 225.87 527.78 C 216.18 527.20 212.97 539.86 206.40 544.33 C 202.50 544.17 197.60 541.31 193.06 543.05 C 185.12 546.70 185.88 538.53 178.73 536.23 C 168.27 528.42 169.25 514.98 160.36 504.66 C 158.97 491.24 159.69 476.53 160.03 463.00 C 160.47 454.88 158.30 447.16 159.00 439.00 C 158.39 420.83 160.72 403.66 157.30 385.81 L 157.26 384.26 C 158.46 383.82 159.02 383.05 158.93 381.97 C 158.72 374.31 160.50 367.95 159.30 360.35 C 164.19 358.00 168.21 357.37 171.98 352.97 C 175.42 349.95 175.07 354.77 177.28 355.72 Z" fill="#ffff9b" />
<path d="M 506.04 352.03 L 506.98 351.99 C 507.02 357.32 507.02 362.66 506.97 368.00 L 506.03 368.00 C 506.02 363.92 506.04 359.84 505.72 355.77 C 505.84 354.52 505.95 353.28 506.04 352.03 Z" fill="#667977" />
<path d="M 505.72 355.77 C 506.04 359.84 506.02 363.92 506.03 368.00 C 506.01 374.09 505.84 380.19 506.25 386.23 C 505.72 392.79 506.14 399.42 505.97 406.00 L 505.02 406.00 C 505.43 389.41 504.07 372.18 505.72 355.77 Z" fill="#ccdcd9" />
<path d="M 179.68 366.33 C 183.20 369.17 187.92 367.03 191.28 368.72 C 193.50 372.53 190.18 380.60 193.29 383.76 C 198.62 384.40 204.00 383.59 209.36 384.45 C 214.29 384.65 216.55 383.13 219.08 379.07 C 221.79 375.52 224.16 381.36 224.47 383.66 C 228.00 384.26 231.26 383.83 234.72 385.22 C 238.27 387.98 240.33 391.58 244.52 393.49 C 250.25 399.01 253.26 410.35 261.52 412.49 C 267.46 418.24 266.47 425.27 267.08 433.02 C 267.57 438.67 262.54 440.39 261.74 445.84 C 261.36 449.05 258.03 447.61 255.80 447.90 C 259.31 440.28 265.87 435.19 261.82 425.28 C 260.98 419.94 256.00 420.80 257.37 415.36 C 249.03 414.11 244.91 401.25 235.96 400.14 C 230.46 400.62 232.16 394.10 226.74 392.39 C 222.41 391.61 225.67 387.47 221.16 388.02 C 215.72 392.61 214.22 395.04 210.12 399.84 C 208.49 397.16 208.51 393.57 207.32 390.67 C 196.05 387.51 188.96 394.07 177.27 391.73 C 174.68 384.98 175.13 376.39 174.88 369.25 C 171.75 371.62 177.38 383.22 170.68 383.76 C 164.35 385.43 170.83 393.29 173.00 396.01 C 175.68 398.64 171.79 399.65 170.34 401.39 C 169.25 410.96 170.74 421.05 169.66 430.62 C 164.33 433.91 165.37 437.21 167.98 442.05 C 166.58 453.74 167.03 465.25 167.03 477.02 C 167.27 480.59 165.40 482.95 164.00 486.02 C 162.14 488.59 165.21 491.26 165.34 494.19 C 163.19 502.91 172.95 510.51 175.15 518.88 C 176.73 524.96 181.42 527.37 184.78 532.24 C 187.86 536.41 193.37 537.22 197.78 534.71 C 197.97 532.93 197.47 531.03 197.36 529.24 C 200.49 527.29 204.19 528.46 207.65 527.65 C 212.04 523.49 217.66 517.83 223.68 516.55 C 222.65 507.47 230.88 503.79 229.17 494.95 C 228.09 490.76 231.53 489.56 233.57 486.59 C 237.74 480.37 242.72 476.29 244.59 468.66 C 244.89 460.96 246.72 454.51 251.28 448.27 C 252.76 448.03 254.30 447.99 255.80 447.90 C 254.58 455.02 249.45 459.57 249.81 466.97 C 248.59 472.15 246.41 477.05 245.26 482.30 C 240.99 485.18 236.58 486.98 233.36 491.35 C 231.62 494.34 231.22 494.87 234.51 496.64 C 236.67 502.29 229.13 506.60 230.19 513.38 C 224.99 522.51 213.05 530.62 202.06 529.17 C 203.85 531.97 208.04 533.87 206.84 537.69 C 200.63 538.64 193.55 539.79 187.38 538.59 C 183.01 534.33 176.95 531.21 174.07 525.98 C 170.96 519.27 168.84 512.02 165.56 505.41 C 162.96 501.22 158.58 500.11 162.73 494.77 C 160.83 489.80 159.62 484.62 162.64 479.72 C 163.41 475.37 163.03 470.50 162.88 466.06 C 158.78 458.50 162.50 448.05 160.42 439.63 C 160.01 435.31 158.41 432.11 163.54 430.42 C 165.44 419.75 161.76 407.15 165.98 396.98 C 165.48 392.85 156.59 388.26 160.42 383.54 C 161.89 378.87 160.30 373.29 161.29 368.43 C 166.03 367.75 168.95 365.27 172.79 362.78 C 175.46 360.40 177.35 365.26 179.68 366.33 Z" fill="#ffff92" />
<path d="M 384.26 367.67 C 377.47 368.31 370.79 367.87 364.00 368.00 C 369.56 366.14 378.41 366.78 384.26 367.67 Z" fill="#585858" />
<path d="M 285.73 367.81 C 286.55 368.16 287.37 368.50 288.19 368.85 C 284.72 368.90 281.25 369.05 277.78 369.31 C 276.47 369.09 275.15 368.89 273.82 368.70 C 277.50 367.43 281.86 368.21 285.73 367.81 Z" fill="#bec1a6" />
<path d="M 364.00 368.00 C 359.64 370.06 353.76 368.55 349.00 369.00 C 353.36 366.94 359.24 368.45 364.00 368.00 Z" fill="#565656" />
<path d="M 364.00 368.00 C 370.79 367.87 377.47 368.31 384.26 367.67 C 390.42 369.43 395.57 375.41 398.23 381.06 C 397.64 383.62 397.63 385.45 398.32 388.00 C 391.50 404.33 385.10 420.88 377.95 437.07 C 376.00 438.62 375.77 439.46 376.04 441.92 C 375.51 443.25 375.01 444.59 374.51 445.94 C 361.80 476.74 348.76 507.64 336.74 538.70 C 332.99 548.28 330.47 557.78 320.11 562.14 C 316.32 561.97 312.58 561.97 308.79 562.25 C 302.79 560.47 299.70 556.17 295.85 551.68 L 295.70 551.02 C 296.00 547.64 296.01 544.29 295.89 540.91 C 302.41 524.28 308.21 507.52 315.31 491.11 C 328.17 462.75 340.58 433.95 354.41 406.08 C 354.77 405.20 354.94 404.25 354.92 403.22 C 347.66 402.69 340.31 403.14 333.02 403.01 C 329.89 402.90 326.83 402.85 323.78 403.71 C 318.51 404.25 313.22 403.85 307.91 404.15 C 305.48 403.72 303.33 403.62 301.05 404.73 C 295.26 405.46 289.39 404.30 283.79 405.66 C 282.53 405.74 281.28 405.80 280.02 405.84 C 278.10 404.30 276.25 404.66 274.04 405.23 C 271.17 403.73 268.56 402.06 266.09 399.97 C 266.09 398.13 265.72 397.52 263.94 396.99 C 263.19 395.42 262.38 393.83 261.78 392.20 C 262.02 388.69 262.02 385.30 261.75 381.79 C 263.17 377.58 265.82 374.21 268.90 371.09 C 270.50 370.25 272.14 369.35 273.82 368.70 C 275.15 368.89 276.47 369.09 277.78 369.31 C 295.54 370.91 314.08 369.55 332.00 370.00 C 337.40 369.51 344.02 371.13 349.00 369.00 C 353.76 368.55 359.64 370.06 364.00 368.00 Z" fill="#030302" />
<path d="M 506.03 368.00 L 506.97 368.00 C 506.72 373.98 507.76 380.42 506.25 386.23 C 505.84 380.19 506.01 374.09 506.03 368.00 Z" fill="#324543" />
<path d="M 174.88 369.25 C 175.13 376.39 174.68 384.98 177.27 391.73 C 188.96 394.07 196.05 387.51 207.32 390.67 C 208.51 393.57 208.49 397.16 210.12 399.84 C 214.22 395.04 215.72 392.61 221.16 388.02 C 225.67 387.47 222.41 391.61 226.74 392.39 C 232.16 394.10 230.46 400.62 235.96 400.14 C 244.91 401.25 249.03 414.11 257.37 415.36 C 256.00 420.80 260.98 419.94 261.82 425.28 C 265.87 435.19 259.31 440.28 255.80 447.90 C 254.30 447.99 252.76 448.03 251.28 448.27 C 246.72 454.51 244.89 460.96 244.59 468.66 C 242.72 476.29 237.74 480.37 233.57 486.59 C 231.53 489.56 228.09 490.76 229.17 494.95 C 230.88 503.79 222.65 507.47 223.68 516.55 C 217.66 517.83 212.04 523.49 207.65 527.65 C 204.19 528.46 200.49 527.29 197.36 529.24 C 197.47 531.03 197.97 532.93 197.78 534.71 C 193.37 537.22 187.86 536.41 184.78 532.24 C 181.42 527.37 176.73 524.96 175.15 518.88 C 172.95 510.51 163.19 502.91 165.34 494.19 C 165.21 491.26 162.14 488.59 164.00 486.02 C 165.40 482.95 167.27 480.59 167.03 477.02 C 167.03 465.25 166.58 453.74 167.98 442.05 C 165.37 437.21 164.33 433.91 169.66 430.62 C 170.74 421.05 169.25 410.96 170.34 401.39 C 171.79 399.65 175.68 398.64 173.00 396.01 C 170.83 393.29 164.35 385.43 170.68 383.76 C 177.38 383.22 171.75 371.62 174.88 369.25 Z" fill="#ffff89" />
<path d="M 277.78 369.31 C 281.25 369.05 284.72 368.90 288.19 368.85 C 308.45 369.19 328.74 368.92 349.00 369.00 C 344.02 371.13 337.40 369.51 332.00 370.00 C 314.08 369.55 295.54 370.91 277.78 369.31 Z" fill="#4e4f4b" />
<path d="M 143.02 371.00 L 143.97 371.00 C 143.87 375.64 144.58 380.82 143.26 385.27 C 142.94 380.52 142.94 375.76 143.02 371.00 Z" fill="#586824" />
<path d="M 398.23 381.06 C 399.80 383.39 399.57 385.60 398.32 388.00 C 397.63 385.45 397.64 383.62 398.23 381.06 Z" fill="#7c7c7c" />
<path d="M 261.75 381.79 C 262.02 385.30 262.02 388.69 261.78 392.20 C 260.54 389.13 260.60 384.88 261.75 381.79 Z" fill="#717158" />
<path d="M 154.04 383.98 L 154.99 384.00 L 155.31 385.77 C 154.90 390.59 155.07 395.41 154.75 400.23 C 153.31 395.10 154.21 389.29 154.04 383.98 Z" fill="#586e2a" />
<path d="M 142.25 385.80 L 143.05 386.21 C 142.79 391.24 143.58 396.48 142.31 401.23 C 141.86 396.09 141.86 390.95 142.25 385.80 Z" fill="#839955" />
<path d="M 155.31 385.77 C 156.92 407.78 155.54 430.80 156.00 453.00 C 155.53 470.57 156.95 488.83 155.28 506.22 L 155.05 504.10 C 154.85 497.31 155.25 490.56 154.75 483.77 C 155.17 455.97 155.16 428.03 154.75 400.23 C 155.07 395.41 154.90 390.59 155.31 385.77 Z" fill="#c0d188" />
<path d="M 263.94 396.99 C 265.72 397.52 266.09 398.13 266.09 399.97 C 264.27 399.44 263.94 398.86 263.94 396.99 Z" fill="#7c7d68" />
<path d="M 333.02 403.01 L 333.00 403.99 L 331.22 404.34 C 328.74 404.13 326.26 403.89 323.78 403.71 C 326.83 402.85 329.89 402.90 333.02 403.01 Z" fill="#484944" />
<path d="M 333.02 403.01 C 340.31 403.14 347.66 402.69 354.92 403.22 C 354.94 404.25 354.77 405.20 354.41 406.08 C 353.85 403.42 352.12 404.25 350.02 403.97 C 344.35 403.98 338.67 404.01 333.00 403.99 L 333.02 403.01 Z" fill="#959594" />
<path d="M 307.91 404.15 L 307.94 404.80 L 306.27 405.34 C 304.52 405.24 302.78 404.99 301.05 404.73 C 303.33 403.62 305.48 403.72 307.91 404.15 Z" fill="#4e4e42" />
<path d="M 307.91 404.15 C 313.22 403.85 318.51 404.25 323.78 403.71 C 326.26 403.89 328.74 404.13 331.22 404.34 C 323.69 405.70 315.58 404.85 307.94 404.80 L 307.91 404.15 Z" fill="#a9aaa5" />
<path d="M 331.22 404.34 L 333.00 403.99 C 338.67 404.01 344.35 403.98 350.02 403.97 C 352.12 404.25 353.85 403.42 354.41 406.08 C 340.58 433.95 328.17 462.75 315.31 491.11 C 312.64 491.18 313.32 493.27 312.09 495.03 C 311.14 490.34 314.52 488.06 315.44 484.00 C 315.17 479.19 315.66 477.47 318.76 473.77 C 321.39 468.35 324.86 455.33 324.73 449.30 C 322.16 446.64 315.73 448.14 313.11 444.91 C 310.88 442.35 308.43 440.36 305.83 438.21 C 301.51 428.04 305.97 415.56 304.13 406.01 C 304.85 405.79 305.56 405.57 306.27 405.34 L 307.94 404.80 C 315.58 404.85 323.69 405.70 331.22 404.34 Z" fill="#fbfcf6" />
<path d="M 274.04 405.23 C 276.25 404.66 278.10 404.30 280.02 405.84 C 277.84 406.32 275.96 406.66 274.04 405.23 Z" fill="#61634d" />
<path d="M 301.05 404.73 C 302.78 404.99 304.52 405.24 306.27 405.34 C 305.56 405.57 304.85 405.79 304.13 406.01 C 298.66 406.05 293.24 405.80 287.78 406.31 C 286.45 406.09 285.12 405.87 283.79 405.66 C 289.39 404.30 295.26 405.46 301.05 404.73 Z" fill="#a5a590" />
<path d="M 287.78 406.31 C 293.24 405.80 298.66 406.05 304.13 406.01 C 305.97 415.56 301.51 428.04 305.83 438.21 C 308.43 440.36 310.88 442.35 313.11 444.91 C 315.73 448.14 322.16 446.64 324.73 449.30 C 324.86 455.33 321.39 468.35 318.76 473.77 C 315.66 477.47 315.17 479.19 315.44 484.00 C 314.52 488.06 311.14 490.34 312.09 495.03 C 313.32 493.27 312.64 491.18 315.31 491.11 C 308.21 507.52 302.41 524.28 295.89 540.91 C 294.38 544.04 294.79 547.77 295.70 551.02 L 295.85 551.68 C 294.76 554.41 295.00 560.04 290.98 559.94 C 287.25 560.49 284.71 561.47 281.58 563.55 C 275.88 567.28 267.21 565.60 262.47 570.46 C 258.67 572.86 253.74 571.25 249.58 573.45 C 242.61 576.79 235.34 577.37 227.74 577.51 C 216.09 582.77 200.98 581.05 188.83 577.23 C 181.98 576.36 178.77 570.51 172.17 568.81 C 170.72 568.21 168.18 568.03 167.29 566.67 C 164.27 563.09 170.08 558.44 167.25 554.72 C 164.15 550.16 161.53 555.67 159.25 549.23 C 157.33 554.84 156.74 559.86 156.92 565.78 L 156.29 566.42 C 156.21 564.94 156.04 563.48 155.80 562.05 C 155.91 556.75 156.62 550.95 155.29 545.78 C 154.88 542.19 154.93 538.59 155.21 534.99 C 156.20 533.35 156.35 531.80 156.28 529.91 C 162.34 523.07 157.73 536.06 163.34 536.65 C 171.06 539.11 169.04 547.96 173.68 553.29 C 176.58 556.90 175.65 560.46 176.30 564.68 C 181.15 567.53 184.65 571.73 189.09 574.91 C 198.55 576.37 205.38 580.87 215.17 578.36 C 225.02 575.76 234.85 575.77 243.62 570.66 C 255.40 568.28 266.76 565.52 277.88 560.88 C 281.50 559.34 286.85 560.86 288.65 556.54 C 291.15 553.35 291.28 551.22 290.36 547.40 C 290.30 545.71 287.99 543.62 290.63 543.20 C 291.07 537.35 293.52 532.51 294.87 526.95 C 296.46 521.90 296.77 512.45 302.51 510.42 C 303.38 506.17 303.03 502.45 306.30 499.09 C 307.28 493.62 307.31 486.85 305.29 481.64 C 299.94 476.93 307.31 469.90 308.85 465.07 C 306.43 463.59 303.49 464.88 303.97 461.02 C 304.57 456.60 310.14 454.98 310.91 449.98 C 308.40 445.15 303.46 444.13 302.78 438.17 C 299.86 431.07 298.68 421.01 300.91 413.86 C 304.34 409.65 303.46 408.34 298.22 407.65 C 294.76 406.84 291.23 407.16 287.78 406.31 Z" fill="#fcfdde" />
<path d="M 505.02 406.00 L 505.97 406.00 C 505.62 410.75 507.03 416.64 505.00 421.00 C 505.06 416.00 504.95 411.00 505.02 406.00 Z" fill="#6e8981" />
<path d="M 141.70 406.77 C 141.91 409.51 142.04 412.25 141.99 415.00 L 141.00 415.00 C 140.88 412.21 140.96 409.48 141.70 406.77 Z" fill="#a3b976" />
<path d="M 270.87 407.15 C 279.69 408.72 289.28 408.00 298.22 407.65 C 301.55 412.12 297.71 413.09 296.16 417.12 C 295.73 427.70 296.14 438.40 296.00 449.00 C 295.78 454.86 296.89 460.00 294.61 465.43 C 293.70 470.88 288.41 472.34 288.98 477.99 C 286.86 491.42 288.98 505.02 287.49 518.40 C 286.96 525.01 279.15 525.47 279.96 531.98 C 278.98 539.53 283.51 548.98 274.04 552.06 C 271.47 553.63 262.39 560.71 270.99 560.47 C 266.21 562.30 261.39 561.97 256.83 564.72 C 250.39 564.80 243.52 566.69 237.96 569.94 C 227.50 572.32 215.23 577.73 204.33 576.67 C 198.55 573.45 192.43 572.84 187.36 568.61 C 184.56 561.71 177.73 554.25 175.44 546.63 C 174.42 539.73 168.09 536.38 165.04 529.88 C 161.30 527.08 160.47 524.36 158.72 520.22 C 156.17 522.08 155.90 524.39 155.23 527.28 C 155.07 524.27 154.95 521.26 155.14 518.25 C 157.53 517.55 156.71 509.05 158.13 513.90 C 162.50 524.80 172.46 533.58 177.04 544.03 C 180.87 548.22 182.60 558.00 188.12 559.94 C 193.77 561.62 191.10 553.63 196.03 556.97 C 200.08 558.56 195.59 559.77 194.21 561.32 C 199.57 564.83 204.68 569.54 211.27 566.56 C 215.00 567.17 224.05 564.27 224.52 569.60 C 228.21 569.22 237.20 567.39 238.92 564.33 C 234.38 564.15 229.77 565.21 225.28 564.79 C 222.68 562.83 224.29 556.90 225.31 554.28 C 229.80 553.76 235.14 553.81 239.63 554.24 C 240.18 558.11 240.26 561.84 245.28 559.29 C 246.97 555.63 245.33 549.51 246.26 545.31 C 249.36 544.41 252.51 544.19 255.68 543.67 C 256.60 540.48 254.66 537.51 259.26 537.55 C 267.03 537.68 267.55 531.67 271.68 526.69 C 272.30 521.08 272.15 514.93 271.76 509.28 C 269.15 506.89 263.80 507.00 261.85 504.00 C 263.80 500.98 269.21 501.12 271.78 498.68 C 273.01 495.81 268.32 496.07 270.26 493.40 C 271.78 490.98 271.47 486.50 273.73 484.87 C 278.20 483.97 282.43 482.36 286.92 481.62 C 282.35 479.79 279.23 476.58 276.04 472.98 C 278.56 470.38 281.54 468.49 284.51 466.46 C 285.86 464.21 282.77 461.69 285.47 459.47 C 288.45 457.13 289.76 448.88 285.71 447.26 C 281.42 446.05 287.89 441.79 288.99 439.99 C 292.70 436.75 290.31 432.12 290.10 428.01 C 289.88 422.99 290.62 418.73 288.09 414.11 C 292.39 414.45 295.35 415.63 297.94 411.18 C 291.78 406.93 281.06 409.71 273.80 409.23 C 272.71 408.81 271.78 407.88 270.87 407.15 Z" fill="#ffffbd" />
<path d="M 298.22 407.65 C 303.46 408.34 304.34 409.65 300.91 413.86 C 298.68 421.01 299.86 431.07 302.78 438.17 C 303.46 444.13 308.40 445.15 310.91 449.98 C 310.14 454.98 304.57 456.60 303.97 461.02 C 303.49 464.88 306.43 463.59 308.85 465.07 C 307.31 469.90 299.94 476.93 305.29 481.64 C 307.31 486.85 307.28 493.62 306.30 499.09 C 303.03 502.45 303.38 506.17 302.51 510.42 C 296.77 512.45 296.46 521.90 294.87 526.95 C 293.52 532.51 291.07 537.35 290.63 543.20 C 287.99 543.62 290.30 545.71 290.36 547.40 C 291.28 551.22 291.15 553.35 288.65 556.54 C 286.85 560.86 281.50 559.34 277.88 560.88 C 266.76 565.52 255.40 568.28 243.62 570.66 C 234.85 575.77 225.02 575.76 215.17 578.36 C 205.38 580.87 198.55 576.37 189.09 574.91 C 184.65 571.73 181.15 567.53 176.30 564.68 C 175.65 560.46 176.58 556.90 173.68 553.29 C 169.04 547.96 171.06 539.11 163.34 536.65 C 157.73 536.06 162.34 523.07 156.28 529.91 C 155.94 529.30 155.58 528.70 155.22 528.11 L 155.23 527.28 C 155.90 524.39 156.17 522.08 158.72 520.22 C 160.47 524.36 161.30 527.08 165.04 529.88 C 168.09 536.38 174.42 539.73 175.44 546.63 C 177.73 554.25 184.56 561.71 187.36 568.61 C 192.43 572.84 198.55 573.45 204.33 576.67 C 215.23 577.73 227.50 572.32 237.96 569.94 C 243.52 566.69 250.39 564.80 256.83 564.72 C 261.39 561.97 266.21 562.30 270.99 560.47 C 262.39 560.71 271.47 553.63 274.04 552.06 C 283.51 548.98 278.98 539.53 279.96 531.98 C 279.15 525.47 286.96 525.01 287.49 518.40 C 288.98 505.02 286.86 491.42 288.98 477.99 C 288.41 472.34 293.70 470.88 294.61 465.43 C 296.89 460.00 295.78 454.86 296.00 449.00 C 296.14 438.40 295.73 427.70 296.16 417.12 C 297.71 413.09 301.55 412.12 298.22 407.65 Z" fill="#ffffcc" />
<path d="M 242.80 412.07 C 245.32 415.51 248.82 417.44 252.35 419.64 C 256.95 422.26 260.68 429.87 257.90 434.89 C 256.06 439.01 256.57 444.15 252.26 446.27 C 248.68 449.00 245.23 447.38 241.27 448.36 C 236.91 451.15 230.29 449.95 225.32 449.72 C 220.88 444.11 217.64 438.61 214.73 432.20 C 212.86 431.50 209.51 433.38 208.26 431.71 C 207.65 426.40 207.67 420.70 209.29 415.56 C 213.41 415.23 217.59 415.77 221.72 415.45 C 227.11 410.70 235.59 414.39 242.80 412.07 Z" fill="#ffff7d" />
<path d="M 141.00 415.00 L 141.99 415.00 C 142.02 419.75 142.13 424.44 141.73 429.18 L 140.85 428.81 L 140.75 427.77 C 141.12 423.50 141.01 419.28 141.00 415.00 Z" fill="#526c2c" />
<path d="M 505.00 421.00 C 504.97 432.67 505.05 444.33 504.98 456.00 L 504.03 456.00 C 504.62 444.75 502.70 431.80 505.00 421.00 Z" fill="#bad1cb" />
<path d="M 520.75 420.77 C 521.27 431.82 520.90 442.93 520.98 454.00 L 520.03 454.00 C 520.43 443.06 519.06 431.53 520.75 420.77 Z" fill="#354c48" />
<path d="M 183.30 424.24 C 187.14 422.59 186.08 431.17 189.90 432.14 C 194.11 433.51 189.75 440.19 194.99 439.96 C 200.50 439.33 207.27 442.60 209.60 435.97 C 210.59 441.02 210.93 447.53 216.08 450.07 C 215.36 453.03 209.44 452.89 207.83 456.00 C 209.34 459.43 212.68 456.89 215.20 456.37 C 218.89 455.89 222.33 456.67 225.71 458.14 C 230.08 459.37 235.51 457.43 239.74 459.23 C 240.62 464.74 240.26 468.26 236.65 472.61 C 234.00 480.65 228.95 490.47 220.38 493.56 C 222.98 499.75 217.84 502.82 217.70 509.86 C 216.35 516.54 210.90 517.95 206.59 523.62 C 202.03 524.61 196.97 523.52 192.30 524.21 C 191.64 526.77 192.78 529.89 189.97 531.19 C 188.03 529.49 188.71 528.46 189.24 526.36 C 184.40 521.19 178.94 517.82 175.86 511.09 C 168.71 503.32 163.13 490.76 170.28 481.32 C 172.73 475.28 168.45 467.72 173.49 462.55 C 175.20 458.78 172.06 453.44 173.11 449.23 C 179.09 446.31 173.91 437.40 176.83 432.89 C 182.34 431.33 180.10 427.50 183.30 424.24 Z" fill="#ffff7f" />
<path d="M 144.42 425.88 C 145.22 431.26 142.61 437.12 144.75 442.02 C 143.72 450.69 143.10 459.37 141.99 468.04 C 141.25 470.97 146.06 471.23 145.80 474.58 C 137.86 475.02 143.18 484.17 146.46 487.29 C 142.95 490.81 143.86 489.74 146.89 493.03 C 145.83 493.96 141.12 497.69 143.66 498.44 C 149.06 497.19 140.92 502.73 145.09 504.95 C 147.36 507.22 147.19 506.65 144.26 506.54 C 142.83 512.97 142.97 517.57 144.16 524.00 C 143.44 531.24 144.68 537.66 145.15 545.30 C 142.90 548.74 145.09 558.02 149.91 557.96 C 149.20 556.28 148.12 555.01 148.08 553.10 C 150.95 552.95 150.57 553.47 151.55 555.87 C 153.64 554.05 151.87 551.16 153.95 548.92 L 154.96 548.95 C 154.97 553.32 154.97 557.69 155.17 562.06 C 154.66 564.31 154.65 565.87 155.67 567.96 C 155.92 570.50 156.03 573.04 156.13 575.58 C 152.66 576.60 146.59 582.74 143.97 577.97 C 144.12 574.53 144.17 571.14 143.35 567.77 C 143.17 566.50 143.00 565.24 142.84 563.97 C 142.79 558.07 143.80 551.53 142.23 545.81 L 141.77 544.19 C 141.90 541.46 142.02 538.74 142.00 536.01 C 141.98 532.44 142.48 529.18 141.11 525.82 C 141.18 523.88 141.18 521.97 140.86 520.05 C 140.78 515.53 141.82 510.17 140.14 505.89 L 139.87 505.11 C 140.08 487.39 140.09 469.61 139.87 451.89 L 140.13 451.11 C 141.81 446.84 140.74 441.54 140.98 437.00 C 141.03 434.27 141.02 431.54 140.85 428.81 L 141.73 429.18 C 143.86 430.80 142.28 426.12 144.42 425.88 Z" fill="#153f04" />
<path d="M 140.75 427.77 L 140.85 428.81 C 141.02 431.54 141.03 434.27 140.98 437.00 L 140.00 437.00 C 139.92 433.86 139.80 430.81 140.75 427.77 Z" fill="#9cb074" />
<path d="M 131.80 433.11 C 133.29 438.64 129.04 446.96 135.59 449.40 C 137.86 457.53 136.90 466.60 136.88 474.98 C 133.99 482.52 136.56 488.20 129.23 493.78 C 127.55 491.61 126.62 489.15 124.11 487.87 C 118.96 485.48 120.19 479.31 113.32 479.25 C 112.52 480.39 111.88 481.65 111.06 482.79 C 106.91 481.00 103.34 480.40 100.49 476.54 C 93.19 472.66 92.11 463.65 95.57 456.62 C 97.63 448.49 103.49 446.74 110.01 442.99 C 113.51 441.84 118.83 443.18 122.25 441.20 C 127.61 438.08 123.94 432.15 131.80 433.11 Z" fill="#feffbb" />
<path d="M 140.00 437.00 L 140.98 437.00 C 140.74 441.54 141.81 446.84 140.13 451.11 C 140.00 446.40 139.96 441.71 140.00 437.00 Z" fill="#4f682b" />
<path d="M 377.95 437.07 C 378.23 439.53 378.01 440.39 376.04 441.92 C 375.77 439.46 376.00 438.62 377.95 437.07 Z" fill="#787878" />
<path d="M 374.51 445.94 C 377.53 448.42 379.53 446.44 382.39 450.60 C 388.54 452.26 391.80 456.71 395.99 461.13 C 396.51 464.99 386.83 463.65 386.15 466.16 C 385.59 480.95 386.49 495.94 385.73 510.70 C 378.89 511.79 379.07 517.76 373.51 521.52 C 372.36 523.47 365.21 525.44 369.31 527.64 C 373.75 528.33 378.24 528.77 382.72 529.20 C 382.52 531.30 375.46 528.32 376.00 532.00 C 376.06 535.71 370.26 532.39 368.62 535.64 C 366.44 538.92 363.65 537.63 360.29 538.28 C 360.03 540.10 359.97 541.94 359.71 543.76 C 357.24 544.06 354.69 543.95 352.20 544.23 C 351.62 549.36 352.37 554.67 351.80 559.80 C 346.67 560.37 341.36 559.62 336.23 560.20 C 335.95 562.70 336.05 565.28 335.77 567.77 C 333.28 568.05 330.70 567.95 328.20 568.22 C 327.83 573.08 327.83 578.92 328.20 583.77 C 330.70 584.05 333.29 583.95 335.77 584.23 C 335.98 586.12 335.98 588.07 336.08 589.99 C 334.73 594.29 345.17 589.82 343.82 593.74 C 338.34 594.44 333.44 594.68 327.95 594.10 C 331.48 595.66 335.41 596.41 339.03 597.89 C 350.68 597.92 362.63 599.59 374.24 600.73 C 368.14 601.17 362.07 600.96 355.97 601.03 C 355.05 600.92 354.14 600.80 353.23 600.68 C 346.03 599.23 338.30 600.33 330.97 600.03 C 330.05 599.93 329.14 599.81 328.23 599.70 C 308.18 598.08 287.22 599.46 267.00 599.00 C 258.20 599.54 248.40 597.89 239.89 599.87 L 239.11 600.13 C 219.68 599.97 200.20 599.81 180.78 600.21 L 179.99 600.00 C 178.87 598.39 177.56 598.62 175.91 599.23 C 167.26 596.83 159.36 590.45 157.77 581.24 C 158.13 576.02 156.56 571.03 156.92 565.78 C 156.74 559.86 157.33 554.84 159.25 549.23 C 161.53 555.67 164.15 550.16 167.25 554.72 C 170.08 558.44 164.27 563.09 167.29 566.67 C 168.18 568.03 170.72 568.21 172.17 568.81 C 178.77 570.51 181.98 576.36 188.83 577.23 C 200.98 581.05 216.09 582.77 227.74 577.51 C 235.34 577.37 242.61 576.79 249.58 573.45 C 253.74 571.25 258.67 572.86 262.47 570.46 C 267.21 565.60 275.88 567.28 281.58 563.55 C 284.71 561.47 287.25 560.49 290.98 559.94 C 295.00 560.04 294.76 554.41 295.85 551.68 C 299.70 556.17 302.79 560.47 308.79 562.25 C 312.07 563.35 316.93 563.61 320.11 562.14 C 330.47 557.78 332.99 548.28 336.74 538.70 C 348.76 507.64 361.80 476.74 374.51 445.94 Z" fill="#fdfdf7" />
<path d="M 113.34 452.70 C 118.18 456.60 123.07 460.02 124.04 466.88 C 121.30 470.94 116.89 470.94 112.86 472.83 C 111.57 475.12 110.31 479.59 107.70 475.30 C 104.23 468.80 96.24 472.95 96.03 464.98 C 94.64 457.19 100.45 454.91 104.41 449.39 C 108.91 446.77 112.39 446.97 113.34 452.70 Z" fill="#feffab" />
<path d="M 139.87 451.89 C 140.09 469.61 140.08 487.39 139.87 505.11 C 138.08 500.20 139.36 494.19 139.00 489.00 C 139.56 476.91 137.86 463.67 139.87 451.89 Z" fill="#9dae72" />
<path d="M 520.03 454.00 L 520.98 454.00 C 520.52 461.82 522.07 470.55 520.13 478.08 L 519.87 476.92 C 520.15 469.29 519.91 461.64 520.03 454.00 Z" fill="#859591" />
<path d="M 504.03 456.00 L 504.98 456.00 C 505.02 468.00 505.02 480.00 504.97 492.00 L 504.03 492.00 C 503.98 480.00 503.98 468.00 504.03 456.00 Z" fill="#6d847e" />
<path d="M 226.33 467.66 C 231.96 469.11 229.77 474.45 229.84 478.88 C 227.43 484.56 222.52 486.80 217.44 489.45 C 213.45 494.23 216.22 500.51 211.78 504.77 C 209.24 506.96 209.09 512.04 205.92 513.00 C 201.43 513.67 204.23 505.08 200.04 504.07 C 193.41 506.76 191.47 508.32 191.79 515.89 C 186.40 513.08 185.61 506.72 179.96 505.10 C 172.58 504.14 169.75 494.30 170.08 488.10 C 174.42 483.09 177.14 477.54 183.15 475.09 C 186.14 474.36 188.62 478.64 191.66 478.50 C 195.65 478.65 198.39 481.01 202.62 479.69 C 205.14 474.81 204.44 469.39 206.35 464.47 C 211.82 463.62 215.93 460.40 221.65 460.57 C 225.79 459.75 222.11 466.99 226.33 467.66 Z" fill="#feff72" />
<path d="M 519.87 476.92 L 520.13 478.08 C 519.85 485.38 520.09 492.70 519.97 500.00 L 519.02 500.00 C 519.47 492.51 517.94 484.12 519.87 476.92 Z" fill="#2a433b" />
<path d="M 154.75 483.77 C 155.25 490.56 154.85 497.31 155.05 504.10 L 154.03 503.97 C 154.31 497.34 153.19 490.23 154.75 483.77 Z" fill="#405613" />
<path d="M 504.03 492.00 L 504.97 492.00 C 505.17 499.24 504.66 506.55 505.29 513.77 C 505.10 514.92 504.90 516.08 504.70 517.23 C 503.18 509.07 504.35 500.31 504.03 492.00 Z" fill="#c7d4d2" />
<path d="M 519.02 500.00 L 519.97 500.00 C 520.01 519.67 520.02 539.33 519.97 559.00 L 519.02 559.00 C 518.99 539.33 518.98 519.67 519.02 500.00 Z" fill="#62736f" />
<path d="M 154.03 503.97 L 155.05 504.10 L 155.28 506.22 C 154.85 510.23 154.98 514.23 155.14 518.25 C 154.95 521.26 155.07 524.27 155.23 527.28 L 155.22 528.11 C 154.65 530.61 154.64 532.48 155.21 534.99 C 154.93 538.59 154.88 542.19 155.29 545.78 C 155.19 546.84 155.08 547.90 154.96 548.95 L 153.95 548.92 C 154.09 533.94 153.92 518.95 154.03 503.97 Z" fill="#8aa164" />
<path d="M 140.14 505.89 C 141.82 510.17 140.78 515.53 140.86 520.05 L 140.22 520.04 C 140.07 519.10 139.92 518.16 139.76 517.22 C 139.91 513.44 140.12 509.67 140.14 505.89 Z" fill="#60783d" />
<path d="M 505.29 513.77 C 506.15 516.81 506.10 519.87 506.01 523.00 L 505.06 523.00 C 504.99 521.07 504.87 519.15 504.70 517.23 C 504.90 516.08 505.10 514.92 505.29 513.77 Z" fill="#657471" />
<path d="M 140.22 520.04 L 140.86 520.05 C 141.18 521.97 141.18 523.88 141.11 525.82 C 139.16 524.16 139.74 522.23 140.22 520.04 Z" fill="#acbe87" />
<path d="M 505.06 523.00 L 506.01 523.00 C 505.99 527.73 505.88 532.42 506.26 537.14 L 505.56 539.01 C 504.52 533.88 505.11 528.25 505.06 523.00 Z" fill="#c4cdcc" />
<path d="M 141.11 525.82 C 142.48 529.18 141.98 532.44 142.00 536.01 L 141.01 535.97 C 140.94 534.72 140.87 533.46 140.78 532.21 C 140.88 530.08 141.03 527.95 141.11 525.82 Z" fill="#556e39" />
<path d="M 155.22 528.11 C 155.58 528.70 155.94 529.30 156.28 529.91 C 156.35 531.80 156.20 533.35 155.21 534.99 C 154.64 532.48 154.65 530.61 155.22 528.11 Z" fill="#e9fac4" />
<path d="M 141.01 535.97 L 142.00 536.01 C 142.02 538.74 141.90 541.46 141.77 544.19 C 140.79 541.48 140.98 538.79 141.01 535.97 Z" fill="#9cb388" />
<path d="M 506.26 537.14 C 507.42 539.36 507.20 541.53 506.83 543.91 L 506.24 543.91 C 505.97 542.28 505.76 540.65 505.56 539.01 L 506.26 537.14 Z" fill="#636f6d" />
<path d="M 295.89 540.91 C 296.01 544.29 296.00 547.64 295.70 551.02 C 294.79 547.77 294.38 544.04 295.89 540.91 Z" fill="#727262" />
<path d="M 506.24 543.91 L 506.83 543.91 C 507.14 549.22 506.79 554.52 507.26 559.81 L 506.74 562.18 C 505.27 556.36 506.13 549.87 506.24 543.91 Z" fill="#c5d1ce" />
<path d="M 142.23 545.81 C 143.80 551.53 142.79 558.07 142.84 563.97 L 141.76 564.29 C 142.23 558.14 141.79 551.98 142.23 545.81 Z" fill="#5f7645" />
<path d="M 155.29 545.78 C 156.62 550.95 155.91 556.75 155.80 562.05 L 155.17 562.06 C 154.97 557.69 154.97 553.32 154.96 548.95 C 155.08 547.90 155.19 546.84 155.29 545.78 Z" fill="#c4d9a9" />
<path d="M 519.02 559.00 L 519.97 559.00 C 519.93 563.49 520.50 568.00 519.27 572.23 C 518.94 567.82 518.95 563.41 519.02 559.00 Z" fill="#a5b1af" />
<path d="M 507.26 559.81 C 508.52 565.18 508.32 571.82 507.35 577.24 C 506.79 572.22 507.19 567.20 506.74 562.18 L 507.26 559.81 Z" fill="#6e817e" />
<path d="M 155.17 562.06 L 155.80 562.05 C 156.04 563.48 156.21 564.94 156.29 566.42 L 155.67 567.96 C 154.65 565.87 154.66 564.31 155.17 562.06 Z" fill="#6c8355" />
<path d="M 308.79 562.25 C 312.58 561.97 316.32 561.97 320.11 562.14 C 316.93 563.61 312.07 563.35 308.79 562.25 Z" fill="#666761" />
<path d="M 141.76 564.29 L 142.84 563.97 C 143.00 565.24 143.17 566.50 143.35 567.77 C 143.13 569.25 142.92 570.74 142.72 572.23 C 142.05 569.62 141.91 566.97 141.76 564.29 Z" fill="#b3c4a3" />
<path d="M 156.29 566.42 L 156.92 565.78 C 156.56 571.03 158.13 576.02 157.77 581.24 C 157.23 579.35 156.71 577.46 156.13 575.58 C 156.03 573.04 155.92 570.50 155.67 567.96 L 156.29 566.42 Z" fill="#b6c7ac" />
<path d="M 143.35 567.77 C 144.17 571.14 144.12 574.53 143.97 577.97 C 143.87 579.05 143.77 580.13 143.67 581.22 C 143.35 579.91 143.06 578.59 142.74 577.29 C 142.77 575.60 142.78 573.91 142.72 572.23 C 142.92 570.74 143.13 569.25 143.35 567.77 Z" fill="#4f6346" />
<path d="M 156.13 575.58 C 156.71 577.46 157.23 579.35 157.77 581.24 C 159.36 590.45 167.26 596.83 175.91 599.23 C 177.24 600.42 178.33 600.37 179.99 600.00 L 180.78 600.21 C 183.50 601.20 186.22 601.04 189.06 601.04 L 188.89 601.90 C 182.10 602.80 190.00 603.09 191.94 603.26 C 187.71 608.32 195.22 605.04 198.02 606.05 C 203.19 605.41 194.98 610.34 198.17 611.81 C 201.10 615.84 207.71 611.39 209.26 616.83 C 205.51 617.03 201.76 617.01 198.00 617.03 C 193.30 616.93 188.60 617.01 183.89 617.13 L 183.11 616.87 C 179.69 615.32 176.35 616.10 172.75 616.38 C 155.64 612.27 146.01 598.04 143.67 581.22 C 143.77 580.13 143.87 579.05 143.97 577.97 C 146.59 582.74 152.66 576.60 156.13 575.58 Z" fill="#0a2c1f" />
<path d="M 518.87 579.93 C 519.39 581.62 519.46 582.71 518.25 584.10 C 517.62 582.43 517.44 581.22 518.87 579.93 Z" fill="#808a89" />
<path d="M 175.91 599.23 C 177.56 598.62 178.87 598.39 179.99 600.00 C 178.33 600.37 177.24 600.42 175.91 599.23 Z" fill="#a1b0ad" />
<path d="M 267.00 599.00 C 287.22 599.46 308.18 598.08 328.23 599.70 C 324.08 600.01 319.92 600.01 315.77 600.25 C 290.53 599.58 265.16 600.34 239.89 599.87 C 248.40 597.89 258.20 599.54 267.00 599.00 Z" fill="#aebda1" />
<path d="M 488.08 599.38 C 486.39 600.34 484.84 600.37 482.97 600.09 C 484.46 598.21 486.08 598.64 488.08 599.38 Z" fill="#a9b5b3" />
<path d="M 180.78 600.21 C 200.20 599.81 219.68 599.97 239.11 600.13 C 233.59 602.06 227.04 600.34 221.23 601.25 C 210.53 600.74 199.77 601.07 189.06 601.04 C 186.22 601.04 183.50 601.20 180.78 600.21 Z" fill="#b3c6aa" />
<path d="M 239.11 600.13 L 239.89 599.87 C 265.16 600.34 290.53 599.58 315.77 600.25 C 320.56 601.63 326.05 600.83 331.02 600.97 C 335.30 601.03 339.50 600.85 343.77 601.27 C 347.92 602.44 351.77 601.97 356.02 601.97 C 359.34 602.01 362.66 601.98 365.98 602.01 C 366.57 602.85 367.17 603.71 367.69 604.60 C 362.62 604.92 361.84 612.00 358.03 615.03 C 351.88 620.19 342.19 617.86 335.79 620.80 C 334.20 620.90 332.61 620.98 331.01 621.04 C 327.41 621.05 323.82 621.06 320.23 620.71 C 304.46 619.11 287.93 620.39 272.00 620.05 C 269.41 620.03 266.81 619.96 264.23 619.70 C 257.72 618.25 250.66 619.29 244.00 619.02 C 240.00 618.96 236.00 619.06 232.00 619.00 C 227.33 616.89 221.08 618.50 216.00 618.00 C 213.85 616.84 211.62 616.95 209.26 616.83 C 207.71 611.39 201.10 615.84 198.17 611.81 C 194.98 610.34 203.19 605.41 198.02 606.05 C 195.22 605.04 187.71 608.32 191.94 603.26 C 190.00 603.09 182.10 602.80 188.89 601.90 C 199.52 601.66 210.77 602.90 221.23 601.25 C 227.04 600.34 233.59 602.06 239.11 600.13 Z" fill="#073205" />
<path d="M 315.77 600.25 C 319.92 600.01 324.08 600.01 328.23 599.70 C 329.14 599.81 330.05 599.93 330.97 600.03 L 331.02 600.97 C 326.05 600.83 320.56 601.63 315.77 600.25 Z" fill="#517048" />
<path d="M 330.97 600.03 C 338.30 600.33 346.03 599.23 353.23 600.68 C 350.08 600.91 346.93 601.10 343.77 601.27 C 339.50 600.85 335.30 601.03 331.02 600.97 L 330.97 600.03 Z" fill="#acc5a5" />
<path d="M 482.97 600.09 C 480.80 601.70 478.67 601.22 476.19 601.06 C 478.16 599.00 480.47 599.85 482.97 600.09 Z" fill="#acb8b6" />
<path d="M 189.06 601.04 C 199.77 601.07 210.53 600.74 221.23 601.25 C 210.77 602.90 199.52 601.66 188.89 601.90 L 189.06 601.04 Z" fill="#435937" />
<path d="M 343.77 601.27 C 346.93 601.10 350.08 600.91 353.23 600.68 C 354.14 600.80 355.05 600.92 355.97 601.03 L 356.02 601.97 C 351.77 601.97 347.92 602.44 343.77 601.27 Z" fill="#44623e" />
<path d="M 355.97 601.03 C 362.07 600.96 368.14 601.17 374.24 600.73 C 375.21 600.99 376.19 601.27 377.16 601.55 C 376.12 601.78 375.09 602.02 374.06 602.28 C 371.37 602.05 368.68 601.98 365.98 602.01 C 362.66 601.98 359.34 602.01 356.02 601.97 L 355.97 601.03 Z" fill="#acbaaa" />
<path d="M 476.19 601.06 C 472.83 602.64 468.71 601.84 465.00 602.00 C 468.16 600.23 472.65 601.21 476.19 601.06 Z" fill="#a1b1ae" />
<path d="M 374.06 602.28 C 375.09 602.02 376.12 601.78 377.16 601.55 C 378.09 601.77 379.01 602.00 379.93 602.23 L 379.92 602.86 C 377.75 603.27 376.07 603.28 374.06 602.28 Z" fill="#556863" />
<path d="M 379.93 602.23 C 386.90 602.36 395.42 600.84 402.00 603.00 C 394.63 602.92 387.29 603.15 379.92 602.86 L 379.93 602.23 Z" fill="#a8b9b5" />
<path d="M 465.00 602.00 C 461.20 603.93 456.13 602.54 451.94 603.30 C 450.56 603.03 449.17 602.78 447.78 602.56 C 453.33 601.41 459.34 602.26 465.00 602.00 Z" fill="#a8b5b5" />
<path d="M 402.00 603.00 C 416.35 603.14 430.74 602.72 445.08 603.21 L 445.09 603.84 C 433.40 604.22 421.69 603.86 410.00 604.03 C 407.15 603.97 404.60 604.45 402.00 603.00 Z" fill="#93a5a3" />
<path d="M 445.08 603.21 C 445.97 602.97 446.87 602.75 447.78 602.56 C 449.17 602.78 450.56 603.03 451.94 603.30 C 449.66 604.32 447.51 604.24 445.09 603.84 L 445.08 603.21 Z" fill="#5f706f" />
<path d="M 172.75 616.38 C 176.35 616.10 179.69 615.32 183.11 616.87 C 179.58 616.98 176.21 617.29 172.75 616.38 Z" fill="#566661" />
<path d="M 183.89 617.13 C 188.60 617.01 193.30 616.93 198.00 617.03 L 198.00 617.97 C 193.47 617.75 188.16 618.81 183.89 617.13 Z" fill="#96a09b" />
<path d="M 198.00 617.03 C 201.76 617.01 205.51 617.03 209.26 616.83 C 211.62 616.95 213.85 616.84 216.00 618.00 C 210.00 617.95 204.00 618.06 198.00 617.97 L 198.00 617.03 Z" fill="#556757" />
<path d="M 492.11 617.33 C 490.72 618.35 489.63 618.39 487.98 618.07 C 489.05 616.35 490.48 616.65 492.11 617.33 Z" fill="#61726f" />
<path d="M 216.00 618.00 C 221.08 618.50 227.33 616.89 232.00 619.00 C 226.93 618.50 220.66 620.12 216.00 618.00 Z" fill="#829876" />
<path d="M 484.04 618.13 L 484.03 618.90 C 472.11 619.30 460.12 618.57 448.22 619.29 C 446.07 619.11 443.93 618.89 441.78 618.70 C 455.57 617.16 470.09 618.29 484.04 618.13 Z" fill="#41524f" />
<path d="M 484.04 618.13 C 485.28 617.79 486.59 617.77 487.98 618.07 C 486.69 619.33 485.73 619.43 484.03 618.90 L 484.04 618.13 Z" fill="#92a29d" />
<path d="M 232.00 619.00 C 236.00 619.06 240.00 618.96 244.00 619.02 L 244.00 619.97 C 240.20 619.78 235.42 620.83 232.00 619.00 Z" fill="#afc1a2" />
<path d="M 244.00 619.02 C 250.66 619.29 257.72 618.25 264.23 619.70 C 262.41 619.89 260.59 620.11 258.77 620.30 C 253.90 619.79 248.98 620.06 244.00 619.97 L 244.00 619.02 Z" fill="#4d6241" />
<path d="M 432.00 619.04 L 432.00 619.97 C 427.27 620.06 422.54 620.04 417.82 619.77 C 422.22 618.34 427.40 619.17 432.00 619.04 Z" fill="#4d5b5a" />
<path d="M 432.00 619.04 C 435.27 619.03 438.52 619.04 441.78 618.70 C 443.93 618.89 446.07 619.11 448.22 619.29 C 443.08 620.63 437.31 619.81 432.00 619.97 L 432.00 619.04 Z" fill="#acb8b7" />
<path d="M 258.77 620.30 C 260.59 620.11 262.41 619.89 264.23 619.70 C 266.81 619.96 269.41 620.03 272.00 620.05 L 272.00 620.98 C 267.39 620.94 263.14 621.47 258.77 620.30 Z" fill="#acbba2" />
<path d="M 272.00 620.05 C 287.93 620.39 304.46 619.11 320.23 620.71 C 319.08 620.90 317.92 621.10 316.77 621.29 C 301.89 620.60 286.90 621.22 272.00 620.98 L 272.00 620.05 Z" fill="#617557" />
<path d="M 416.19 620.23 C 410.72 621.88 404.54 620.46 398.86 621.26 L 396.99 620.56 C 403.24 619.45 409.86 620.08 416.19 620.23 Z" fill="#546561" />
<path d="M 316.77 621.29 C 317.92 621.10 319.08 620.90 320.23 620.71 C 323.82 621.06 327.41 621.05 331.01 621.04 L 330.99 621.98 C 326.34 621.90 321.22 622.52 316.77 621.29 Z" fill="#b2c7b0" />
<path d="M 331.01 621.04 C 332.61 620.98 334.20 620.90 335.79 620.80 C 354.54 621.41 373.35 620.57 392.09 621.24 L 392.09 621.83 C 371.74 622.21 351.35 621.92 330.99 621.98 L 331.01 621.04 Z" fill="#54665d" />
<path d="M 392.09 621.24 C 393.72 620.97 395.35 620.76 396.99 620.56 L 398.86 621.26 C 396.64 622.42 394.47 622.20 392.09 621.83 L 392.09 621.24 Z" fill="#adbcb9" />
</svg>