<?xml version="1.0" standalone="no"?>
<!DOCTYPE svg PUBLIC "-//W3C//DTD SVG 20010904//EN"
 "http://www.w3.org/TR/2001/REC-SVG-20010904/DTD/svg10.dtd">
<svg version="1.0" xmlns="http://www.w3.org/2000/svg"
 width="1024.000000pt" height="1024.000000pt" viewBox="0 0 1024.000000 1024.000000"
 preserveAspectRatio="xMidYMid meet">

<g transform="translate(0.000000,1024.000000) scale(0.100000,-0.100000)"
fill="#000000" stroke="none">
<path d="M7634 9731 c-85 -53 -114 -131 -121 -331 -5 -147 3 -200 30 -200 19
0 126 91 243 206 79 78 103 108 113 143 11 40 11 47 -11 90 -34 65 -92 104
-165 108 -45 3 -65 0 -89 -16z m121 -106 c79 -46 73 -61 -77 -210 l-110 -110
6 72 c7 87 33 174 69 231 32 50 52 53 112 17z"/>
<path d="M4695 9563 c-501 -40 -980 -162 -1462 -371 -319 -138 -810 -470
-1128 -761 -28 -25 -70 -63 -94 -85 -43 -37 -43 -39 -29 -65 9 -14 21 -43 27
-63 7 -21 15 -38 17 -38 3 0 46 40 97 89 276 267 731 593 1056 756 52 26 158
72 235 102 590 230 1012 313 1594 313 371 0 609 -22 937 -85 154 -30 214 -36
415 -44 129 -6 239 -6 244 -1 4 4 -36 22 -90 39 -353 110 -748 182 -1144 210
-131 10 -576 12 -675 4z"/>
<path d="M8223 9306 c-172 -71 -473 -280 -460 -319 2 -6 14 -19 28 -28 19 -14
70 -21 249 -33 309 -22 349 -21 391 7 72 47 98 161 64 273 -18 57 -38 84 -86
113 -47 29 -91 26 -186 -13z m143 -97 c13 -15 20 -40 22 -89 6 -108 13 -105
-273 -114 -130 -4 -239 -5 -241 -3 -3 2 30 27 73 55 112 74 324 169 379 171
11 1 29 -8 40 -20z"/>
<path d="M4690 9284 c-176 -13 -229 -19 -395 -49 -167 -29 -460 -107 -602
-160 -37 -14 -108 -41 -158 -59 -286 -106 -563 -261 -880 -490 -197 -143 -306
-235 -461 -387 -108 -106 -112 -110 -104 -142 23 -96 74 -221 156 -384 51
-100 97 -198 104 -218 9 -27 62 -116 87 -144 2 -3 20 11 41 30 20 20 49 43 64
52 46 28 174 67 225 68 l48 0 -45 14 c-85 27 -420 316 -420 364 0 33 20 25 80
-33 44 -43 267 -225 412 -336 15 -12 54 -30 87 -41 l59 -20 70 50 c76 55 135
81 188 81 45 0 49 13 11 40 -52 39 -443 430 -502 501 -58 71 -72 105 -42 103
25 -2 180 -146 357 -332 149 -156 245 -240 258 -227 4 3 0 10 -8 15 -37 21
-90 65 -90 73 0 5 7 4 16 -4 13 -10 17 -10 24 1 4 7 6 19 3 27 -3 7 2 16 12
19 17 7 40 50 36 72 -1 6 3 29 8 49 7 26 7 41 -1 50 -13 16 -8 22 23 28 25 5
46 -6 125 -66 28 -22 54 -39 58 -39 4 0 18 -10 31 -22 13 -13 45 -41 71 -63
27 -22 64 -55 83 -72 47 -45 50 -41 9 10 -19 23 -59 74 -90 112 -187 235 -468
745 -410 745 5 0 12 -7 16 -15 3 -8 26 -46 51 -85 25 -38 45 -72 45 -75 0 -23
215 -360 277 -434 22 -25 22 -26 23 -4 0 16 4 21 15 17 10 -4 15 0 15 14 0 11
6 25 14 31 25 21 40 98 28 139 -19 59 -30 142 -21 148 14 8 79 -41 122 -93 22
-26 70 -91 108 -144 58 -83 134 -174 189 -229 20 -21 60 -77 60 -87 1 -8 46
-63 53 -63 2 0 -70 147 -161 328 -221 441 -332 688 -332 740 0 60 40 -4 147
-233 87 -187 253 -525 258 -525 7 0 -5 52 -15 65 -13 18 -21 65 -10 65 5 0 9
8 8 18 -3 32 14 82 28 82 8 0 14 4 14 9 0 17 88 53 112 46 27 -8 87 -72 110
-117 81 -161 113 -231 143 -311 136 -368 269 -703 286 -721 12 -13 12 9 -1 48
-32 104 -95 287 -111 321 -10 22 -25 65 -34 95 -25 83 -35 108 -72 186 -18 39
-33 76 -33 83 0 6 -4 19 -10 29 -5 9 -24 69 -41 132 -17 63 -37 138 -45 165
-25 85 -74 303 -100 445 -13 74 -34 163 -45 197 -11 35 -19 70 -17 79 6 30 76
-120 92 -198 9 -42 20 -88 26 -102 5 -14 21 -81 35 -149 22 -107 53 -218 85
-301 10 -29 46 -26 55 5 3 10 15 21 26 24 10 4 19 14 20 23 0 11 3 12 6 5 6
-16 30 -17 35 -2 2 6 16 12 31 12 25 0 27 2 27 46 0 25 -11 155 -25 289 -32
312 -32 391 -1 457 31 67 92 120 193 167 97 44 168 64 383 109 85 17 159 35
163 38 11 11 -307 31 -458 30 -71 -1 -209 -7 -305 -15z"/>
<path d="M5864 9229 c-251 -13 -420 -37 -674 -95 -236 -54 -370 -127 -422
-228 -25 -48 -23 -88 16 -406 23 -187 61 -586 101 -1060 15 -176 59 -582 71
-661 l6 -37 -56 -21 c-112 -42 -231 -115 -363 -222 -81 -67 -106 -72 -152 -33
l-31 26 0 196 c0 226 -12 295 -79 482 -52 143 -65 169 -115 221 -54 56 -122
88 -215 101 -128 19 -226 -13 -331 -109 l-40 -35 -67 28 c-62 26 -79 29 -188
29 -111 0 -124 -2 -171 -27 -28 -15 -72 -43 -99 -63 -27 -21 -54 -35 -64 -32
-9 3 -50 18 -91 32 -63 23 -85 26 -139 21 -83 -7 -187 -56 -264 -125 -56 -49
-59 -50 -82 -35 -40 26 -89 110 -214 366 -99 202 -124 264 -152 368 -35 135
-107 309 -158 383 -104 152 -296 183 -411 67 -54 -53 -71 -102 -71 -199 -1
-165 87 -403 474 -1291 96 -221 114 -281 127 -436 6 -76 18 -166 25 -199 7
-33 17 -96 20 -140 7 -72 19 -153 84 -535 37 -215 44 -245 72 -325 16 -44 54
-119 85 -167 30 -48 54 -95 52 -104 -3 -19 -9 -22 -88 -57 -82 -36 -139 -83
-161 -130 -15 -34 -19 -66 -19 -164 l0 -121 -34 -20 c-43 -25 -48 -53 -44
-244 2 -75 0 -139 -4 -143 -4 -4 -19 0 -32 8 -14 9 -71 35 -128 58 -178 72
-305 64 -372 -23 -25 -33 -52 -123 -72 -243 -8 -46 -12 -50 -49 -64 -315 -112
-429 -222 -454 -441 -5 -47 -15 -206 -21 -355 -7 -166 -16 -279 -23 -294 -13
-27 -58 -45 -267 -111 -171 -54 -303 -100 -313 -110 -9 -8 112 -152 196 -232
28 -27 90 -80 137 -116 175 -138 330 -266 330 -275 0 -5 -78 -88 -174 -185
-182 -185 -263 -278 -312 -352 -16 -25 -46 -68 -66 -96 -21 -28 -41 -65 -44
-82 -6 -28 -3 -32 21 -38 40 -10 293 3 400 21 194 31 421 87 740 182 351 104
540 184 636 269 27 24 54 44 59 44 5 0 36 -24 68 -52 33 -29 94 -78 136 -108
42 -30 118 -86 169 -123 50 -38 106 -76 122 -84 17 -9 71 -42 120 -73 270
-171 523 -289 870 -405 524 -175 1028 -246 1583 -224 450 18 842 90 1237 227
340 117 606 242 899 419 204 124 492 343 537 410 l15 23 65 -46 c165 -118 445
-222 1004 -373 196 -53 268 -65 521 -91 345 -35 359 -24 214 162 -49 64 -150
180 -222 257 -191 204 -278 304 -277 321 0 16 60 69 264 231 255 203 433 371
423 400 -7 20 -328 132 -545 189 -65 17 -82 26 -87 43 -3 12 -11 139 -16 282
-14 358 -23 425 -60 502 -51 104 -196 215 -362 279 -75 28 -73 25 -103 169
-25 116 -48 151 -122 189 -87 44 -178 31 -402 -59 -76 -30 -147 -55 -158 -55
-15 0 -31 21 -64 82 -75 140 -101 161 -219 178 -130 18 -164 50 -179 165 -6
44 -22 130 -36 190 -13 61 -33 178 -45 260 -24 173 -43 250 -78 320 -32 64
-88 132 -124 151 -28 14 -28 15 -22 87 3 40 14 128 24 197 18 115 60 501 75
680 4 41 17 176 30 300 13 124 31 313 40 420 23 274 124 1286 165 1645 16 141
-10 207 -103 267 -105 69 -212 104 -491 163 -308 65 -748 88 -1192 64z m751
-95 c229 -18 370 -40 566 -88 186 -47 260 -79 327 -143 l55 -52 -6 -78 c-3
-43 -15 -150 -25 -238 -37 -305 -52 -442 -82 -770 -44 -471 -77 -822 -145
-1510 -19 -198 -38 -389 -41 -425 -9 -99 -42 -331 -47 -336 -3 -3 -23 4 -46
16 -38 19 -53 44 -31 52 12 4 26 98 45 303 8 88 24 248 35 355 11 107 27 272
35 365 8 94 23 249 34 345 22 197 38 356 82 805 24 253 33 316 49 343 29 49
27 74 -7 70 -34 -4 -37 13 -26 117 7 61 11 70 28 70 23 0 33 23 34 82 1 24 8
79 17 123 9 45 15 83 12 85 -2 3 -39 -9 -82 -25 -128 -50 -380 -110 -571 -136
-144 -21 -237 -27 -462 -31 -372 -7 -632 12 -990 73 -52 9 -97 14 -100 10 -10
-9 18 -65 36 -70 9 -3 75 -10 146 -16 72 -6 180 -20 240 -31 95 -18 159 -22
460 -26 363 -5 565 6 751 42 43 8 79 13 82 11 6 -7 -17 -201 -27 -229 -29 -76
-277 -124 -549 -107 -181 11 -258 23 -376 56 -104 29 -117 35 -171 79 -22 17
-94 60 -160 94 -119 62 -121 63 -190 59 -48 -2 -84 -10 -113 -26 -23 -12 -50
-22 -59 -22 -22 0 -10 -60 18 -82 30 -25 42 -22 63 13 19 32 51 49 93 49 38 0
247 -105 321 -162 102 -77 277 -123 512 -134 241 -11 459 20 583 84 4 2 7 -24
7 -57 l0 -60 -65 -20 c-36 -11 -150 -31 -253 -43 -271 -32 -590 -30 -832 5
-96 14 -175 25 -177 24 -6 -7 -10 -86 -4 -95 15 -25 510 -66 686 -57 179 9
392 32 504 56 52 10 99 19 105 19 8 0 10 -25 5 -87 -4 -49 -10 -131 -13 -183
-12 -173 -26 -354 -36 -455 -6 -55 -19 -228 -30 -385 -11 -157 -24 -339 -29
-405 -22 -262 -31 -403 -31 -457 0 -31 -4 -59 -9 -63 -5 -3 -31 -1 -57 5 -34
8 -62 8 -101 0 -54 -12 -54 -11 -146 36 -109 56 -222 116 -292 154 -80 44
-152 64 -235 64 -66 1 -85 -4 -144 -33 -138 -68 -218 -184 -219 -318 l-1 -62
-47 -11 c-30 -7 -58 -23 -80 -46 -37 -38 -49 -42 -49 -17 0 9 -4 30 -9 47 -5
17 -15 63 -21 101 -16 97 -19 104 -41 116 -36 19 -49 -5 -48 -85 1 -102 12
-171 27 -169 7 2 12 -2 12 -8 0 -5 4 -8 9 -5 11 7 21 -17 21 -47 0 -12 -10
-42 -22 -67 -12 -25 -24 -74 -27 -110 -5 -57 -9 -65 -28 -68 -14 -2 -23 3 -27
15 -3 10 -17 135 -31 278 -14 143 -30 306 -37 362 -10 91 -10 104 5 127 10 14
26 26 38 26 11 0 22 6 25 14 7 19 69 43 153 61 192 40 319 90 355 138 32 43
36 169 6 226 -50 99 -133 161 -277 206 -65 21 -98 25 -199 25 -83 0 -135 -5
-164 -15 -24 -8 -45 -14 -47 -11 -6 5 -50 439 -78 766 -14 162 -34 381 -45
485 -11 105 -28 278 -39 385 -11 107 -25 231 -31 275 -25 178 -25 176 9 219
58 72 127 107 298 150 420 105 866 133 1438 90z m686 -703 c9 -22 -1 -201 -17
-318 -5 -39 -8 -43 -45 -54 -21 -7 -42 -10 -45 -7 -3 3 0 44 6 89 7 46 15 136
19 201 8 131 20 161 54 131 10 -10 23 -29 28 -42z m-158 16 c3 -8 1 -61 -4
-118 -5 -57 -12 -147 -15 -199 -4 -52 -11 -100 -16 -107 -9 -11 -86 -29 -93
-21 -2 2 2 40 10 85 8 44 17 140 21 213 5 93 11 136 21 146 18 18 69 18 76 1z
m-5417 -133 c51 -24 102 -88 145 -178 39 -83 101 -286 113 -366 4 -25 27 -81
52 -125 42 -76 64 -119 183 -365 28 -58 76 -145 106 -193 55 -86 79 -139 157
-347 45 -121 108 -330 108 -359 0 -15 -14 -25 -57 -41 -32 -12 -67 -28 -78
-36 -28 -21 -9 -30 81 -38 41 -3 83 -10 93 -16 11 -5 31 -47 50 -102 95 -278
192 -420 334 -492 32 -16 62 -36 66 -45 5 -9 11 -74 13 -146 6 -140 18 -187
88 -325 43 -84 146 -190 187 -190 15 0 23 4 17 8 -34 23 -140 155 -166 206
-48 95 -72 271 -48 356 12 44 69 140 92 154 30 18 30 0 2 -55 -52 -104 -42
-292 23 -424 30 -60 95 -130 145 -156 l37 -19 -48 48 c-197 197 -164 584 55
648 78 22 137 53 207 107 l58 46 86 0 c72 0 95 5 139 26 96 47 145 120 192
281 l28 97 69 28 c68 28 132 38 121 20 -3 -5 -39 -28 -81 -52 -41 -23 -75 -48
-75 -54 0 -7 38 -4 122 10 119 20 122 21 129 49 4 16 16 36 26 45 286 259 431
339 683 371 219 29 454 -61 489 -185 6 -22 7 -42 3 -46 -4 -4 -41 -11 -82 -17
-94 -12 -166 -39 -255 -96 -97 -62 -233 -166 -251 -193 -19 -30 -32 -29 -46 1
-17 38 -38 41 -45 6 -4 -22 -33 -56 -100 -117 -109 -100 -173 -182 -237 -303
-60 -114 -87 -147 -193 -232 -48 -40 -119 -98 -157 -131 -85 -73 -112 -86
-129 -64 -6 9 -48 30 -92 48 -146 59 -293 42 -369 -41 -71 -78 -73 -199 -7
-329 16 -30 19 -47 12 -54 -6 -6 -49 -13 -96 -15 -47 -3 -88 -8 -90 -13 -3 -4
11 -20 30 -35 35 -27 37 -27 145 -20 61 3 110 2 110 -2 0 -14 -128 -73 -225
-104 -49 -15 -143 -36 -209 -45 -142 -20 -258 -11 -456 37 -289 71 -472 215
-604 478 -40 79 -65 176 -91 347 -9 61 -29 189 -45 285 -16 96 -34 225 -40
285 -6 61 -22 191 -36 290 -32 217 -61 309 -209 645 -99 227 -169 392 -193
455 -6 17 -43 108 -82 204 -131 322 -151 477 -72 564 35 39 110 48 168 21z
m5534 -386 c0 -23 -9 -127 -19 -232 -18 -177 -25 -249 -52 -571 -6 -66 -19
-194 -29 -285 -21 -186 -36 -352 -50 -585 -11 -171 -59 -657 -66 -664 -2 -3
-17 5 -32 16 -33 25 -33 8 8 453 16 179 34 379 40 445 14 163 29 330 40 450 5
55 14 156 20 225 6 69 20 208 30 310 11 102 24 246 30 320 6 74 13 141 15 148
3 6 18 12 35 12 29 0 30 -2 30 -42z m-170 -25 c0 -20 -30 -347 -60 -653 -11
-113 -26 -304 -35 -425 -8 -121 -19 -272 -25 -335 -13 -147 -48 -567 -56 -687
-4 -51 -10 -93 -13 -93 -4 0 -22 13 -40 28 l-34 28 17 195 c9 107 21 250 26
319 16 208 39 486 55 660 8 91 22 251 30 355 18 231 32 379 46 508 11 97 11
97 43 106 44 13 46 13 46 -6z m-3064 -527 c57 -27 110 -84 124 -136 14 -51 12
-119 -10 -355 -10 -115 -24 -264 -30 -330 -24 -253 -50 -403 -85 -477 -8 -18
-13 -26 -11 -17 2 9 8 52 11 96 8 89 -3 124 -50 162 -61 47 -225 48 -259 0
-12 -18 -14 -15 -19 33 -4 29 -9 193 -13 363 -3 171 -12 359 -20 418 -14 117
-13 126 24 176 62 84 230 117 338 67z m-569 -80 c55 -26 95 -74 114 -137 5
-19 14 -162 20 -319 5 -157 15 -379 23 -495 12 -188 9 -262 -8 -209 -3 11 -22
30 -41 43 -30 20 -47 23 -114 23 -83 -1 -121 -13 -156 -51 l-19 -22 -13 43
c-7 24 -40 183 -73 353 -34 171 -73 360 -88 420 -15 62 -27 140 -27 177 0 66
1 68 45 113 83 85 228 111 337 61z m-565 -77 c44 -23 75 -60 88 -108 14 -54
58 -260 86 -406 14 -71 43 -219 65 -328 21 -108 39 -200 39 -202 0 -3 -9 0
-20 7 -15 10 -32 10 -74 1 -129 -27 -172 -71 -170 -173 1 -41 9 -85 23 -119
35 -86 21 -76 -62 48 -15 22 -107 297 -300 896 -41 127 -56 150 -67 103 -5
-20 -7 -21 -13 -5 -10 26 10 105 38 153 80 136 242 195 367 133z m1357 -515
c1 -192 3 -216 22 -259 20 -44 19 -76 -1 -45 -6 8 -10 11 -10 7 0 -5 -7 -1
-16 7 -8 9 -22 16 -30 16 -17 0 -19 102 -4 260 6 58 13 150 17 205 10 158 22
60 22 -191z m1391 -342 c0 -5 -11 -14 -24 -20 -44 -20 -216 -63 -234 -59 -19
4 101 63 158 77 47 11 100 12 100 2z m-1730 -77 c41 -21 52 -70 44 -192 -5
-71 -11 -101 -22 -110 -22 -18 -115 -16 -159 2 l-36 15 7 133 c6 116 10 134
28 150 25 21 98 23 138 2z m-179 -145 l-9 -45 -1 37 c-1 20 2 44 6 54 11 29
14 2 4 -46z m-197 -22 c11 -17 46 -211 46 -253 0 -3 -15 -14 -32 -25 -24 -15
-51 -20 -100 -20 l-67 0 -10 53 c-16 78 -31 226 -25 242 7 18 26 22 106 24 60
1 69 -2 82 -21z m-394 -8 c18 -18 66 -156 77 -223 6 -40 -3 -49 -89 -81 -62
-23 -67 -24 -81 -8 -32 37 -57 103 -76 206 -11 59 10 90 77 110 63 19 69 19
92 -4z m1926 -143 c2 -26 14 -136 28 -244 14 -109 30 -256 36 -328 l10 -129
-65 -65 c-76 -75 -112 -142 -121 -223 -4 -32 -8 -58 -10 -58 -10 0 -316 121
-349 137 -55 29 -257 152 -273 167 -11 11 -2 23 46 70 32 31 107 95 166 143
118 94 153 135 199 233 80 173 255 361 321 346 5 -1 11 -23 12 -49z m1118 -55
c88 -44 181 -94 205 -112 42 -31 43 -34 26 -46 -33 -24 -58 -15 -148 54 -162
124 -167 127 -167 93 0 -21 57 -97 114 -150 20 -19 36 -40 36 -47 0 -7 -23
-17 -52 -23 -29 -6 -96 -20 -148 -31 -52 -11 -132 -28 -177 -38 -74 -15 -84
-20 -92 -44 -6 -16 -14 -28 -20 -28 -24 0 -101 157 -101 206 1 77 76 180 163
224 56 29 69 31 131 27 61 -4 86 -13 230 -85z m534 -186 c15 -8 36 -24 47 -36
36 -41 204 -170 278 -214 39 -24 110 -64 157 -89 156 -84 199 -158 236 -405
13 -86 35 -215 49 -287 36 -177 41 -282 21 -370 -17 -71 -88 -232 -126 -285
-33 -46 -8 -35 41 18 65 69 94 109 130 182 31 63 32 64 43 40 6 -14 39 -67 74
-120 72 -109 73 -119 14 -210 -49 -76 -82 -110 -107 -110 -11 0 -27 -6 -34
-12 -10 -11 -12 -7 -9 17 2 20 -1 29 -9 27 -16 -3 -16 0 -3 32 14 37 2 32 -60
-25 -30 -28 -90 -68 -132 -90 -42 -21 -110 -60 -150 -86 -73 -48 -110 -62
-328 -127 -63 -18 -180 -55 -260 -82 -136 -45 -152 -48 -250 -48 -94 -1 -115
3 -200 33 -187 65 -366 187 -560 380 -164 163 -310 296 -401 364 -69 51 -420
228 -629 316 -94 40 -431 228 -527 293 -174 120 -263 229 -263 324 0 145 139
180 329 84 141 -71 294 -164 377 -229 l27 -21 -32 -45 c-46 -64 -80 -146 -74
-178 3 -16 -1 -37 -11 -51 -20 -32 -3 -45 25 -20 64 58 153 234 130 257 -6 6
-26 -25 -57 -92 -26 -56 -49 -100 -51 -97 -9 9 81 216 94 216 18 0 383 -142
438 -170 22 -11 54 -39 70 -61 31 -43 302 -281 463 -408 50 -40 92 -76 92 -80
0 -5 -22 -56 -50 -115 -51 -108 -63 -166 -35 -166 8 0 33 32 56 71 44 77 104
149 123 149 6 0 43 -21 81 -46 94 -61 238 -129 304 -144 73 -17 205 -8 263 18
57 25 92 63 120 129 12 29 24 53 27 53 4 0 24 -39 45 -87 45 -102 69 -137 146
-214 123 -123 163 -113 58 14 -59 71 -106 154 -129 226 -10 35 -17 66 -14 69
3 3 29 -18 58 -46 147 -139 354 -210 492 -170 l40 11 -30 8 c-16 3 -61 14 -98
23 -38 9 -98 30 -135 48 -111 55 -224 186 -238 275 -6 39 -2 53 37 126 l44 82
1 130 c0 125 15 205 37 205 4 0 47 -7 93 -17 96 -19 171 -10 270 30 62 25 71
39 17 26 -136 -31 -327 21 -426 117 l-36 36 65 74 c63 73 84 108 84 142 0 9
-12 -2 -26 -26 -26 -44 -84 -112 -84 -99 0 4 9 27 21 50 19 38 49 129 49 151
0 18 -33 -20 -62 -71 -37 -66 -102 -124 -185 -165 -139 -68 -404 -60 -570 18
-95 45 -163 151 -163 251 0 47 13 35 61 -58 55 -105 71 -113 199 -106 109 6
199 35 242 78 25 24 28 35 28 89 0 66 -16 107 -58 152 l-25 27 29 7 c36 9 245
93 259 104 27 22 116 25 153 6z m-1065 -193 c57 -75 56 -73 73 -140 26 -105
53 -156 114 -215 68 -66 190 -141 270 -166 65 -20 278 -23 323 -4 20 9 32 9
45 1 43 -28 148 -184 167 -249 7 -22 3 -20 -37 16 -87 76 -215 96 -287 44 -53
-37 -89 -95 -96 -154 -9 -68 0 -84 70 -130 30 -21 55 -39 55 -42 0 -11 -144
77 -336 207 -86 57 -434 340 -506 409 -123 120 -146 177 -113 286 21 72 143
186 207 193 4 1 27 -25 51 -56z m574 27 c78 -47 107 -174 44 -199 -89 -36
-258 -53 -279 -28 -14 17 -115 207 -110 208 12 5 250 37 278 38 19 0 49 -8 67
-19z m-874 -398 c47 -63 157 -167 282 -268 55 -45 111 -92 125 -104 82 -73
172 -143 213 -165 75 -39 163 -98 152 -101 -5 -1 -22 -5 -37 -8 -66 -15 -120
-93 -132 -191 -8 -66 5 -89 84 -149 39 -29 55 -46 40 -41 -38 11 -181 84 -215
110 -16 12 -142 98 -280 190 -481 324 -521 361 -532 487 -5 51 -2 66 26 123
35 71 93 126 157 149 64 24 77 20 117 -32z m-3003 -327 c0 -8 -14 -22 -31 -30
-49 -26 -107 -84 -114 -114 -31 -141 265 -316 672 -398 125 -25 530 -25 690 0
220 34 348 77 429 143 29 24 56 44 59 44 5 0 -4 -232 -11 -266 -4 -23 -51 -47
-189 -95 -157 -54 -277 -71 -542 -76 -331 -7 -477 11 -713 89 -175 57 -403
190 -416 242 -3 12 -4 98 -2 189 3 191 6 199 98 255 61 36 70 38 70 17z m159
-53 c68 -92 113 -127 208 -162 102 -37 180 -55 313 -71 93 -12 230 -6 230 10
0 5 -57 16 -127 25 -159 21 -259 41 -343 68 -70 22 -165 67 -158 74 3 2 40 -5
84 -17 43 -11 95 -25 114 -30 122 -31 227 -38 460 -29 296 11 498 44 563 91
20 15 32 18 39 11 11 -11 18 -266 7 -276 -11 -12 -216 -65 -304 -80 -178 -30
-299 -39 -431 -33 -217 11 -469 62 -629 129 l-80 34 -3 152 c-3 173 1 181 57
104z m3993 -9 c26 -14 71 -47 100 -73 l52 -47 -12 -39 c-15 -52 -65 -127 -95
-143 -21 -11 -32 -7 -112 41 -94 56 -155 109 -155 134 0 28 49 111 81 138 37
32 65 29 141 -11z m-2357 -128 c187 -113 277 -161 463 -246 276 -127 472 -223
503 -248 18 -14 31 -38 39 -73 23 -95 55 -141 152 -212 20 -15 70 -39 110 -52
87 -30 89 -31 198 -123 92 -78 242 -183 358 -250 41 -24 72 -44 70 -46 -4 -5
-314 -55 -337 -55 -10 0 -22 8 -26 18 -10 24 -34 176 -29 183 2 4 -6 15 -17
25 l-20 18 7 -125 7 -126 -78 -6 c-43 -4 -96 -7 -119 -7 l-41 0 -1 170 c0 107
-4 174 -11 181 -8 8 -13 -32 -17 -138 -4 -81 -9 -163 -12 -180 l-5 -33 -114 0
c-63 0 -115 1 -115 3 0 1 7 37 15 81 8 43 22 137 30 210 8 72 17 149 20 171
10 74 -12 3 -25 -81 -7 -43 -19 -106 -27 -139 -8 -33 -24 -102 -35 -152 l-21
-93 -120 0 c-109 0 -119 1 -112 18 35 87 68 186 85 251 11 43 34 120 51 170
17 51 29 94 27 96 -5 6 -145 -355 -182 -472 -12 -34 -24 -54 -37 -58 -11 -4
-67 -4 -125 0 -83 6 -104 10 -104 22 0 9 24 60 54 114 67 122 191 375 200 409
7 28 13 37 -140 -223 -55 -95 -122 -203 -149 -240 -42 -61 -51 -68 -74 -63
-14 3 -64 11 -111 17 l-85 12 3 237 3 236 125 130 c140 145 200 221 103 128
-35 -33 -85 -77 -110 -97 -26 -20 -61 -59 -79 -87 -18 -27 -35 -50 -38 -50 -3
0 -2 83 2 184 4 119 3 187 -4 191 -5 3 -29 9 -52 13 l-43 8 0 157 c0 99 -4
160 -10 165 -83 56 -104 76 -114 103 -11 31 -10 31 12 17 12 -8 58 -36 102
-63z m2093 -232 c95 -53 132 -87 132 -117 -1 -36 -53 -117 -96 -148 l-41 -30
-74 47 c-87 56 -128 91 -140 123 -13 34 6 96 42 137 43 48 74 46 177 -12z
m-4093 -102 c88 -77 329 -203 465 -242 89 -26 264 -66 325 -74 89 -11 89 -27
0 -20 -209 16 -393 67 -565 157 -117 60 -250 155 -261 186 -11 29 -3 28 36 -7z
m5761 -158 c17 -39 17 -118 1 -154 -16 -35 -63 -74 -121 -98 -50 -22 -57 -15
-26 29 37 52 62 122 95 265 6 29 7 29 22 10 8 -11 21 -34 29 -52z m-142 41
c15 -40 -4 -48 -22 -9 -9 20 -9 25 2 25 8 0 17 -7 20 -16z m-3629 -434 l0
-375 -24 3 c-14 1 -27 5 -30 7 -2 3 -4 112 -3 242 0 131 -2 283 -5 339 l-6
101 -56 -16 -56 -17 -5 -309 c-4 -236 -8 -309 -18 -313 -10 -3 -12 60 -10 308
l3 312 90 49 c50 27 97 47 105 46 13 -2 15 -52 15 -377z m-2384 319 c81 -27
180 -68 504 -211 317 -140 508 -213 815 -311 284 -91 416 -129 535 -156 50
-12 139 -32 199 -46 273 -62 501 -97 785 -120 528 -41 935 -26 1436 55 391 63
654 128 1100 271 375 121 527 180 891 350 198 92 337 150 428 179 21 7 63 10
94 8 46 -4 60 -10 83 -36 29 -32 79 -172 79 -220 0 -59 9 -70 69 -87 122 -35
288 -145 353 -235 37 -50 46 -109 58 -350 11 -220 42 -576 61 -687 9 -53 8
-67 -7 -99 -49 -104 -135 -149 -449 -242 -112 -33 -122 -35 -105 -23 13 10 13
11 0 11 -22 1 28 22 175 76 77 29 147 62 175 83 25 19 71 54 102 78 32 24 60
48 63 54 15 23 -10 52 -63 78 -53 24 -66 26 -182 25 -77 -1 -154 -8 -200 -18
-71 -16 -647 -202 -775 -251 -73 -28 -591 -198 -770 -254 -165 -51 -496 -133
-645 -161 -63 -11 -128 -25 -145 -30 -44 -14 -431 -68 -608 -85 -84 -8 -314
-20 -512 -27 -483 -16 -820 1 -1220 62 -510 77 -897 170 -1455 347 -287 91
-371 119 -445 148 -120 46 -546 195 -635 222 -245 73 -431 69 -515 -10 -42
-39 -49 -71 -18 -75 11 -2 50 -30 85 -64 70 -67 112 -91 184 -109 27 -6 71
-22 97 -35 27 -13 58 -24 70 -24 20 -1 20 -2 5 -11 -27 -15 -120 4 -237 50
-193 75 -290 168 -283 271 1 8 8 101 16 205 8 105 20 303 26 440 6 138 16 269
21 293 33 151 150 251 389 332 l104 35 12 105 c16 141 21 155 60 190 43 37
100 40 195 9z m366 -21 c-3 -8 -6 -5 -6 6 -1 11 2 17 5 13 3 -3 4 -12 1 -19z
m3288 -147 c10 -25 -3 -24 -48 3 -49 28 -100 83 -92 97 7 10 131 -79 140 -100z
m-1645 -182 c0 -229 -7 -301 -23 -240 -7 30 -9 365 -1 441 13 140 24 53 24
-201z m-650 60 l-7 -124 -1 150 c0 89 3 139 8 124 4 -15 4 -82 0 -150z m440
-54 c0 -137 -4 -215 -10 -215 -6 0 -10 73 -10 199 0 179 4 231 16 231 2 0 4
-97 4 -215z m-210 95 c0 -129 -11 -253 -23 -241 -5 5 -6 75 -2 181 8 177 25
218 25 60z m4176 -7 c-11 -11 -17 4 -9 23 7 18 8 18 11 1 2 -10 1 -21 -2 -24z
m2050 -1278 c74 -25 149 -52 166 -61 l32 -17 -30 -26 c-17 -14 -100 -82 -185
-151 -163 -133 -215 -178 -348 -302 -46 -43 -88 -78 -92 -78 -5 0 -9 -6 -9
-14 0 -12 25 -42 225 -264 44 -49 117 -131 161 -183 45 -52 93 -105 106 -119
14 -14 33 -37 43 -53 l17 -27 -73 0 c-159 0 -523 84 -1001 229 -272 83 -454
174 -495 246 -12 22 -20 41 -19 43 2 1 32 -15 67 -36 35 -22 118 -60 184 -85
158 -60 542 -177 730 -222 83 -20 203 -50 269 -66 171 -42 183 -39 122 28 -18
21 -45 57 -59 80 -15 23 -64 82 -109 130 -45 48 -101 108 -124 133 -58 61
-103 119 -121 154 -15 29 -15 30 28 65 24 20 80 70 124 112 44 42 121 107 170
144 50 37 108 85 130 105 22 21 66 56 97 78 31 23 59 46 62 51 6 9 -163 68
-260 91 -35 9 -42 15 -48 41 -11 57 -17 58 240 -26z m-8716 26 c0 -36 -11 -44
-80 -60 -89 -22 -210 -61 -210 -69 0 -20 42 -60 173 -166 298 -243 353 -288
399 -324 26 -20 47 -42 48 -48 0 -6 -82 -94 -183 -195 -163 -164 -347 -371
-347 -391 0 -11 62 1 270 53 548 137 903 245 1065 323 100 49 129 74 129 114
1 34 20 45 24 13 4 -22 -1 -36 -32 -101 -15 -33 -114 -92 -251 -150 -143 -62
-413 -148 -600 -194 -55 -13 -154 -38 -220 -54 -210 -54 -563 -101 -554 -74 2
6 38 46 79 89 41 43 107 114 145 158 39 43 136 148 218 232 81 84 147 159 146
166 0 6 -46 51 -102 99 -367 314 -532 467 -519 480 4 4 42 19 83 33 41 13 119
40 174 59 126 45 145 46 145 7z m938 -288 c94 -36 171 -68 169 -70 -7 -7 -255
85 -336 125 -67 32 -28 20 167 -55z m-464 21 c91 -23 103 -36 30 -31 -33 3
-81 14 -105 25 -41 19 -42 20 -15 21 15 1 56 -6 90 -15z m166 -174 c13 -9 13
-10 0 -10 -8 0 -22 5 -30 10 -13 9 -13 10 0 10 8 0 22 -5 30 -10z m115 -29
c22 -11 74 -30 115 -42 41 -11 94 -30 117 -40 24 -11 48 -19 54 -19 6 0 23 -8
37 -19 15 -10 34 -21 42 -25 8 -3 0 -4 -19 -1 -19 3 -84 25 -145 49 -61 24
-143 54 -183 67 -40 12 -70 26 -67 30 2 4 -8 10 -23 12 l-28 4 30 2 c17 0 48
-8 70 -18z m6245 -35 c0 -3 -4 -8 -10 -11 -5 -3 -10 -1 -10 4 0 6 5 11 10 11
6 0 10 -2 10 -4z m53 -173 c12 -136 17 -129 -203 -296 -312 -236 -600 -407
-895 -530 -113 -47 -388 -148 -469 -172 -45 -13 -105 -31 -135 -40 -29 -9 -83
-22 -120 -30 -36 -7 -120 -24 -186 -38 -458 -96 -1063 -102 -1560 -17 -442 77
-888 227 -1246 420 -123 66 -387 226 -454 275 -16 12 -110 81 -208 154 l-177
132 0 101 0 102 43 -40 c59 -57 217 -180 355 -278 545 -384 1001 -581 1652
-715 249 -51 399 -64 750 -65 247 -1 346 3 459 17 401 50 735 133 1121 279
393 148 944 492 1190 742 35 36 67 66 71 66 3 0 9 -30 12 -67z"/>
<path d="M5775 9065 c-261 -25 -570 -77 -682 -116 -58 -20 -142 -68 -164 -95
-21 -25 -13 -74 18 -106 76 -79 288 -156 519 -187 329 -45 406 -51 694 -51
546 0 797 24 1034 100 207 67 286 112 302 174 21 85 -149 160 -531 235 -289
56 -847 77 -1190 46z m875 -88 c30 -7 87 -29 126 -49 54 -28 95 -41 170 -52
189 -30 276 -49 262 -57 -9 -6 -7 -9 8 -9 12 0 33 -9 48 -21 14 -11 29 -18 34
-16 4 3 15 -1 26 -8 17 -13 16 -15 -13 -29 -41 -22 -45 -21 -141 20 -108 45
-215 67 -299 62 -57 -4 -70 -2 -96 18 -17 13 -58 36 -90 51 -55 26 -70 28
-175 28 -112 0 -117 -1 -194 -37 -99 -48 -144 -49 -226 -8 -68 35 -180 54
-255 44 -53 -6 -129 -35 -155 -59 -9 -8 -41 -17 -71 -20 -30 -3 -73 -8 -96
-11 -56 -7 -235 -68 -277 -94 -38 -23 -39 -22 -143 26 -76 35 -91 58 -50 73
30 12 42 2 20 -16 -17 -14 -17 -14 2 -9 l20 6 -20 -16 c-20 -16 -20 -16 2 -11
13 3 21 0 20 -5 -1 -6 12 -15 28 -19 26 -8 46 -1 140 45 61 30 160 68 220 86
61 17 139 40 174 51 35 10 71 20 80 20 9 1 0 5 -19 9 -19 3 115 5 298 4 195
-1 332 2 332 7 0 13 245 10 310 -4z m-678 -162 c31 -8 77 -27 102 -43 42 -27
52 -29 114 -25 51 4 85 13 141 41 71 36 78 37 180 37 94 0 111 -3 148 -24 24
-14 54 -42 68 -63 29 -43 29 -44 81 -22 55 23 200 14 272 -16 28 -13 52 -26
52 -30 0 -18 -233 -54 -490 -76 -112 -9 -711 -5 -820 6 -373 38 -493 56 -487
74 10 31 135 66 238 66 67 0 80 3 125 32 91 58 171 71 276 43z"/>
<path d="M5782 8708 c-29 -29 5 -58 67 -58 45 0 80 51 45 64 -27 10 -99 7
-112 -6z"/>
<path d="M6402 8699 c-39 -15 -19 -33 45 -43 67 -9 117 -2 111 16 -8 22 -120
41 -156 27z"/>
<path d="M4930 8651 c0 -3 10 -36 21 -73 18 -56 24 -65 33 -52 8 11 20 13 39
9 15 -4 27 -11 27 -15 0 -5 -18 -24 -41 -42 -32 -27 -42 -42 -46 -75 -3 -23
-3 -50 1 -59 5 -14 13 -11 49 18 50 41 82 59 98 56 14 -4 24 15 38 68 7 26 19
45 33 51 l23 11 -25 10 c-76 34 -250 98 -250 93z"/>
<path d="M4983 8133 c9 -53 35 -83 103 -120 32 -17 62 -32 67 -32 11 -1 8 88
-4 110 -11 22 -122 79 -153 79 -16 0 -18 -5 -13 -37z"/>
<path d="M5316 8004 c-9 -33 3 -94 18 -94 6 0 29 -9 50 -20 22 -10 43 -17 47
-14 12 7 11 81 -1 103 -8 17 -76 51 -99 51 -5 0 -12 -12 -15 -26z"/>
<path d="M1635 7810 c4 -14 11 -32 16 -40 7 -12 8 -11 8 5 0 11 -7 29 -15 40
-16 19 -16 19 -9 -5z"/>
<path d="M1899 7696 c-39 -26 -76 -73 -66 -82 2 -2 29 13 60 34 42 27 57 42
57 59 0 13 -1 23 -2 22 -2 -1 -24 -15 -49 -33z"/>
<path d="M1896 7592 c-82 -48 -87 -67 -10 -37 46 17 104 60 104 76 0 14 -9 10
-94 -39z"/>
<path d="M2103 7204 c-70 -52 -91 -84 -57 -84 16 0 124 97 124 111 0 17 -19 9
-67 -27z"/>
<path d="M2190 7158 c-14 -11 -47 -31 -75 -45 -55 -28 -85 -51 -85 -66 0 -31
148 49 175 95 21 37 17 42 -15 16z"/>
<path d="M4830 6469 c0 -18 81 -163 106 -189 18 -18 27 -21 35 -13 8 8 5 20
-13 45 -14 18 -42 63 -63 101 -32 59 -65 87 -65 56z"/>
<path d="M2521 5030 c59 -80 186 -163 272 -178 75 -14 105 5 45 28 -18 6 -71
28 -118 47 -47 19 -94 38 -105 43 -11 4 -42 27 -70 51 -49 43 -49 43 -24 9z"/>
<path d="M3768 7223 c-43 -7 -33 -20 20 -26 59 -7 262 3 262 13 0 17 -197 26
-282 13z"/>
<path d="M3795 7110 c33 -17 55 -20 122 -17 75 3 104 10 92 21 -2 3 -60 7
-129 10 l-125 6 40 -20z"/>
<path d="M3752 6619 c13 -39 149 -65 199 -39 36 20 19 28 -73 35 -51 3 -101 9
-112 12 -12 3 -17 1 -14 -8z"/>
<path d="M3720 6535 c0 -29 60 -50 147 -50 106 0 132 20 39 29 -35 4 -89 14
-118 22 -66 17 -68 17 -68 -1z"/>
<path d="M3295 7170 c-48 -8 -131 -38 -124 -45 5 -4 248 15 268 21 25 8 -3 24
-49 28 -25 3 -67 1 -95 -4z"/>
<path d="M3340 7074 c-8 -1 -48 -8 -89 -15 -59 -9 -71 -13 -56 -22 33 -18 286
10 301 34 5 8 -121 11 -156 3z"/>
<path d="M3455 6433 c-27 -10 -63 -13 -107 -10 -38 2 -68 0 -68 -4 0 -5 15
-18 33 -30 25 -16 42 -18 77 -13 62 8 106 28 120 53 13 25 4 26 -55 4z"/>
<path d="M3490 6344 c-25 -7 -83 -13 -130 -12 -112 1 -111 1 -65 -27 46 -29
116 -33 178 -11 39 14 77 42 77 58 0 10 -2 9 -60 -8z"/>
<path d="M2773 7101 c-34 -9 -68 -22 -75 -28 -6 -7 -18 -13 -25 -13 -7 0 -13
-4 -13 -9 0 -8 219 34 229 44 19 20 -50 24 -116 6z"/>
<path d="M2815 7019 c-59 -11 -175 -48 -175 -56 0 -23 253 29 285 58 11 11
-43 10 -110 -2z"/>
<path d="M2940 6405 c-91 -36 -113 -62 -47 -58 41 3 158 60 165 81 6 19 -25
13 -118 -23z"/>
<path d="M3045 6351 c-74 -25 -175 -72 -175 -82 0 -18 96 -8 145 15 52 24 90
58 84 74 -2 5 -26 2 -54 -7z"/>
<path d="M5844 5898 c-68 -60 -153 -190 -115 -176 5 2 42 41 82 88 39 47 79
93 87 103 28 32 -14 20 -54 -15z"/>
<path d="M5853 5792 c-67 -67 -102 -116 -91 -128 6 -5 149 138 176 177 11 16
11 19 -2 19 -8 0 -46 -31 -83 -68z"/>
<path d="M6645 5678 c13 -45 80 -188 89 -188 16 0 -4 95 -32 150 -15 31 -36
56 -46 58 -15 3 -17 -1 -11 -20z"/>
<path d="M6570 5643 c0 -22 67 -133 81 -133 13 0 12 4 -27 75 -39 70 -54 87
-54 58z"/>
<path d="M4754 4793 c-83 -196 -100 -266 -69 -289 32 -24 53 -16 79 29 27 48
76 202 76 241 0 14 -4 26 -10 26 -5 0 -10 -4 -10 -10 0 -16 -83 -222 -102
-255 -30 -50 -22 -4 17 94 32 83 54 159 55 189 0 25 -20 11 -36 -25z"/>
<path d="M7175 4710 c-16 -4 -68 -9 -115 -10 -76 -2 -81 -3 -50 -12 47 -14
158 -5 195 15 32 17 20 20 -30 7z"/>
<path d="M7586 4225 c-3 -9 -6 -22 -5 -28 0 -7 5 -1 10 12 5 13 8 26 5 28 -2
2 -6 -3 -10 -12z"/>
<path d="M7562 4136 c-14 -31 -47 -69 -134 -153 -70 -68 -143 -118 -246 -167
-115 -55 -79 -76 50 -30 119 43 160 69 231 143 71 76 134 190 119 218 -7 11
-11 9 -20 -11z"/>
<path d="M6616 4127 c3 -10 9 -15 12 -12 3 3 0 11 -7 18 -10 9 -11 8 -5 -6z"/>
<path d="M6667 4073 c28 -45 95 -107 143 -136 97 -56 242 -71 334 -33 30 12
27 13 -59 20 -49 3 -112 12 -140 20 -76 20 -195 78 -243 119 -52 44 -58 46
-35 10z"/>
<path d="M7591 3975 c-19 -44 -19 -75 0 -75 9 0 13 15 10 39 -2 7 1 20 5 30 9
22 15 51 9 51 -2 0 -13 -20 -24 -45z"/>
<path d="M5558 5447 c-36 -30 -108 -136 -108 -159 0 -32 15 -20 63 50 25 37
58 79 72 92 45 42 21 58 -27 17z"/>
<path d="M5597 5368 c-68 -86 -99 -142 -72 -132 24 9 125 145 125 168 0 17
-22 2 -53 -36z"/>
<path d="M6083 4948 c-31 -34 -103 -149 -103 -165 0 -23 17 -14 47 25 37 47
93 139 93 152 0 17 -15 11 -37 -12z"/>
<path d="M6153 4907 c-16 -18 -50 -65 -77 -106 -36 -53 -46 -75 -37 -84 17
-17 65 35 112 120 22 40 44 75 50 78 14 9 11 25 -5 25 -8 0 -27 -15 -43 -33z"/>
<path d="M5212 5075 c-54 -48 -102 -132 -101 -174 0 -24 1 -25 12 -7 68 105
104 156 128 181 16 17 29 34 29 38 0 16 -21 4 -68 -38z"/>
<path d="M5257 5013 c-55 -73 -101 -152 -93 -160 17 -17 156 166 156 205 0 25
-20 10 -63 -45z"/>
<path d="M5796 4639 c-58 -78 -86 -137 -86 -183 l0 -41 43 85 c24 47 55 106
70 132 38 63 19 69 -27 7z"/>
<path d="M5860 4604 c-40 -44 -108 -169 -98 -179 12 -12 25 3 83 95 64 102 72
148 15 84z"/>
<path d="M3803 4678 c-33 -20 -290 -77 -449 -99 -47 -7 -81 -15 -77 -19 12
-12 278 6 361 24 86 18 189 62 202 87 19 35 10 37 -37 7z"/>
<path d="M4584 3914 c-83 -101 -155 -191 -229 -285 -50 -63 -98 -160 -93 -186
2 -11 20 9 53 58 27 41 91 128 141 194 108 143 217 305 211 311 -3 3 -40 -39
-83 -92z"/>
<path d="M8484 4020 c-51 -10 -160 -56 -364 -150 -436 -203 -668 -297 -970
-390 -107 -33 -238 -74 -291 -90 -266 -82 -691 -176 -953 -210 -352 -45 -498
-53 -921 -47 -545 7 -727 28 -1235 141 -510 114 -1040 291 -1495 501 -44 20
-186 82 -315 138 -312 133 -352 137 -385 35 -10 -29 -26 -68 -37 -85 -29 -49
-21 -67 32 -73 l45 -5 -40 -23 c-22 -12 -61 -38 -87 -56 -26 -19 -78 -44 -115
-57 -226 -74 -312 -161 -313 -314 0 -62 -7 -185 -39 -655 -5 -69 -8 -126 -7
-127 1 -1 24 9 51 22 33 16 83 28 145 36 175 20 286 -7 815 -196 555 -198 826
-283 1255 -391 421 -107 744 -170 1009 -199 338 -36 989 -43 1426 -14 378 24
927 125 1380 253 168 47 500 154 1030 333 595 201 707 230 862 221 60 -4 105
-12 138 -27 26 -12 49 -20 50 -19 1 2 -8 125 -21 273 -40 462 -40 469 -30 497
22 61 -45 172 -147 242 -31 21 -121 64 -199 95 -154 61 -172 78 -119 105 l30
16 -19 45 c-10 24 -24 63 -30 86 -12 44 -59 100 -82 98 -7 -1 -32 -5 -54 -9z
m-16 -202 c13 -13 16 -57 4 -75 -4 -6 -20 -15 -35 -18 -56 -14 -91 57 -45 89
27 19 59 21 76 4z m-159 -95 c12 -27 60 -111 106 -188 45 -77 108 -187 140
-245 48 -86 175 -305 208 -357 6 -9 -25 -29 -106 -69 l-114 -57 -34 25 c-73
55 -512 268 -526 255 -2 -3 21 -51 52 -108 60 -112 128 -251 139 -285 5 -18
-7 -26 -101 -72 -59 -28 -111 -48 -115 -44 -4 4 -102 196 -218 427 -191 381
-209 421 -193 433 39 29 178 74 210 69 44 -8 404 -196 472 -248 29 -22 54 -39
56 -37 6 6 -94 197 -165 314 -38 64 -70 118 -70 120 0 5 220 114 229 114 4 0
17 -21 30 -47z m-6206 -38 c79 -16 170 -62 232 -117 38 -33 135 -175 135 -196
0 -4 -41 -26 -91 -49 l-91 -42 -26 32 c-50 59 -107 107 -148 123 -50 19 -113
15 -128 -8 -20 -33 6 -70 99 -140 112 -83 151 -128 171 -197 43 -144 -17 -278
-159 -353 -36 -20 -57 -23 -142 -23 -90 0 -109 4 -182 33 -96 39 -184 95 -252
161 -50 49 -135 181 -123 192 4 4 32 14 62 24 30 10 81 31 112 47 32 15 60 29
63 31 4 1 17 -25 30 -57 30 -73 91 -138 159 -167 97 -42 165 -24 151 39 -4 22
-31 52 -95 106 -179 154 -227 274 -160 405 46 90 104 134 210 157 73 16 93 16
173 -1z m543 -254 c5 -5 54 -26 109 -46 55 -20 101 -38 103 -40 2 -2 -14 -41
-36 -87 -22 -45 -63 -146 -92 -223 -28 -77 -87 -230 -131 -341 -43 -111 -79
-206 -79 -212 0 -25 -26 -21 -128 17 -59 23 -113 41 -120 41 -17 0 -15 13 7
57 10 21 44 103 75 183 30 80 90 231 132 335 42 105 88 220 102 257 26 66 38
78 58 59z m4669 -125 c28 -7 74 -23 103 -36 l52 -22 -36 -40 c-20 -22 -47 -65
-60 -95 -13 -30 -28 -52 -33 -48 -27 16 -119 25 -167 15 -111 -23 -181 -100
-192 -210 -5 -56 19 -150 54 -202 27 -43 110 -94 166 -103 46 -8 135 16 189
52 42 27 47 47 28 100 l-10 31 -67 -29 c-84 -36 -102 -37 -102 -4 0 13 -11 59
-25 102 -13 42 -23 78 -22 78 1 1 27 7 57 14 54 13 238 81 272 101 39 22 54
12 67 -42 10 -46 58 -165 145 -360 l25 -56 -75 -62 c-42 -34 -77 -60 -78 -58
-1 2 -9 20 -19 41 l-17 38 -63 -64 c-52 -53 -73 -68 -128 -86 -269 -89 -530
36 -627 299 -69 187 -17 417 119 530 72 60 102 76 194 106 81 27 175 30 250
10z m-4160 -45 c55 -16 145 -42 200 -57 136 -37 221 -81 278 -144 61 -68 81
-128 75 -234 -5 -92 -28 -149 -85 -215 -84 -98 -209 -122 -437 -81 -69 12
-129 19 -134 17 -4 -3 -25 -58 -47 -121 -22 -64 -45 -116 -51 -116 -6 0 -52
14 -102 30 -50 17 -101 30 -112 30 -29 0 -34 23 -15 60 14 28 241 708 276 828
14 50 0 49 154 3z m3345 -162 c0 -37 197 -809 225 -881 l15 -37 -38 -10 c-58
-16 -212 -51 -222 -51 -4 0 -15 28 -23 63 -8 34 -33 132 -55 217 -22 85 -61
247 -87 360 -26 113 -53 225 -60 250 -8 24 -12 47 -9 51 2 4 32 12 66 18 35 6
83 18 108 25 64 21 80 20 80 -5z m-2270 -94 c46 -7 86 -18 88 -25 2 -6 37 -60
77 -118 39 -59 112 -170 161 -247 l89 -139 7 104 c3 58 9 169 14 247 l7 143
36 -5 c20 -3 77 -7 126 -9 l90 -4 -3 -139 c-2 -76 -7 -228 -12 -338 -6 -110
-10 -263 -10 -339 l0 -139 -97 6 c-54 4 -115 7 -136 7 l-37 0 -128 191 c-70
106 -150 227 -179 271 l-51 79 -6 -73 c-15 -188 -38 -443 -41 -446 -1 -2 -31
2 -66 8 -35 6 -99 17 -141 23 -42 7 -79 15 -82 18 -6 6 9 113 73 506 22 133
46 288 53 344 l12 101 36 -7 c19 -3 73 -12 120 -20z m1800 -34 c126 -41 130
-44 103 -73 -11 -13 -35 -52 -52 -86 -25 -50 -36 -62 -49 -57 -54 20 -155 36
-211 33 -55 -4 -67 -8 -88 -32 -53 -62 -13 -88 185 -120 201 -32 260 -66 307
-179 24 -58 20 -181 -9 -242 -31 -67 -107 -136 -182 -165 -88 -35 -243 -39
-355 -11 -89 22 -208 76 -216 98 -3 7 22 45 56 85 34 40 61 78 61 85 0 18 9
17 72 -11 78 -35 134 -48 201 -48 47 0 64 5 92 27 41 31 46 67 13 89 -13 8
-80 23 -149 35 -211 34 -286 73 -329 173 -32 76 -26 191 16 267 40 75 125 133
234 161 65 17 198 4 300 -29z m-800 -2 c28 -6 54 -18 57 -26 7 -18 -31 -162
-61 -229 -26 -56 -70 -94 -110 -94 -28 0 -28 1 -26 77 1 30 -5 64 -14 82 -9
16 -16 39 -16 50 0 40 22 122 37 136 17 18 63 19 133 4z"/>
<path d="M8442 3770 c0 -19 2 -27 5 -17 2 9 2 25 0 35 -3 9 -5 1 -5 -18z"/>
<path d="M8395 3781 c-3 -5 -1 -12 5 -16 5 -3 10 1 10 9 0 18 -6 21 -15 7z"/>
<path d="M3196 3002 c-5 -10 -53 -164 -59 -190 -6 -27 10 -35 117 -58 79 -17
119 -9 156 31 27 28 32 89 11 129 -8 14 -33 35 -55 46 -47 22 -164 51 -170 42z"/>
<path d="M7706 8680 c-3 -16 -9 -43 -12 -60 -10 -46 2 -73 43 -100 181 -122
494 -445 735 -760 596 -780 928 -1760 928 -2740 0 -333 -48 -698 -141 -1079
-32 -136 -61 -251 -64 -258 -2 -7 15 -30 38 -52 48 -46 45 -50 87 72 78 226
149 568 186 897 22 193 25 726 6 894 -42 358 -146 796 -264 1111 -170 454
-381 841 -657 1205 -164 217 -271 340 -469 540 -137 138 -371 347 -401 358 -5
2 -11 -11 -15 -28z"/>
<path d="M8167 8672 c56 -52 210 -145 228 -138 26 10 16 44 -21 74 -32 27
-158 81 -224 97 -22 5 -20 1 17 -33z"/>
<path d="M7686 8348 c-11 -65 -35 -275 -41 -368 -3 -52 -15 -173 -26 -267 -23
-212 -24 -234 -4 -227 11 5 10 -2 -4 -33 -19 -38 -56 -298 -49 -342 3 -21 10
-18 103 45 55 37 136 95 180 129 84 65 230 145 265 145 36 0 21 -29 -27 -54
-27 -14 -97 -61 -158 -106 -60 -44 -167 -122 -236 -171 -104 -75 -128 -97
-133 -121 -8 -43 -7 -96 2 -81 8 13 208 109 256 124 27 8 28 7 24 -26 -2 -18
0 -31 4 -29 4 3 17 0 29 -7 16 -8 20 -8 14 1 -5 8 0 7 14 -2 12 -7 21 -23 21
-35 0 -13 5 -23 11 -23 6 0 9 -6 6 -12 -2 -7 -15 -12 -28 -10 -19 2 -21 1 -9
-7 8 -6 25 -11 37 -11 12 0 26 -7 31 -16 10 -17 22 -20 31 -7 9 13 61 34 61
24 0 -4 -12 -14 -27 -21 -16 -8 -35 -20 -43 -26 -8 -7 -46 -29 -85 -49 -68
-36 -182 -100 -316 -177 -46 -26 -70 -47 -79 -68 -7 -17 -10 -33 -7 -36 3 -3
47 17 98 44 246 130 431 222 444 222 8 0 15 -4 15 -9 0 -5 9 -12 20 -16 12 -4
24 -22 31 -46 9 -27 18 -39 31 -39 14 0 18 -8 18 -40 0 -29 -4 -40 -15 -40
-14 0 -21 -34 -17 -80 1 -8 3 -30 4 -48 3 -28 6 -32 25 -27 12 3 25 1 28 -5 6
-10 -4 -13 -40 -11 -20 1 -20 1 0 -8 11 -4 38 -2 65 5 76 23 21 -10 -79 -46
-47 -17 -122 -46 -166 -65 -44 -18 -150 -58 -235 -88 -190 -68 -270 -104 -270
-123 0 -21 17 -18 126 25 54 22 155 56 224 76 68 19 185 60 260 90 74 30 200
76 280 103 80 28 178 62 219 77 44 15 78 22 83 17 14 -14 -10 -27 -82 -46 -36
-10 -113 -34 -173 -53 -82 -27 -105 -38 -97 -48 7 -9 6 -16 -4 -24 -10 -8 -13
-24 -10 -49 3 -20 7 -50 9 -67 2 -16 1 -24 -2 -17 -2 6 -9 12 -15 12 -7 0 -9
-19 -6 -50 4 -44 1 -55 -23 -88 -16 -20 -29 -45 -29 -54 0 -9 -9 -20 -20 -23
-11 -3 -20 -10 -20 -15 0 -16 -69 -40 -171 -60 -57 -11 -131 -29 -164 -40 -33
-10 -109 -28 -170 -40 -139 -27 -206 -47 -236 -72 -13 -11 -17 -18 -8 -15 46
15 245 60 404 91 99 20 290 59 425 86 135 28 301 60 369 71 67 10 132 24 143
30 25 13 37 3 17 -15 -20 -19 -65 -33 -239 -72 -85 -19 -158 -40 -162 -47 -8
-12 -7 -26 9 -117 10 -50 -2 -139 -20 -157 -18 -17 -157 -43 -235 -43 -82 0
-473 -36 -556 -51 -33 -6 -75 -17 -95 -24 -20 -8 -45 -15 -56 -17 l-20 -4 20
-10 c14 -8 51 -7 130 3 148 19 915 18 915 -1 0 0 4 -16 9 -34 7 -22 6 -30 -1
-26 -7 4 -8 -4 -3 -24 4 -19 2 -33 -5 -37 -9 -6 -9 -10 1 -16 11 -7 10 -9 -5
-9 -15 0 -16 -3 -6 -15 9 -10 9 -15 1 -15 -6 0 -11 -9 -11 -20 0 -11 -7 -20
-16 -20 -8 0 -13 -3 -11 -7 9 -16 -12 -51 -35 -56 -194 -46 -473 -86 -601 -87
-76 0 -197 -20 -197 -33 0 -6 39 -7 103 -3 201 12 519 18 585 10 37 -4 59 -9
50 -11 -67 -16 56 -35 347 -54 94 -6 174 -15 179 -19 16 -16 -88 -23 -244 -17
-85 3 -175 2 -200 -1 l-45 -7 -7 -75 c-4 -41 -12 -86 -18 -99 -8 -18 -8 -26 2
-32 9 -6 5 -9 -12 -10 l-25 -1 25 -8 c22 -7 20 -8 -15 -10 -52 -2 125 -31 330
-54 160 -18 225 -31 225 -46 0 -6 -12 -10 -27 -10 -101 0 -589 41 -663 56 -19
4 -17 1 10 -13 19 -9 37 -21 38 -25 2 -4 12 -8 23 -8 10 0 19 -4 19 -9 0 -5
13 -12 29 -16 16 -3 35 -13 42 -21 6 -8 20 -14 31 -14 47 0 91 -40 82 -75 -4
-14 -2 -25 4 -25 12 0 21 -35 24 -92 1 -27 7 -38 18 -38 13 0 13 -2 0 -10 -21
-13 -12 -18 73 -34 43 -8 82 -18 88 -22 6 -3 44 -10 85 -15 97 -11 131 -28 55
-29 -51 0 -53 -1 -39 -17 15 -16 52 -126 78 -230 9 -38 14 -42 50 -48 22 -4
46 -12 53 -19 6 -6 28 -23 47 -36 19 -13 41 -31 49 -38 12 -12 17 -5 33 45 23
76 93 361 107 438 35 195 61 515 61 760 0 376 -60 841 -147 1134 -14 47 -35
120 -48 161 -74 254 -300 741 -466 1005 -174 278 -376 538 -584 754 -101 105
-293 281 -306 281 -4 0 -9 -15 -13 -32z m671 -1405 c-14 -15 -30 -23 -34 -19
-4 4 5 18 22 31 38 31 47 22 12 -12z"/>
<path d="M1427 7645 c-72 -90 -230 -363 -342 -590 -117 -237 -222 -502 -284
-710 -71 -242 -143 -637 -166 -910 -32 -378 -7 -894 61 -1260 35 -184 164
-626 183 -624 10 0 81 115 81 131 0 8 -15 64 -34 124 -124 397 -184 856 -173
1333 6 287 24 463 73 726 48 258 84 397 159 621 94 279 363 831 502 1027 l34
48 -27 59 c-15 33 -29 60 -33 60 -3 0 -19 -16 -34 -35z"/>
<path d="M1560 7391 c0 -12 -36 -87 -80 -166 -269 -487 -406 -847 -505 -1335
-90 -438 -104 -987 -39 -1450 31 -227 124 -607 156 -648 9 -10 20 -7 53 12 23
14 68 35 99 47 65 24 76 41 96 148 17 92 46 165 81 199 38 37 123 62 212 62
71 0 86 11 37 29 -27 9 -30 14 -30 51 0 70 20 130 49 147 14 9 45 29 68 44 23
16 46 29 52 29 6 0 18 8 28 19 11 12 45 23 91 31 40 7 71 14 68 17 -2 3 -60 0
-128 -6 -126 -12 -555 -41 -595 -41 -16 0 -23 6 -23 18 0 16 14 20 113 30 222
23 529 61 535 66 3 3 -9 6 -27 6 -19 0 -30 4 -26 10 3 6 2 10 -3 10 -9 0 -37
55 -37 72 0 4 -5 12 -12 19 -8 8 -9 18 -2 31 7 12 6 18 -2 18 -7 0 -9 9 -5 25
5 19 1 28 -19 41 -23 15 -53 16 -271 12 -179 -4 -244 -2 -241 6 2 7 60 16 148
23 158 13 677 44 776 46 35 1 63 4 63 8 0 3 -14 27 -32 55 -17 27 -45 74 -60
104 -22 41 -28 47 -23 25 4 -22 3 -26 -5 -15 -9 13 -11 13 -20 0 -8 -12 -10
-12 -10 5 0 12 -3 16 -8 9 -4 -6 -38 -14 -75 -17 -67 -6 -69 -6 -101 26 -37
37 -76 114 -76 148 1 36 25 63 51 56 12 -3 35 1 52 9 30 16 94 15 130 0 15 -7
17 -2 17 35 0 75 -8 90 -43 83 -34 -6 -87 12 -87 30 0 6 -9 18 -20 26 -11 8
-20 23 -20 33 0 9 -7 20 -15 23 -9 4 -13 15 -11 27 3 12 5 25 5 30 1 4 8 7 16
7 9 0 15 9 15 23 0 21 -4 23 -31 19 -20 -3 -30 -1 -25 6 3 5 -1 12 -9 16 -8 3
-15 11 -15 19 0 13 -60 31 -392 115 -92 23 -148 42 -148 50 0 18 22 15 155
-19 317 -82 547 -131 559 -118 2 2 1 24 -3 49 -5 25 -14 92 -20 150 -22 187
-44 233 -128 265 -26 10 -73 29 -103 42 -98 45 -204 90 -252 107 -46 17 -64
36 -34 36 8 0 108 -33 223 -74 114 -40 218 -77 231 -81 25 -7 25 -18 6 187 -7
81 -27 141 -89 273 -30 63 -58 127 -61 142 -4 16 -23 60 -42 98 -19 39 -64
138 -99 220 -67 157 -83 185 -83 146z m145 -471 c-4 -6 -1 -17 5 -25 16 -19 1
-19 -24 0 -20 15 -14 35 10 35 8 0 12 -5 9 -10z m35 -10 c0 -5 -2 -10 -4 -10
-3 0 -8 5 -11 10 -3 6 -1 10 4 10 6 0 11 -4 11 -10z m-356 -2709 c8 -12 -18
-21 -64 -21 -39 0 -61 14 -38 23 22 9 97 7 102 -2z"/>
<path d="M1680 4458 c0 -19 2 -20 10 -8 13 19 13 30 0 30 -5 0 -10 -10 -10
-22z"/>
<path d="M8015 4306 c11 -8 27 -16 37 -16 9 0 70 -16 137 -35 108 -32 195 -45
178 -29 -7 7 -273 77 -335 89 -35 6 -36 6 -17 -9z"/>
<path d="M1881 4239 c-39 -12 -36 -18 13 -29 34 -7 36 -6 36 16 0 26 0 26 -49
13z"/>
</g>
</svg>
